<?xml version="1.0" encoding="UTF-8" standalone="no"?>
<!DOCTYPE svg PUBLIC "-//W3C//DTD SVG 1.1//EN" "http://www.w3.org/Graphics/SVG/1.1/DTD/svg11.dtd">
<svg xmlns="http://www.w3.org/2000/svg" version="1.1" viewBox="0.00 0.00 1024.00 1024.00">
<g stroke-width="2.00" fill="none" stroke-linecap="butt">
<path stroke="#a79b95" vector-effect="non-scaling-stroke" d="
  M 510.45 134.41
  Q 495.72 136.11 481.71 140.94
  C 480.32 141.42 478.88 142.19 477.66 143.01
  Q 476.72 143.64 476.64 142.51
  C 476.51 140.61 475.80 136.25 473.36 136.35
  C 469.96 136.49 470.29 140.40 471.49 142.48
  Q 472.86 144.85 474.41 147.05
  Q 474.70 147.46 474.52 147.93
  L 473.21 151.49"
/>
<path stroke="#e0c0a8" vector-effect="non-scaling-stroke" d="
  M 473.21 151.49
  Q 472.65 161.34 473.80 171.30"
/>
<path stroke="#939291" vector-effect="non-scaling-stroke" d="
  M 473.80 171.30
  Q 472.85 172.43 474.07 174.04"
/>
<path stroke="#e0c0a8" vector-effect="non-scaling-stroke" d="
  M 474.07 174.04
  Q 475.75 177.00 474.60 178.98"
/>
<path stroke="#939291" vector-effect="non-scaling-stroke" d="
  M 474.60 178.98
  Q 473.50 178.91 473.19 179.50
  Q 472.94 179.98 473.36 180.48
  Q 473.69 180.86 474.25 181.12"
/>
<path stroke="#e0c0a8" vector-effect="non-scaling-stroke" d="
  M 474.25 181.12
  Q 473.36 186.86 470.98 192.09
  C 470.04 194.13 469.78 195.54 472.15 196.51
  Q 473.27 196.98 474.34 197.29
  Q 474.91 197.46 474.87 198.05
  L 474.63 202.00
  Q 474.59 202.63 475.05 203.06
  L 476.25 204.19
  Q 476.76 204.67 476.75 205.37
  Q 476.73 206.72 476.30 208.05
  A 1.85 1.85 0.0 0 0 476.82 209.98
  L 478.35 211.36
  Q 478.81 211.77 478.83 212.38
  C 479.06 218.11 479.98 222.72 487.30 220.55
  C 492.37 219.04 498.31 217.09 503.61 218.02
  A 1.85 1.83 -12.1 0 1 504.83 218.80
  Q 506.58 221.35 506.88 224.60
  Q 506.95 225.28 506.46 225.77
  C 498.20 234.01 488.59 239.87 477.96 244.99
  A 1.69 1.69 0.0 0 0 477.02 246.76
  C 478.10 254.33 481.98 262.56 486.02 268.67
  C 487.53 270.95 487.63 272.82 487.49 275.49
  Q 486.78 288.97 484.65 302.74
  Q 484.54 303.48 484.78 304.53"
/>
<path stroke="#939291" vector-effect="non-scaling-stroke" d="
  M 484.78 304.53
  L 484.46 306.21"
/>
<path stroke="#e0c0a8" vector-effect="non-scaling-stroke" d="
  M 484.46 306.21
  L 480.26 326.02"
/>
<path stroke="#f3d7bb" vector-effect="non-scaling-stroke" d="
  M 480.26 326.02
  L 458.76 312.61
  Q 458.33 312.34 457.84 312.48
  Q 455.79 313.04 454.46 311.52"
/>
<path stroke="#e0c0a8" vector-effect="non-scaling-stroke" d="
  M 454.46 311.52
  Q 452.62 304.33 446.49 300.88"
/>
<path stroke="#f3d7bb" vector-effect="non-scaling-stroke" d="
  M 446.49 300.88
  Q 445.49 298.60 446.18 294.47
  A 0.51 0.51 0.0 0 0 445.61 293.88
  Q 443.48 294.18 441.24 294.15
  Q 426.19 293.97 411.25 294.38
  Q 409.81 294.42 409.16 293.23"
/>
<path stroke="#e0c0a8" vector-effect="non-scaling-stroke" d="
  M 409.16 293.23
  Q 409.17 291.98 408.58 291.09
  Q 408.29 290.65 407.79 290.82
  C 401.68 292.88 403.40 298.36 408.03 300.54"
/>
<path stroke="#f3d7bb" vector-effect="non-scaling-stroke" d="
  M 408.03 300.54
  Q 410.78 301.80 409.76 303.74"
/>
<path stroke="#e0c0a8" vector-effect="non-scaling-stroke" d="
  M 409.76 303.74
  Q 407.22 304.58 406.30 306.76
  Q 406.08 307.27 406.21 307.81
  Q 406.85 310.53 406.37 313.09
  Q 406.24 313.76 406.52 314.39
  C 407.10 315.66 408.05 316.36 408.22 317.87
  C 408.48 320.29 408.26 322.51 411.21 323.59"
/>
<path stroke="#f3d7bb" vector-effect="non-scaling-stroke" d="
  M 411.21 323.59
  L 413.44 324.45
  Q 413.89 324.62 414.09 325.06
  L 415.22 327.51
  A 2.01 1.99 77.9 0 0 417.00 328.68
  Q 429.64 328.92 442.95 328.04
  A 0.74 0.73 -86.0 0 1 443.71 328.92
  Q 441.60 339.07 439.63 349.65
  Q 439.33 351.27 440.25 352.24
  Q 454.60 367.43 466.23 384.65"
/>
<path stroke="#e0c0a8" vector-effect="non-scaling-stroke" d="
  M 466.23 384.65
  L 463.89 392.76"
/>
<path stroke="#a79b95" vector-effect="non-scaling-stroke" d="
  M 463.89 392.76
  Q 463.88 394.29 463.48 394.81"
/>
<path stroke="#e0c0a8" vector-effect="non-scaling-stroke" d="
  M 463.48 394.81
  Q 455.06 424.51 450.14 454.76
  Q 449.87 456.44 449.78 459.84"
/>
<path stroke="#939291" vector-effect="non-scaling-stroke" d="
  M 449.78 459.84
  L 447.62 475.38"
/>
<path stroke="#e0c0a8" vector-effect="non-scaling-stroke" d="
  M 447.62 475.38
  L 444.90 500.65
  A 1.09 1.08 -84.2 0 0 445.86 501.84
  L 459.15 503.16"
/>
<path stroke="#939291" vector-effect="non-scaling-stroke" d="
  M 459.15 503.16
  C 462.04 506.33 464.48 509.46 468.16 511.90
  A 1.00 1.00 0.0 0 1 468.48 513.22
  Q 467.12 515.67 467.22 518.96"
/>
<path stroke="#d1b5a1" vector-effect="non-scaling-stroke" d="
  M 467.22 518.96
  Q 465.46 525.93 463.37 533.01
  Q 458.65 549.04 453.65 565.00
  Q 449.10 579.51 441.13 597.25
  Q 436.23 608.14 420.88 639.00
  Q 414.32 652.20 409.89 663.64
  Q 407.52 669.78 407.39 673.93
  C 407.23 679.16 408.26 684.72 405.84 689.85
  Q 397.91 706.70 389.86 723.44"
/>
<path stroke="#e0c0a8" vector-effect="non-scaling-stroke" d="
  M 389.86 723.44
  Q 387.78 727.66 383.15 737.68
  Q 373.13 759.31 357.88 786.91
  Q 353.69 794.50 349.11 801.86
  Q 348.63 802.64 347.92 803.12
  Q 347.10 803.67 346.41 804.05"
/>
<path stroke="#939291" vector-effect="non-scaling-stroke" d="
  M 346.41 804.05
  C 327.26 808.32 305.92 809.04 285.94 807.09
  C 283.40 806.84 281.98 807.86 281.07 810.10
  C 280.25 812.11 281.92 813.84 283.31 815.02
  C 289.03 819.88 295.53 824.25 302.06 828.07
  Q 336.37 848.11 371.93 863.41
  Q 373.12 863.92 373.57 862.71
  Q 380.80 843.57 384.65 824.60"
/>
<path stroke="#e0c0a8" vector-effect="non-scaling-stroke" d="
  M 384.65 824.60
  Q 410.18 831.47 436.17 835.28
  A 1.00 0.99 13.2 0 0 437.26 834.61
  Q 446.86 805.16 455.72 775.13
  Q 458.53 765.57 461.53 755.97
  C 467.91 735.53 472.33 721.44 479.17 705.04
  Q 483.56 694.54 486.59 690.57
  Q 494.82 679.79 497.98 670.72
  Q 505.55 649.01 513.25 627.17"
/>
<path stroke="#d1b5a1" vector-effect="non-scaling-stroke" d="
  M 513.25 627.17
  Q 516.44 618.45 519.28 609.43
  Q 522.17 600.26 523.86 591.24
  Q 524.04 590.26 524.47 591.16
  L 532.01 606.84"
/>
<path stroke="#e0c0a8" vector-effect="non-scaling-stroke" d="
  M 532.01 606.84
  Q 553.29 654.55 574.86 702.37
  Q 578.98 711.52 586.04 718.42
  C 590.67 722.94 592.92 725.20 595.05 730.21
  C 599.18 739.95 601.63 750.14 604.70 760.20"
/>
<path stroke="#d1b5a1" vector-effect="non-scaling-stroke" d="
  M 604.70 760.20
  Q 611.53 785.97 618.01 806.50
  Q 621.70 818.18 628.27 830.83"
/>
<path stroke="#e0c0a8" vector-effect="non-scaling-stroke" d="
  M 628.27 830.83
  L 632.94 839.16
  A 1.69 1.69 0.0 0 0 634.61 840.02
  L 640.99 839.30"
/>
<path stroke="#f3d7bb" vector-effect="non-scaling-stroke" d="
  M 640.99 839.30
  Q 641.07 839.44 641.15 839.58"
/>
<path stroke="#939291" vector-effect="non-scaling-stroke" d="
  M 641.15 839.58
  C 626.58 854.05 606.06 867.61 585.35 871.02
  Q 584.83 871.11 584.48 871.51
  C 582.87 873.37 583.32 876.92 585.71 877.87
  Q 588.09 878.82 590.49 879.09
  Q 605.18 880.72 621.14 880.71
  Q 653.20 880.71 684.38 879.25
  Q 685.74 879.18 687.03 878.93
  A 1.17 1.17 0.0 0 0 687.97 877.60
  Q 686.03 864.73 682.90 853.33
  Q 679.78 841.97 674.50 834.39"
/>
<path stroke="#e0c0a8" vector-effect="non-scaling-stroke" d="
  M 674.50 834.39
  Q 688.00 832.76 698.91 825.67
  Q 700.66 824.53 701.88 823.06
  A 1.36 1.35 -42.9 0 0 701.95 821.42
  Q 689.46 803.58 677.45 784.07
  Q 646.95 734.53 638.29 678.22
  Q 636.21 664.70 634.66 650.53
  C 633.35 638.54 631.05 629.62 619.62 623.76
  C 617.14 622.48 615.05 619.66 614.53 616.98
  C 612.38 606.03 610.03 596.12 605.93 585.56
  C 599.51 569.04 593.31 552.50 586.36 536.20"
/>
<path stroke="#d1b5a1" vector-effect="non-scaling-stroke" d="
  M 586.36 536.20
  Q 583.03 529.51 582.04 522.16"
/>
<path stroke="#939291" vector-effect="non-scaling-stroke" d="
  M 582.04 522.16
  Q 583.50 522.11 584.34 521.41
  C 585.80 520.20 584.59 517.68 583.68 516.53
  Q 581.02 513.13 578.92 509.39
  Q 578.69 508.98 578.23 508.92
  Q 577.11 508.79 576.07 508.95
  Q 544.65 513.76 509.74 516.86
  Q 500.64 517.67 489.02 516.69
  Q 485.60 516.41 485.20 512.97"
/>
<path stroke="#f4dfc8" vector-effect="non-scaling-stroke" d="
  M 485.20 512.97
  C 491.51 516.06 498.26 516.60 505.15 516.01
  Q 514.74 515.18 523.82 514.40
  Q 534.06 513.51 543.83 512.22
  Q 549.80 511.43 557.08 510.56
  Q 563.66 509.77 570.28 508.57
  Q 573.90 507.92 578.43 507.82
  Q 582.48 507.73 586.30 507.07
  Q 613.61 502.39 635.26 496.88
  A 1.20 1.20 0.0 0 0 636.15 495.53
  Q 623.31 413.43 598.90 334.04
  Q 596.91 327.59 595.90 325.23"
/>
<path stroke="#a79b95" vector-effect="non-scaling-stroke" d="
  M 595.90 325.23
  C 599.08 324.90 602.08 324.99 605.02 323.72
  Q 609.98 321.59 615.62 319.98
  Q 617.75 319.37 618.01 317.37
  Q 620.04 301.91 609.40 290.72
  Q 605.55 286.68 601.83 282.74
  Q 595.32 275.84 595.55 264.99
  Q 595.73 256.47 594.55 243.54
  Q 594.43 242.26 594.78 243.50
  C 595.93 247.55 597.01 251.76 597.13 256.05
  Q 597.29 261.82 597.83 268.39
  C 598.21 273.02 599.86 276.67 602.81 280.03
  C 611.06 289.42 621.55 297.82 621.04 311.45
  Q 620.87 315.77 617.98 320.46
  A 1.18 1.17 -52.7 0 0 618.18 321.95
  L 618.43 322.19
  A 0.49 0.49 0.0 0 0 619.16 322.12
  Q 624.60 314.41 622.72 304.95
  C 620.93 295.97 614.25 288.82 607.70 282.33
  C 604.07 278.73 600.75 274.03 600.42 268.85
  Q 599.97 261.85 599.83 254.74
  C 599.66 245.77 595.88 238.78 589.84 231.67
  Q 584.24 225.07 578.52 218.20
  Q 569.45 207.29 566.18 193.87
  Q 563.68 183.60 561.24 173.35"
/>
<path stroke="#d1b5a1" vector-effect="non-scaling-stroke" d="
  M 561.24 173.35
  Q 561.34 173.27 561.43 173.20"
/>
<path stroke="#c7a99b" vector-effect="non-scaling-stroke" d="
  M 561.43 173.20
  Q 563.02 177.22 565.84 185.67
  C 569.93 197.95 576.30 210.81 585.44 219.87
  C 594.48 228.85 603.03 236.98 607.39 249.22
  C 610.53 258.06 612.82 267.45 619.13 274.75
  Q 625.30 281.88 633.16 289.52
  Q 637.47 293.70 639.46 298.56
  C 640.40 300.85 640.16 303.46 640.11 305.93
  Q 640.09 306.93 641.06 306.69
  Q 641.35 306.61 641.58 306.41
  Q 642.46 305.63 642.57 304.44
  C 643.52 294.07 635.31 287.54 628.53 281.07
  Q 620.46 273.37 616.50 264.65
  C 612.99 256.93 611.30 248.20 607.43 240.79
  C 602.49 231.34 594.07 223.74 586.73 215.96
  Q 576.88 205.52 571.51 190.55
  Q 567.76 180.08 564.68 171.02
  C 561.15 160.63 557.01 150.39 550.28 141.97
  Q 545.46 135.93 537.81 134.39
  Q 525.93 131.99 510.45 134.41"
/>
<path stroke="#9a613f" vector-effect="non-scaling-stroke" d="
  M 561.43 173.20
  Q 561.40 172.12 560.98 171.63
  Q 560.74 171.34 560.65 171.71
  Q 560.62 171.83 560.61 171.98"
/>
<path stroke="#704633" vector-effect="non-scaling-stroke" d="
  M 560.61 171.98
  C 556.53 159.33 551.92 149.09 541.33 142.01
  C 532.57 136.14 521.09 134.46 510.45 134.41"
/>
<path stroke="#7a5339" vector-effect="non-scaling-stroke" d="
  M 560.61 171.98
  Q 560.75 172.98 561.24 173.35"
/>
<path stroke="#9d7d5f" vector-effect="non-scaling-stroke" d="
  M 595.90 325.23
  C 589.52 326.44 582.00 326.00 580.21 318.28
  Q 579.69 316.04 578.83 310.57"
/>
<path stroke="#3b2f28" vector-effect="non-scaling-stroke" d="
  M 578.83 310.57
  Q 579.14 309.99 579.03 309.58"
/>
<path stroke="#9d7d5f" vector-effect="non-scaling-stroke" d="
  M 579.03 309.58
  Q 579.17 309.51 579.28 309.40
  Q 579.39 309.26 579.37 309.09
  Q 578.71 303.33 577.53 296.15
  Q 575.35 282.86 573.58 264.52
  Q 572.71 255.51 567.78 249.84
  Q 560.99 242.05 550.90 234.85
  Q 549.55 233.89 548.04 233.88"
/>
<path stroke="#3b2f28" vector-effect="non-scaling-stroke" d="
  M 548.04 233.88
  L 546.94 232.63"
/>
<path stroke="#9d7d5f" vector-effect="non-scaling-stroke" d="
  M 546.94 232.63
  Q 546.90 232.28 546.47 232.05
  Q 536.66 226.92 528.33 219.64"
/>
<path stroke="#885e3f" vector-effect="non-scaling-stroke" d="
  M 528.33 219.64
  Q 523.99 215.65 519.80 211.44
  C 512.76 204.37 508.55 196.48 504.58 187.51
  C 502.31 182.39 499.07 177.76 494.91 174.03
  Q 489.55 169.22 484.85 164.72
  Q 479.46 159.53 476.22 150.54
  Q 476.03 150.02 475.53 149.78
  Q 475.00 149.52 474.93 150.11
  Q 474.81 151.14 474.26 151.93
  A 0.38 0.38 0.0 0 1 473.57 151.76
  Q 473.52 151.33 473.21 151.49"
/>
<path stroke="#89745b" vector-effect="non-scaling-stroke" d="
  M 579.03 309.58
  L 561.97 280.51
  A 0.42 0.42 0.0 0 0 561.20 280.82
  Q 561.80 283.15 562.97 285.27
  Q 569.31 296.81 576.15 308.05
  Q 577.16 309.71 578.83 310.57"
/>
<path stroke="#e9b986" vector-effect="non-scaling-stroke" d="
  M 483.01 484.96
  C 484.81 487.16 484.43 490.27 483.95 493.00
  Q 483.86 493.50 484.37 493.52
  Q 507.52 494.04 526.55 492.37
  C 550.73 490.25 570.71 479.33 580.97 456.44
  Q 588.78 439.04 589.08 418.06
  Q 589.35 399.32 586.78 381.73
  Q 586.43 379.29 585.02 374.99"
/>
<path stroke="#89745b" vector-effect="non-scaling-stroke" d="
  M 585.02 374.99
  Q 586.49 352.39 581.86 330.19
  Q 581.56 328.76 581.29 328.43
  Q 579.98 326.86 580.28 328.87
  Q 581.80 339.28 582.78 347.27
  Q 583.93 356.63 583.61 370.85
  C 583.50 375.60 581.74 379.59 580.01 383.85
  Q 568.43 412.47 553.94 438.53
  C 549.70 446.14 545.02 453.24 540.49 460.53
  Q 540.18 461.03 540.69 461.31
  Q 540.98 461.47 541.29 461.38
  Q 542.17 461.14 542.62 460.45
  Q 562.91 429.38 577.06 395.73"
/>
<path stroke="#e9b986" vector-effect="non-scaling-stroke" d="
  M 577.06 395.73
  Q 575.69 404.08 570.80 413.33
  C 560.63 432.57 553.94 445.38 546.22 457.62
  C 545.24 459.17 544.02 460.36 542.79 461.68
  A 2.12 2.11 27.0 0 1 540.83 462.31
  Q 538.02 461.76 535.38 460.77
  Q 533.38 460.02 535.39 459.30
  Q 541.24 457.22 543.75 451.67
  Q 547.35 443.74 549.43 435.31
  Q 549.46 435.19 549.38 435.28
  L 540.47 446.46
  A 2.10 2.09 29.3 0 1 538.11 447.12
  Q 520.01 440.37 509.34 424.72
  Q 509.29 424.65 509.31 424.57
  Q 509.34 424.45 509.46 424.37
  Q 509.57 424.31 509.66 424.39
  C 514.63 428.95 519.47 433.65 525.57 436.66
  C 533.13 440.39 543.74 436.84 549.82 430.93
  Q 557.47 423.49 563.63 413.68
  C 566.56 409.02 569.51 404.36 571.38 399.11
  Q 572.01 397.35 570.38 398.26
  Q 566.65 400.34 563.12 403.85
  Q 556.98 409.95 551.26 415.63
  C 542.54 424.28 531.29 430.94 520.18 420.97
  Q 514.05 415.46 511.60 410.16
  A 2.42 2.41 57.8 0 1 512.24 407.30
  C 522.32 398.88 533.02 390.98 542.07 381.79
  Q 544.73 379.09 546.40 375.46
  C 547.14 373.85 546.33 372.01 544.97 371.14
  Q 544.56 370.88 544.07 370.91
  Q 540.16 371.10 537.26 372.43
  Q 530.54 375.52 522.53 381.19
  Q 522.29 381.36 522.08 381.15
  Q 522.04 381.12 522.03 381.07
  Q 521.95 380.79 522.15 380.56
  Q 527.35 374.48 532.29 368.64
  C 536.53 363.63 539.50 358.09 536.09 351.61
  Q 533.62 346.93 531.68 345.56
  Q 525.54 341.23 524.94 337.02"
/>
<path stroke="#89745b" vector-effect="non-scaling-stroke" d="
  M 524.94 337.02
  Q 527.22 326.82 528.06 317.59
  Q 529.84 297.94 532.00 277.87"
/>
<path stroke="#e9b986" vector-effect="non-scaling-stroke" d="
  M 532.00 277.87
  Q 535.11 282.56 533.14 291.26
  Q 533.10 291.43 533.27 291.49
  A 0.24 0.23 -70.1 0 0 533.58 291.34
  Q 536.08 282.96 536.11 274.18"
/>
<path stroke="#89745b" vector-effect="non-scaling-stroke" d="
  M 536.11 274.18
  Q 546.13 272.38 556.08 274.88
  Q 556.24 274.92 556.40 274.89
  Q 556.55 274.85 556.62 274.70
  Q 556.84 274.22 556.39 273.94
  C 550.88 270.60 541.81 270.89 536.08 272.35"
/>
<path stroke="#e9b986" vector-effect="non-scaling-stroke" d="
  M 536.08 272.35
  Q 541.43 256.91 538.75 240.39"
/>
<path stroke="#d6a272" vector-effect="non-scaling-stroke" d="
  M 528.33 219.64
  Q 524.09 227.35 517.70 232.90
  Q 514.90 235.33 509.04 238.64
  Q 504.50 241.20 500.01 243.83
  Q 499.24 244.28 498.51 244.72"
/>
<path stroke="#74553b" vector-effect="non-scaling-stroke" d="
  M 498.51 244.72
  Q 497.93 244.81 497.57 245.35
  C 494.75 249.47 494.06 255.24 496.45 259.89
  C 498.10 263.11 498.02 265.75 496.80 269.50
  Q 491.61 285.47 489.41 304.73
  A 0.42 0.42 0.0 0 1 488.85 305.08
  Q 486.98 304.41 484.78 304.53"
/>
<path stroke="#74553b" vector-effect="non-scaling-stroke" d="
  M 474.25 181.12
  Q 479.31 183.98 481.86 179.49
  Q 483.16 177.20 480.65 177.99
  Q 477.78 178.90 474.60 178.98"
/>
<path stroke="#74553b" vector-effect="non-scaling-stroke" d="
  M 474.07 174.04
  Q 478.71 172.30 480.46 172.05
  Q 487.27 171.09 480.55 169.62
  Q 477.93 169.05 473.80 171.30"
/>
<path stroke="#89745b" vector-effect="non-scaling-stroke" d="
  M 546.94 232.63
  Q 535.37 239.34 523.49 251.98
  Q 512.09 264.10 504.09 278.75
  Q 503.65 279.55 503.53 278.65
  C 502.72 272.68 501.22 267.48 499.17 261.75
  Q 496.27 253.65 498.51 244.72"
/>
<path stroke="#89745b" vector-effect="non-scaling-stroke" d="
  M 548.04 233.88
  L 538.75 240.39"
/>
<path stroke="#876c4f" vector-effect="non-scaling-stroke" d="
  M 538.75 240.39
  Q 534.73 243.36 531.42 246.88
  Q 528.93 249.53 527.77 252.08
  Q 522.75 263.10 518.92 272.64
  A 0.43 0.43 0.0 0 1 518.37 272.88
  L 518.00 272.74
  A 0.80 0.79 21.7 0 1 517.54 271.68
  L 525.86 252.19
  Q 526.07 251.70 525.62 251.99
  Q 525.08 252.35 524.64 252.88
  Q 513.61 266.08 504.62 279.88
  C 503.25 281.98 502.90 283.87 502.74 286.26
  Q 502.35 292.38 502.00 298.16
  Q 501.93 299.44 502.52 300.64
  A 0.87 0.86 44.6 0 1 502.53 301.38
  Q 501.81 302.96 501.82 304.78
  Q 501.82 305.52 502.21 304.89
  Q 502.73 304.03 502.75 303.02
  Q 502.83 299.20 503.94 296.32
  Q 504.66 294.45 504.76 296.45
  C 504.87 298.70 504.80 304.43 502.38 305.87
  Q 502.01 306.09 501.93 306.51
  Q 501.17 310.46 501.12 314.19
  Q 500.93 327.79 500.91 342.52
  Q 500.90 353.36 498.97 361.44
  C 496.17 373.17 493.97 384.18 493.92 396.37
  C 493.89 401.74 493.51 407.79 492.10 412.90
  Q 486.00 435.07 485.29 451.85
  Q 484.69 466.00 483.20 477.99
  Q 483.00 479.57 483.01 484.96"
/>
<path stroke="#89745b" vector-effect="non-scaling-stroke" d="
  M 483.01 484.96
  C 482.61 494.87 482.63 503.72 485.20 512.97"
/>
<path stroke="#664a35" vector-effect="non-scaling-stroke" d="
  M 582.04 522.16
  Q 568.46 520.97 553.92 521.75
  A 0.49 0.49 0.0 0 0 553.50 522.43
  L 587.17 598.83"
/>
<path stroke="#74553b" vector-effect="non-scaling-stroke" d="
  M 587.17 598.83
  L 613.14 661.83"
/>
<path stroke="#664a35" vector-effect="non-scaling-stroke" d="
  M 613.14 661.83
  L 615.62 668.38"
/>
<path stroke="#74553b" vector-effect="non-scaling-stroke" d="
  M 615.62 668.38
  Q 648.02 750.00 674.50 834.39"
/>
<path stroke="#876c4f" vector-effect="non-scaling-stroke" d="
  M 641.15 839.58
  L 642.00 839.22"
/>
<path stroke="#74553b" vector-effect="non-scaling-stroke" d="
  M 642.00 839.22
  L 672.27 835.10
  A 0.55 0.54 77.6 0 0 672.72 834.39
  Q 662.87 803.74 652.15 772.31
  Q 647.98 760.10 644.09 749.55
  C 640.07 738.66 634.79 722.96 629.32 709.90"
/>
<path stroke="#664a35" vector-effect="non-scaling-stroke" d="
  M 629.32 709.90
  L 626.14 701.73"
/>
<path stroke="#74553b" vector-effect="non-scaling-stroke" d="
  M 626.14 701.73
  L 614.45 671.29"
/>
<path stroke="#664a35" vector-effect="non-scaling-stroke" d="
  M 614.45 671.29
  L 611.51 663.20"
/>
<path stroke="#74553b" vector-effect="non-scaling-stroke" d="
  M 611.51 663.20
  L 585.11 598.90"
/>
<path stroke="#664a35" vector-effect="non-scaling-stroke" d="
  M 585.11 598.90
  L 551.66 522.74
  A 1.77 1.76 -11.7 0 0 550.04 521.68
  Q 525.78 521.72 500.99 522.87
  C 491.20 523.32 482.26 522.65 472.48 521.80
  Q 468.44 521.45 467.22 518.96"
/>
<path stroke="#74553b" vector-effect="non-scaling-stroke" d="
  M 459.15 503.16
  Q 457.40 500.32 455.72 497.53
  Q 449.67 487.47 447.62 475.38"
/>
<path stroke="#74553b" vector-effect="non-scaling-stroke" d="
  M 449.78 459.84
  C 451.81 453.05 453.76 446.41 456.18 439.66
  Q 463.34 419.63 471.00 398.72
  Q 474.15 390.12 478.06 380.61
  Q 481.76 371.62 483.83 358.41
  C 484.70 352.84 485.73 347.35 486.19 341.77
  Q 487.58 324.95 489.16 307.79
  Q 489.29 306.43 487.92 306.30
  Q 487.74 306.28 486.87 305.69
  A 0.67 0.67 0.0 0 0 486.03 305.74
  L 485.78 305.97
  Q 485.11 306.57 485.96 306.85
  Q 486.73 307.11 487.61 306.93
  Q 489.20 306.61 488.25 307.93
  Q 487.32 309.22 485.93 308.05
  Q 484.55 306.89 484.46 306.21"
/>
<path stroke="#876c4f" vector-effect="non-scaling-stroke" d="
  M 536.08 272.35
  Q 535.57 273.73 536.11 274.18"
/>
<path stroke="#876c4f" vector-effect="non-scaling-stroke" d="
  M 532.00 277.87
  Q 532.29 266.94 532.89 255.61
  C 532.97 254.12 533.81 252.95 534.19 251.56
  Q 534.41 250.76 533.80 251.32
  Q 531.08 253.87 531.00 257.04
  Q 530.46 278.60 527.94 300.29
  Q 527.87 300.90 527.25 300.92
  L 513.74 301.25
  A 1.50 1.50 0.0 0 0 512.28 302.65
  Q 511.74 310.84 511.90 318.62
  Q 511.93 320.01 512.98 321.06
  A 1.47 1.43 21.3 0 1 513.39 321.96
  Q 513.95 329.24 513.68 336.50
  C 513.51 341.02 516.85 341.77 520.47 341.97
  A 0.94 0.94 0.0 0 0 521.44 341.26
  L 521.51 340.99
  A 0.41 0.41 0.0 0 0 521.16 340.48
  C 518.68 340.18 515.01 340.56 515.24 336.74
  Q 515.69 328.90 514.91 322.08
  Q 514.83 321.43 515.40 321.76
  Q 519.62 324.17 524.77 325.49
  Q 525.32 325.63 525.29 326.20
  C 524.92 332.49 522.42 338.05 521.46 344.09
  C 519.26 358.01 516.34 371.33 511.44 384.23
  C 508.26 392.61 505.88 400.74 502.73 408.99
  Q 501.82 411.37 502.70 413.40
  Q 503.38 414.95 503.70 413.29
  Q 504.21 410.72 505.09 408.11
  C 509.31 395.48 514.88 381.55 517.92 369.97
  Q 521.19 357.46 523.15 344.38
  Q 523.43 342.52 523.96 340.68
  Q 524.56 338.55 524.94 337.02"
/>
<path stroke="#876c4f" vector-effect="non-scaling-stroke" d="
  M 577.06 395.73
  L 585.02 374.99"
/>
<path stroke="#885e3f" vector-effect="non-scaling-stroke" d="
  M 463.48 394.81
  Q 463.85 396.91 464.91 397.92
  Q 466.20 399.14 467.59 398.30
  Q 469.51 397.15 468.67 394.70
  Q 468.65 394.64 468.59 394.66
  L 468.31 394.71
  Q 467.87 394.79 467.94 395.23
  Q 468.34 397.51 465.76 397.33
  A 1.09 1.09 0.0 0 1 464.74 396.30
  L 464.58 393.43
  Q 464.57 393.13 464.46 393.41
  Q 464.39 393.61 464.31 393.79
  Q 464.14 394.21 463.94 393.80
  Q 463.78 393.49 463.89 392.76"
/>
<path stroke="#b3784c" vector-effect="non-scaling-stroke" d="
  M 629.32 709.90
  Q 630.16 715.05 631.62 720.08
  Q 633.46 726.40 634.08 730.20
  C 635.34 737.88 636.76 746.03 637.27 753.63
  Q 639.26 783.45 632.87 817.86
  Q 631.37 825.90 628.27 830.83"
/>
<path stroke="#d49a66" vector-effect="non-scaling-stroke" d="
  M 642.00 839.22
  Q 641.76 838.77 640.99 839.30"
/>
<path stroke="#b3784c" vector-effect="non-scaling-stroke" d="
  M 585.11 598.90
  C 581.07 602.67 576.19 603.32 570.52 603.63
  Q 557.97 604.33 545.40 603.36
  Q 539.19 602.88 532.01 606.84"
/>
<path stroke="#b3784c" vector-effect="non-scaling-stroke" d="
  M 513.25 627.17
  Q 502.96 627.96 493.02 626.89
  Q 492.50 626.83 492.27 627.30
  Q 482.29 647.42 465.85 661.76
  Q 458.78 667.93 447.73 676.67
  C 446.73 677.46 445.71 677.03 444.71 676.43"
/>
<path stroke="#664a35" vector-effect="non-scaling-stroke" d="
  M 444.71 676.43
  L 478.97 575.19"
/>
<path stroke="#9a613f" vector-effect="non-scaling-stroke" d="
  M 478.97 575.19
  Q 481.64 574.48 483.43 572.67
  Q 488.79 567.26 495.25 563.24
  Q 501.41 559.42 507.22 555.23"
/>
<path stroke="#664a35" vector-effect="non-scaling-stroke" d="
  M 507.22 555.23
  Q 507.59 556.93 508.12 557.40
  Q 510.49 559.57 509.47 556.52
  Q 508.63 554.04 506.96 550.74
  Q 501.63 540.22 496.16 529.01
  Q 495.84 528.36 495.16 528.10
  L 493.46 527.47
  Q 492.98 527.30 492.84 527.78
  L 490.81 534.85"
/>
<path stroke="#9a613f" vector-effect="non-scaling-stroke" d="
  M 490.81 534.85
  Q 481.68 535.79 473.43 539.54
  C 468.31 541.87 461.57 544.68 459.41 550.34
  A 0.51 0.51 0.0 0 0 459.98 551.02
  Q 463.39 550.32 466.23 549.28
  Q 477.52 545.17 488.79 541.15"
/>
<path stroke="#664a35" vector-effect="non-scaling-stroke" d="
  M 488.79 541.15
  L 481.44 562.23"
/>
<path stroke="#9a613f" vector-effect="non-scaling-stroke" d="
  M 481.44 562.23
  C 473.54 563.98 466.12 569.98 461.13 576.12
  C 459.65 577.94 458.52 580.14 457.48 582.24
  A 0.84 0.84 0.0 0 0 458.34 583.45
  Q 468.03 582.27 476.47 576.37"
/>
<path stroke="#664a35" vector-effect="non-scaling-stroke" d="
  M 476.47 576.37
  L 440.88 681.04"
/>
<path stroke="#b3784c" vector-effect="non-scaling-stroke" d="
  M 440.88 681.04
  Q 435.85 684.45 430.89 687.90
  Q 412.09 700.97 397.44 718.80
  Q 394.95 721.83 390.81 724.88
  Q 390.33 725.23 390.18 724.66
  L 389.86 723.44"
/>
<path stroke="#b3784c" vector-effect="non-scaling-stroke" d="
  M 611.51 663.20
  C 605.65 671.47 596.67 680.66 599.84 691.66
  A 0.73 0.73 0.0 0 0 600.98 692.05
  C 607.01 687.56 611.59 678.23 614.45 671.29"
/>
<path stroke="#b3784c" vector-effect="non-scaling-stroke" d="
  M 626.14 701.73
  L 624.53 703.30
  Q 624.17 703.65 624.13 704.15
  Q 621.90 731.40 607.99 754.24
  Q 605.63 758.13 604.70 760.20"
/>
<path stroke="#b3784c" vector-effect="non-scaling-stroke" d="
  M 615.62 668.38
  Q 622.57 661.07 627.41 652.16
  Q 629.67 647.99 631.10 642.58
  Q 631.24 642.03 630.70 641.88
  Q 629.48 641.54 628.45 642.96
  Q 622.29 651.49 613.14 661.83"
/>
<path stroke="#b3784c" vector-effect="non-scaling-stroke" d="
  M 586.36 536.20
  C 587.56 543.21 588.51 548.97 590.16 557.11
  Q 592.73 569.77 592.73 581.65
  Q 592.72 590.91 587.17 598.83"
/>
<path stroke="#d49a66" vector-effect="non-scaling-stroke" d="
  M 446.49 300.88
  L 442.37 300.62
  A 1.21 1.21 0.0 0 0 441.11 301.63
  C 440.74 303.94 441.41 306.30 442.76 308.18
  Q 444.93 311.22 446.40 314.59
  Q 446.97 315.90 448.27 316.68
  C 453.26 319.67 454.97 315.78 454.46 311.52"
/>
<path stroke="#d49a66" vector-effect="non-scaling-stroke" d="
  M 480.26 326.02
  Q 480.35 326.83 480.18 327.74
  Q 479.00 334.11 477.79 340.47
  Q 476.61 346.67 474.88 353.06
  Q 472.44 361.99 470.06 370.94
  Q 468.17 378.02 466.23 384.65"
/>
<path stroke="#d49a66" vector-effect="non-scaling-stroke" d="
  M 411.21 323.59
  L 412.54 323.65
  Q 414.16 323.72 413.88 322.12
  Q 412.33 313.19 411.07 304.91
  Q 410.86 303.54 409.76 303.74"
/>
<path stroke="#b3784c" vector-effect="non-scaling-stroke" d="
  M 407.02 767.58
  Q 399.77 770.37 392.25 776.75
  Q 386.22 781.87 384.07 786.71
  C 381.42 792.67 379.31 799.64 378.69 806.16
  Q 378.57 807.34 379.65 806.84
  L 392.87 800.70"
/>
<path stroke="#d6a272" vector-effect="non-scaling-stroke" d="
  M 382.95 823.53
  Q 363.81 818.95 347.15 808.21"
/>
<path stroke="#b3784c" vector-effect="non-scaling-stroke" d="
  M 397.66 795.23
  Q 400.60 795.23 401.72 794.22
  Q 407.52 789.01 414.55 783.03
  Q 425.38 773.82 434.53 762.67
  Q 441.62 754.03 445.70 746.58
  Q 450.80 737.25 455.67 724.76
  Q 462.54 707.14 468.88 692.41
  Q 468.89 692.38 468.86 692.37
  L 468.63 692.27
  Q 468.38 692.15 468.25 692.40
  Q 458.96 711.28 446.41 728.48
  C 437.60 740.57 426.38 750.93 414.87 760.91
  C 414.08 761.59 413.51 762.54 413.05 763.46
  A 0.75 0.75 0.0 0 1 412.25 763.86
  Q 411.86 763.79 411.63 763.20"
/>
<path stroke="#5c3d2f" vector-effect="non-scaling-stroke" d="
  M 507.22 555.23
  L 506.09 552.89"
/>
<path stroke="#664a35" vector-effect="non-scaling-stroke" d="
  M 506.09 552.89
  L 495.24 530.81
  Q 494.83 529.96 494.52 530.85
  L 484.66 558.79"
/>
<path stroke="#5c3d2f" vector-effect="non-scaling-stroke" d="
  M 484.66 558.79
  L 478.97 575.19"
/>
<path stroke="#74553b" vector-effect="non-scaling-stroke" d="
  M 444.71 676.43
  Q 439.91 689.79 436.29 703.44
  Q 434.71 709.37 432.49 714.44
  Q 421.85 738.74 411.63 763.20"
/>
<path stroke="#664a35" vector-effect="non-scaling-stroke" d="
  M 411.63 763.20
  L 397.66 795.23"
/>
<path stroke="#74553b" vector-effect="non-scaling-stroke" d="
  M 397.66 795.23
  L 384.65 824.60"
/>
<path stroke="#74553b" vector-effect="non-scaling-stroke" d="
  M 346.41 804.05
  Q 346.40 804.74 345.63 805.89
  A 1.14 1.11 -35.7 0 0 345.47 806.79
  Q 345.88 808.39 347.15 808.21"
/>
<path stroke="#89745b" vector-effect="non-scaling-stroke" d="
  M 347.15 808.21
  Q 349.84 810.96 354.00 813.26
  Q 367.02 820.48 380.67 823.91
  Q 383.49 824.61 382.95 823.53"
/>
<path stroke="#74553b" vector-effect="non-scaling-stroke" d="
  M 382.95 823.53
  L 392.87 800.70"
/>
<path stroke="#664a35" vector-effect="non-scaling-stroke" d="
  M 392.87 800.70
  L 407.02 767.58"
/>
<path stroke="#74553b" vector-effect="non-scaling-stroke" d="
  M 407.02 767.58
  Q 408.34 764.94 410.07 760.90
  Q 420.35 736.96 430.87 713.11
  Q 432.82 708.68 434.14 703.38
  Q 436.97 692.03 440.88 681.04"
/>
<path stroke="#5c3d2f" vector-effect="non-scaling-stroke" d="
  M 476.47 576.37
  L 481.44 562.23"
/>
<path stroke="#5c3d2f" vector-effect="non-scaling-stroke" d="
  M 488.79 541.15
  L 490.81 534.85"
/>
<path stroke="#d49a66" vector-effect="non-scaling-stroke" d="
  M 409.16 293.23
  L 409.40 299.79
  Q 409.42 300.30 408.92 300.38
  L 408.03 300.54"
/>
<path stroke="#9a613f" vector-effect="non-scaling-stroke" d="
  M 506.09 552.89
  C 500.15 552.46 495.21 554.73 489.92 557.62
  Q 487.45 558.96 484.66 558.79"
/>
<path stroke="#939291" vector-effect="non-scaling-stroke" d="
  M 404.38 275.67
  Q 403.90 275.81 403.66 276.29
  A 0.55 0.54 12.5 0 0 404.16 277.07
  Q 427.24 276.58 450.49 277.03
  Q 450.72 277.04 450.89 276.89
  Q 451.02 276.78 451.05 276.62
  Q 451.12 276.19 450.74 275.99
  Q 448.79 274.93 449.22 272.50
  Q 449.45 271.20 448.13 271.14
  L 444.81 270.99
  Q 444.12 270.96 444.02 270.28
  C 443.76 268.52 443.52 264.59 441.13 264.50
  Q 425.07 263.88 411.93 264.93
  A 1.92 1.91 -85.1 0 0 410.23 266.37
  C 409.74 268.31 409.88 271.66 406.80 271.02
  Q 404.97 270.64 404.95 272.51
  L 404.93 274.94
  Q 404.92 275.51 404.38 275.67"
/>
<path stroke="#f4e7dd" vector-effect="non-scaling-stroke" d="
  M 684.71 880.22
  A 1.05 1.03 -77.3 0 1 683.82 880.79
  Q 677.32 881.01 671.24 881.11
  Q 669.06 881.15 666.77 881.50
  Q 664.79 881.80 662.52 881.83
  Q 637.24 882.24 612.68 881.95
  C 605.69 881.87 598.17 881.31 591.41 880.31
  Q 587.78 879.77 583.83 878.32
  C 580.64 877.14 575.57 877.48 571.70 877.44
  Q 495.66 876.66 423.01 876.90
  Q 386.59 877.02 339.00 878.70
  Q 318.71 879.41 303.28 880.99
  Q 300.33 881.29 296.84 882.01
  A 0.51 0.50 64.0 0 0 296.56 882.83
  Q 296.87 883.18 297.35 883.29
  Q 300.70 884.00 303.95 884.29
  Q 318.08 885.59 331.01 886.00
  Q 393.12 887.96 468.00 888.05
  Q 546.58 888.15 588.13 887.51
  Q 642.24 886.69 691.98 884.93
  Q 713.96 884.15 737.89 882.11
  A 0.45 0.44 86.1 0 0 738.30 881.63
  L 738.27 881.35
  Q 738.26 881.20 738.10 881.19
  Q 714.84 879.69 689.76 879.14
  C 688.19 879.11 687.16 879.75 685.61 879.62
  Q 685.26 879.59 685.00 879.83
  Q 684.83 880.00 684.71 880.22"
/>
<path stroke="#a79b95" vector-effect="non-scaling-stroke" d="
  M 475.25 144.80
  C 475.24 142.85 475.19 140.07 474.19 138.48
  Q 473.71 137.72 472.85 137.96
  Q 471.99 138.20 472.60 140.66
  Q 472.84 141.62 473.33 142.48
  L 474.72 144.94
  Q 475.25 145.87 475.25 144.80"
/>
<path stroke="#74553b" vector-effect="non-scaling-stroke" d="
  M 492.26 266.96
  A 2.84 2.84 0.0 0 0 489.42 264.12
  A 2.84 2.84 0.0 0 0 486.58 266.96
  A 2.84 2.84 0.0 0 0 489.42 269.80
  A 2.84 2.84 0.0 0 0 492.26 266.96"
/>
<path stroke="#e9b986" vector-effect="non-scaling-stroke" d="
  M 568.31 270.66
  Q 568.38 270.80 568.53 270.81
  A 0.27 0.27 0.0 0 0 568.81 270.48
  Q 566.75 261.78 561.25 255.20
  Q 561.19 255.13 561.09 255.11
  Q 560.92 255.08 560.81 255.18
  Q 560.54 255.42 560.67 255.77
  Q 561.47 258.01 562.45 259.74
  Q 565.57 265.23 568.31 270.66"
/>
<path stroke="#89745b" vector-effect="non-scaling-stroke" d="
  M 492.9028 507.2173
  A 4.00 3.43 73.1 0 0 495.0219 502.3929
  A 4.00 3.43 73.1 0 0 490.5772 499.5627
  A 4.00 3.43 73.1 0 0 488.4581 504.3871
  A 4.00 3.43 73.1 0 0 492.9028 507.2173"
/>
<path stroke="#876c4f" vector-effect="non-scaling-stroke" d="
  M 509.3989 347.8828
  A 3.15 2.93 -11.3 0 0 505.7359 345.6268
  A 3.15 2.93 -11.3 0 0 503.2211 349.1172
  A 3.15 2.93 -11.3 0 0 506.8841 351.3732
  A 3.15 2.93 -11.3 0 0 509.3989 347.8828"
/>
<path stroke="#876c4f" vector-effect="non-scaling-stroke" d="
  M 500.54 397.10
  Q 499.65 398.60 497.87 397.86
  A 1.62 1.60 -84.3 0 1 496.90 396.66
  Q 496.72 395.65 497.25 394.96
  Q 497.81 394.24 496.95 394.53
  Q 496.31 394.75 496.02 395.50
  Q 495.30 397.29 496.76 398.01
  Q 499.52 399.37 501.54 397.70
  A 1.58 1.58 0.0 0 0 501.39 395.16
  Q 500.37 394.50 499.22 394.31
  Q 498.21 394.14 499.09 394.68
  L 500.10 395.30
  A 1.32 1.32 0.0 0 1 500.54 397.10"
/>
<path stroke="#876c4f" vector-effect="non-scaling-stroke" d="
  M 532.73 465.18
  C 527.09 464.77 523.19 458.41 520.70 454.01
  C 514.68 443.39 509.62 432.98 501.53 422.55
  A 0.47 0.47 0.0 0 0 500.81 422.52
  L 500.60 422.75
  A 0.78 0.76 48.7 0 0 500.55 423.71
  Q 502.64 426.64 504.87 429.74
  Q 507.08 432.81 508.72 435.80
  Q 513.60 444.73 518.41 453.32
  C 521.14 458.18 525.12 465.29 530.91 466.53
  Q 531.61 466.68 532.29 466.46
  Q 533.00 466.23 533.05 465.55
  Q 533.08 465.20 532.73 465.18"
/>
<path stroke="#876c4f" vector-effect="non-scaling-stroke" d="
  M 494.8400 456.3571
  A 3.27 2.94 0.3 0 0 491.5854 453.4000
  A 3.27 2.94 0.3 0 0 488.3000 456.3229
  A 3.27 2.94 0.3 0 0 491.5546 459.2800
  A 3.27 2.94 0.3 0 0 494.8400 456.3571"
/>
<path stroke="#876c4f" vector-effect="non-scaling-stroke" d="
  M 513.26 318.78
  A 0.33 0.33 0.0 0 0 513.45 319.09
  L 525.23 324.30
  A 0.33 0.33 0.0 0 0 525.69 324.03
  L 527.68 302.93
  A 0.33 0.33 0.0 0 0 527.34 302.57
  L 514.04 302.81
  A 0.33 0.33 0.0 0 0 513.72 303.13
  L 513.26 318.78"
/>
<path stroke="#876c4f" vector-effect="non-scaling-stroke" d="
  M 491.1988 266.4393
  A 1.53 1.53 0.0 0 0 489.6318 264.9472
  L 489.3519 264.9540
  A 1.53 1.53 0.0 0 0 487.8597 266.5209
  L 487.8812 267.4007
  A 1.53 1.53 0.0 0 0 489.4482 268.8928
  L 489.7281 268.8860
  A 1.53 1.53 0.0 0 0 491.2203 267.3191
  L 491.1988 266.4393"
/>
<path stroke="#876c4f" vector-effect="non-scaling-stroke" d="
  M 448.82 338.09
  Q 448.33 338.78 447.57 339.26
  A 0.62 0.61 54.1 0 0 447.43 340.17
  Q 447.89 340.73 448.91 340.39
  A 1.54 1.53 10.3 0 0 449.61 339.91
  Q 451.25 337.98 452.54 335.55
  Q 458.65 324.05 457.69 313.40
  A 0.40 0.38 -6.2 0 0 457.24 313.05
  L 456.90 313.10
  Q 456.06 313.23 456.09 314.09
  Q 456.61 327.01 448.82 338.09"
/>
<path stroke="#876c4f" vector-effect="non-scaling-stroke" d="
  M 446.80 321.59
  A 1.00 1.00 0.0 0 0 448.18 322.75
  L 450.25 321.82
  A 1.00 1.00 0.0 0 0 450.78 321.26
  L 451.18 320.18
  A 1.00 1.00 0.0 0 0 450.23 318.83
  L 448.27 318.84
  A 1.00 1.00 0.0 0 0 447.31 319.60
  L 446.80 321.59"
/>
<path stroke="#885e3f" vector-effect="non-scaling-stroke" d="
  M 481.6754 354.0497
  A 1.98 1.68 91.0 0 0 483.3897 352.0993
  A 1.98 1.68 91.0 0 0 481.7446 350.0903
  A 1.98 1.68 91.0 0 0 480.0303 352.0407
  A 1.98 1.68 91.0 0 0 481.6754 354.0497"
/>
<path stroke="#885e3f" vector-effect="non-scaling-stroke" d="
  M 466.34 396.01
  A 0.15 0.15 0.0 0 0 466.59 396.06
  Q 467.29 395.26 467.05 394.36
  A 0.33 0.33 0.0 0 0 466.46 394.24
  Q 465.93 394.94 466.34 396.01"
/>
<path stroke="#876c4f" vector-effect="non-scaling-stroke" d="
  M 507.36 346.46
  A 1.39 1.39 0.0 0 0 504.91 346.76
  L 504.42 348.11
  A 1.39 1.39 0.0 0 0 504.96 349.75
  L 505.69 350.23
  A 1.39 1.39 0.0 0 0 507.46 350.01
  L 508.05 349.38
  A 1.39 1.39 0.0 0 0 508.18 347.64
  L 507.36 346.46"
/>
<path stroke="#885e3f" vector-effect="non-scaling-stroke" d="
  M 481.5210 353.1540
  A 1.13 0.93 106.4 0 0 482.7322 352.3326
  A 1.13 0.93 106.4 0 0 482.1590 350.9860
  A 1.13 0.93 106.4 0 0 480.9478 351.8074
  A 1.13 0.93 106.4 0 0 481.5210 353.1540"
/>
<path stroke="#876c4f" vector-effect="non-scaling-stroke" d="
  M 493.8053 456.7952
  A 2.27 2.15 12.6 0 0 492.0590 454.2018
  A 2.27 2.15 12.6 0 0 489.3747 455.8048
  A 2.27 2.15 12.6 0 0 491.1210 458.3982
  A 2.27 2.15 12.6 0 0 493.8053 456.7952"
/>
<path stroke="#74553b" vector-effect="non-scaling-stroke" d="
  M 448.64 496.70
  L 450.07 496.28
  A 0.26 0.26 0.0 0 0 450.25 495.95
  L 450.16 495.64
  A 2.89 0.85 73.5 0 0 448.52 493.11
  L 448.21 493.20
  A 2.89 0.85 73.5 0 0 448.22 496.21
  L 448.31 496.53
  A 0.26 0.26 0.0 0 0 448.64 496.70"
/>
<path stroke="#89745b" vector-effect="non-scaling-stroke" d="
  M 492.3131 506.2019
  A 3.01 2.48 76.1 0 0 493.9974 502.6842
  A 3.01 2.48 76.1 0 0 490.8669 500.3581
  A 3.01 2.48 76.1 0 0 489.1826 503.8758
  A 3.01 2.48 76.1 0 0 492.3131 506.2019"
/>
<path stroke="#d6a272" vector-effect="non-scaling-stroke" d="
  M 492.02 502.57
  Q 491.37 502.34 491.53 503.09
  Q 491.66 503.72 492.12 503.26
  Q 492.60 502.78 492.02 502.57"
/>
<path stroke="#9a613f" vector-effect="non-scaling-stroke" d="
  M 492.23 626.04
  A 0.91 0.90 -72.9 0 0 493.18 625.53
  C 497.46 616.39 501.86 607.26 505.68 597.85
  Q 510.42 586.19 515.01 575.38
  A 6.03 6.02 43.5 0 0 514.87 570.36
  Q 513.47 567.54 512.19 564.94
  Q 510.76 562.06 508.98 564.73
  Q 505.02 570.69 501.03 576.86
  C 491.46 591.66 479.73 604.95 466.58 616.80
  A 0.74 0.73 -55.4 0 0 466.80 618.03
  Q 476.42 621.81 486.01 624.70
  Q 488.97 625.60 492.23 626.04"
/>
</g>
<path fill="#fefdfd" d="
  M 1024.00 0.00
  L 1024.00 1024.00
  L 0.00 1024.00
  L 0.00 0.00
  L 1024.00 0.00
  Z
  M 510.45 134.41
  Q 495.72 136.11 481.71 140.94
  C 480.32 141.42 478.88 142.19 477.66 143.01
  Q 476.72 143.64 476.64 142.51
  C 476.51 140.61 475.80 136.25 473.36 136.35
  C 469.96 136.49 470.29 140.40 471.49 142.48
  Q 472.86 144.85 474.41 147.05
  Q 474.70 147.46 474.52 147.93
  L 473.21 151.49
  Q 472.65 161.34 473.80 171.30
  Q 472.85 172.43 474.07 174.04
  Q 475.75 177.00 474.60 178.98
  Q 473.50 178.91 473.19 179.50
  Q 472.94 179.98 473.36 180.48
  Q 473.69 180.86 474.25 181.12
  Q 473.36 186.86 470.98 192.09
  C 470.04 194.13 469.78 195.54 472.15 196.51
  Q 473.27 196.98 474.34 197.29
  Q 474.91 197.46 474.87 198.05
  L 474.63 202.00
  Q 474.59 202.63 475.05 203.06
  L 476.25 204.19
  Q 476.76 204.67 476.75 205.37
  Q 476.73 206.72 476.30 208.05
  A 1.85 1.85 0.0 0 0 476.82 209.98
  L 478.35 211.36
  Q 478.81 211.77 478.83 212.38
  C 479.06 218.11 479.98 222.72 487.30 220.55
  C 492.37 219.04 498.31 217.09 503.61 218.02
  A 1.85 1.83 -12.1 0 1 504.83 218.80
  Q 506.58 221.35 506.88 224.60
  Q 506.95 225.28 506.46 225.77
  C 498.20 234.01 488.59 239.87 477.96 244.99
  A 1.69 1.69 0.0 0 0 477.02 246.76
  C 478.10 254.33 481.98 262.56 486.02 268.67
  C 487.53 270.95 487.63 272.82 487.49 275.49
  Q 486.78 288.97 484.65 302.74
  Q 484.54 303.48 484.78 304.53
  L 484.46 306.21
  L 480.26 326.02
  L 458.76 312.61
  Q 458.33 312.34 457.84 312.48
  Q 455.79 313.04 454.46 311.52
  Q 452.62 304.33 446.49 300.88
  Q 445.49 298.60 446.18 294.47
  A 0.51 0.51 0.0 0 0 445.61 293.88
  Q 443.48 294.18 441.24 294.15
  Q 426.19 293.97 411.25 294.38
  Q 409.81 294.42 409.16 293.23
  Q 409.17 291.98 408.58 291.09
  Q 408.29 290.65 407.79 290.82
  C 401.68 292.88 403.40 298.36 408.03 300.54
  Q 410.78 301.80 409.76 303.74
  Q 407.22 304.58 406.30 306.76
  Q 406.08 307.27 406.21 307.81
  Q 406.85 310.53 406.37 313.09
  Q 406.24 313.76 406.52 314.39
  C 407.10 315.66 408.05 316.36 408.22 317.87
  C 408.48 320.29 408.26 322.51 411.21 323.59
  L 413.44 324.45
  Q 413.89 324.62 414.09 325.06
  L 415.22 327.51
  A 2.01 1.99 77.9 0 0 417.00 328.68
  Q 429.64 328.92 442.95 328.04
  A 0.74 0.73 -86.0 0 1 443.71 328.92
  Q 441.60 339.07 439.63 349.65
  Q 439.33 351.27 440.25 352.24
  Q 454.60 367.43 466.23 384.65
  L 463.89 392.76
  Q 463.88 394.29 463.48 394.81
  Q 455.06 424.51 450.14 454.76
  Q 449.87 456.44 449.78 459.84
  L 447.62 475.38
  L 444.90 500.65
  A 1.09 1.08 -84.2 0 0 445.86 501.84
  L 459.15 503.16
  C 462.04 506.33 464.48 509.46 468.16 511.90
  A 1.00 1.00 0.0 0 1 468.48 513.22
  Q 467.12 515.67 467.22 518.96
  Q 465.46 525.93 463.37 533.01
  Q 458.65 549.04 453.65 565.00
  Q 449.10 579.51 441.13 597.25
  Q 436.23 608.14 420.88 639.00
  Q 414.32 652.20 409.89 663.64
  Q 407.52 669.78 407.39 673.93
  C 407.23 679.16 408.26 684.72 405.84 689.85
  Q 397.91 706.70 389.86 723.44
  Q 387.78 727.66 383.15 737.68
  Q 373.13 759.31 357.88 786.91
  Q 353.69 794.50 349.11 801.86
  Q 348.63 802.64 347.92 803.12
  Q 347.10 803.67 346.41 804.05
  C 327.26 808.32 305.92 809.04 285.94 807.09
  C 283.40 806.84 281.98 807.86 281.07 810.10
  C 280.25 812.11 281.92 813.84 283.31 815.02
  C 289.03 819.88 295.53 824.25 302.06 828.07
  Q 336.37 848.11 371.93 863.41
  Q 373.12 863.92 373.57 862.71
  Q 380.80 843.57 384.65 824.60
  Q 410.18 831.47 436.17 835.28
  A 1.00 0.99 13.2 0 0 437.26 834.61
  Q 446.86 805.16 455.72 775.13
  Q 458.53 765.57 461.53 755.97
  C 467.91 735.53 472.33 721.44 479.17 705.04
  Q 483.56 694.54 486.59 690.57
  Q 494.82 679.79 497.98 670.72
  Q 505.55 649.01 513.25 627.17
  Q 516.44 618.45 519.28 609.43
  Q 522.17 600.26 523.86 591.24
  Q 524.04 590.26 524.47 591.16
  L 532.01 606.84
  Q 553.29 654.55 574.86 702.37
  Q 578.98 711.52 586.04 718.42
  C 590.67 722.94 592.92 725.20 595.05 730.21
  C 599.18 739.95 601.63 750.14 604.70 760.20
  Q 611.53 785.97 618.01 806.50
  Q 621.70 818.18 628.27 830.83
  L 632.94 839.16
  A 1.69 1.69 0.0 0 0 634.61 840.02
  L 640.99 839.30
  Q 641.07 839.44 641.15 839.58
  C 626.58 854.05 606.06 867.61 585.35 871.02
  Q 584.83 871.11 584.48 871.51
  C 582.87 873.37 583.32 876.92 585.71 877.87
  Q 588.09 878.82 590.49 879.09
  Q 605.18 880.72 621.14 880.71
  Q 653.20 880.71 684.38 879.25
  Q 685.74 879.18 687.03 878.93
  A 1.17 1.17 0.0 0 0 687.97 877.60
  Q 686.03 864.73 682.90 853.33
  Q 679.78 841.97 674.50 834.39
  Q 688.00 832.76 698.91 825.67
  Q 700.66 824.53 701.88 823.06
  A 1.36 1.35 -42.9 0 0 701.95 821.42
  Q 689.46 803.58 677.45 784.07
  Q 646.95 734.53 638.29 678.22
  Q 636.21 664.70 634.66 650.53
  C 633.35 638.54 631.05 629.62 619.62 623.76
  C 617.14 622.48 615.05 619.66 614.53 616.98
  C 612.38 606.03 610.03 596.12 605.93 585.56
  C 599.51 569.04 593.31 552.50 586.36 536.20
  Q 583.03 529.51 582.04 522.16
  Q 583.50 522.11 584.34 521.41
  C 585.80 520.20 584.59 517.68 583.68 516.53
  Q 581.02 513.13 578.92 509.39
  Q 578.69 508.98 578.23 508.92
  Q 577.11 508.79 576.07 508.95
  Q 544.65 513.76 509.74 516.86
  Q 500.64 517.67 489.02 516.69
  Q 485.60 516.41 485.20 512.97
  C 491.51 516.06 498.26 516.60 505.15 516.01
  Q 514.74 515.18 523.82 514.40
  Q 534.06 513.51 543.83 512.22
  Q 549.80 511.43 557.08 510.56
  Q 563.66 509.77 570.28 508.57
  Q 573.90 507.92 578.43 507.82
  Q 582.48 507.73 586.30 507.07
  Q 613.61 502.39 635.26 496.88
  A 1.20 1.20 0.0 0 0 636.15 495.53
  Q 623.31 413.43 598.90 334.04
  Q 596.91 327.59 595.90 325.23
  C 599.08 324.90 602.08 324.99 605.02 323.72
  Q 609.98 321.59 615.62 319.98
  Q 617.75 319.37 618.01 317.37
  Q 620.04 301.91 609.40 290.72
  Q 605.55 286.68 601.83 282.74
  Q 595.32 275.84 595.55 264.99
  Q 595.73 256.47 594.55 243.54
  Q 594.43 242.26 594.78 243.50
  C 595.93 247.55 597.01 251.76 597.13 256.05
  Q 597.29 261.82 597.83 268.39
  C 598.21 273.02 599.86 276.67 602.81 280.03
  C 611.06 289.42 621.55 297.82 621.04 311.45
  Q 620.87 315.77 617.98 320.46
  A 1.18 1.17 -52.7 0 0 618.18 321.95
  L 618.43 322.19
  A 0.49 0.49 0.0 0 0 619.16 322.12
  Q 624.60 314.41 622.72 304.95
  C 620.93 295.97 614.25 288.82 607.70 282.33
  C 604.07 278.73 600.75 274.03 600.42 268.85
  Q 599.97 261.85 599.83 254.74
  C 599.66 245.77 595.88 238.78 589.84 231.67
  Q 584.24 225.07 578.52 218.20
  Q 569.45 207.29 566.18 193.87
  Q 563.68 183.60 561.24 173.35
  Q 561.34 173.27 561.43 173.20
  Q 563.02 177.22 565.84 185.67
  C 569.93 197.95 576.30 210.81 585.44 219.87
  C 594.48 228.85 603.03 236.98 607.39 249.22
  C 610.53 258.06 612.82 267.45 619.13 274.75
  Q 625.30 281.88 633.16 289.52
  Q 637.47 293.70 639.46 298.56
  C 640.40 300.85 640.16 303.46 640.11 305.93
  Q 640.09 306.93 641.06 306.69
  Q 641.35 306.61 641.58 306.41
  Q 642.46 305.63 642.57 304.44
  C 643.52 294.07 635.31 287.54 628.53 281.07
  Q 620.46 273.37 616.50 264.65
  C 612.99 256.93 611.30 248.20 607.43 240.79
  C 602.49 231.34 594.07 223.74 586.73 215.96
  Q 576.88 205.52 571.51 190.55
  Q 567.76 180.08 564.68 171.02
  C 561.15 160.63 557.01 150.39 550.28 141.97
  Q 545.46 135.93 537.81 134.39
  Q 525.93 131.99 510.45 134.41
  Z
  M 404.38 275.67
  Q 403.90 275.81 403.66 276.29
  A 0.55 0.54 12.5 0 0 404.16 277.07
  Q 427.24 276.58 450.49 277.03
  Q 450.72 277.04 450.89 276.89
  Q 451.02 276.78 451.05 276.62
  Q 451.12 276.19 450.74 275.99
  Q 448.79 274.93 449.22 272.50
  Q 449.45 271.20 448.13 271.14
  L 444.81 270.99
  Q 444.12 270.96 444.02 270.28
  C 443.76 268.52 443.52 264.59 441.13 264.50
  Q 425.07 263.88 411.93 264.93
  A 1.92 1.91 -85.1 0 0 410.23 266.37
  C 409.74 268.31 409.88 271.66 406.80 271.02
  Q 404.97 270.64 404.95 272.51
  L 404.93 274.94
  Q 404.92 275.51 404.38 275.67
  Z
  M 684.71 880.22
  A 1.05 1.03 -77.3 0 1 683.82 880.79
  Q 677.32 881.01 671.24 881.11
  Q 669.06 881.15 666.77 881.50
  Q 664.79 881.80 662.52 881.83
  Q 637.24 882.24 612.68 881.95
  C 605.69 881.87 598.17 881.31 591.41 880.31
  Q 587.78 879.77 583.83 878.32
  C 580.64 877.14 575.57 877.48 571.70 877.44
  Q 495.66 876.66 423.01 876.90
  Q 386.59 877.02 339.00 878.70
  Q 318.71 879.41 303.28 880.99
  Q 300.33 881.29 296.84 882.01
  A 0.51 0.50 64.0 0 0 296.56 882.83
  Q 296.87 883.18 297.35 883.29
  Q 300.70 884.00 303.95 884.29
  Q 318.08 885.59 331.01 886.00
  Q 393.12 887.96 468.00 888.05
  Q 546.58 888.15 588.13 887.51
  Q 642.24 886.69 691.98 884.93
  Q 713.96 884.15 737.89 882.11
  A 0.45 0.44 86.1 0 0 738.30 881.63
  L 738.27 881.35
  Q 738.26 881.20 738.10 881.19
  Q 714.84 879.69 689.76 879.14
  C 688.19 879.11 687.16 879.75 685.61 879.62
  Q 685.26 879.59 685.00 879.83
  Q 684.83 880.00 684.71 880.22
  Z"
/>
<path fill="#905439" d="
  M 561.43 173.20
  Q 561.40 172.12 560.98 171.63
  Q 560.74 171.34 560.65 171.71
  Q 560.62 171.83 560.61 171.98
  C 556.53 159.33 551.92 149.09 541.33 142.01
  C 532.57 136.14 521.09 134.46 510.45 134.41
  Q 525.93 131.99 537.81 134.39
  Q 545.46 135.93 550.28 141.97
  C 557.01 150.39 561.15 160.63 564.68 171.02
  Q 567.76 180.08 571.51 190.55
  Q 576.88 205.52 586.73 215.96
  C 594.07 223.74 602.49 231.34 607.43 240.79
  C 611.30 248.20 612.99 256.93 616.50 264.65
  Q 620.46 273.37 628.53 281.07
  C 635.31 287.54 643.52 294.07 642.57 304.44
  Q 642.46 305.63 641.58 306.41
  Q 641.35 306.61 641.06 306.69
  Q 640.09 306.93 640.11 305.93
  C 640.16 303.46 640.40 300.85 639.46 298.56
  Q 637.47 293.70 633.16 289.52
  Q 625.30 281.88 619.13 274.75
  C 612.82 267.45 610.53 258.06 607.39 249.22
  C 603.03 236.98 594.48 228.85 585.44 219.87
  C 576.30 210.81 569.93 197.95 565.84 185.67
  Q 563.02 177.22 561.43 173.20
  Z"
/>
<path fill="#4f382c" d="
  M 510.45 134.41
  C 521.09 134.46 532.57 136.14 541.33 142.01
  C 551.92 149.09 556.53 159.33 560.61 171.98
  Q 560.75 172.98 561.24 173.35
  Q 563.68 183.60 566.18 193.87
  Q 569.45 207.29 578.52 218.20
  Q 584.24 225.07 589.84 231.67
  C 595.88 238.78 599.66 245.77 599.83 254.74
  Q 599.97 261.85 600.42 268.85
  C 600.75 274.03 604.07 278.73 607.70 282.33
  C 614.25 288.82 620.93 295.97 622.72 304.95
  Q 624.60 314.41 619.16 322.12
  A 0.49 0.49 0.0 0 1 618.43 322.19
  L 618.18 321.95
  A 1.18 1.17 -52.7 0 1 617.98 320.46
  Q 620.87 315.77 621.04 311.45
  C 621.55 297.82 611.06 289.42 602.81 280.03
  C 599.86 276.67 598.21 273.02 597.83 268.39
  Q 597.29 261.82 597.13 256.05
  C 597.01 251.76 595.93 247.55 594.78 243.50
  Q 594.43 242.26 594.55 243.54
  Q 595.73 256.47 595.55 264.99
  Q 595.32 275.84 601.83 282.74
  Q 605.55 286.68 609.40 290.72
  Q 620.04 301.91 618.01 317.37
  Q 617.75 319.37 615.62 319.98
  Q 609.98 321.59 605.02 323.72
  C 602.08 324.99 599.08 324.90 595.90 325.23
  C 589.52 326.44 582.00 326.00 580.21 318.28
  Q 579.69 316.04 578.83 310.57
  Q 579.14 309.99 579.03 309.58
  Q 579.17 309.51 579.28 309.40
  Q 579.39 309.26 579.37 309.09
  Q 578.71 303.33 577.53 296.15
  Q 575.35 282.86 573.58 264.52
  Q 572.71 255.51 567.78 249.84
  Q 560.99 242.05 550.90 234.85
  Q 549.55 233.89 548.04 233.88
  L 546.94 232.63
  Q 546.90 232.28 546.47 232.05
  Q 536.66 226.92 528.33 219.64
  Q 523.99 215.65 519.80 211.44
  C 512.76 204.37 508.55 196.48 504.58 187.51
  C 502.31 182.39 499.07 177.76 494.91 174.03
  Q 489.55 169.22 484.85 164.72
  Q 479.46 159.53 476.22 150.54
  Q 476.03 150.02 475.53 149.78
  Q 475.00 149.52 474.93 150.11
  Q 474.81 151.14 474.26 151.93
  A 0.38 0.38 0.0 0 1 473.57 151.76
  Q 473.52 151.33 473.21 151.49
  L 474.52 147.93
  Q 474.70 147.46 474.41 147.05
  Q 472.86 144.85 471.49 142.48
  C 470.29 140.40 469.96 136.49 473.36 136.35
  C 475.80 136.25 476.51 140.61 476.64 142.51
  Q 476.72 143.64 477.66 143.01
  C 478.88 142.19 480.32 141.42 481.71 140.94
  Q 495.72 136.11 510.45 134.41
  Z
  M 475.25 144.80
  C 475.24 142.85 475.19 140.07 474.19 138.48
  Q 473.71 137.72 472.85 137.96
  Q 471.99 138.20 472.60 140.66
  Q 472.84 141.62 473.33 142.48
  L 474.72 144.94
  Q 475.25 145.87 475.25 144.80
  Z"
/>
<path fill="#fefdfd" d="
  M 474.19 138.48
  C 475.19 140.07 475.24 142.85 475.25 144.80
  Q 475.25 145.87 474.72 144.94
  L 473.33 142.48
  Q 472.84 141.62 472.60 140.66
  Q 471.99 138.20 472.85 137.96
  Q 473.71 137.72 474.19 138.48
  Z"
/>
<path fill="#c18352" d="
  M 528.33 219.64
  Q 524.09 227.35 517.70 232.90
  Q 514.90 235.33 509.04 238.64
  Q 504.50 241.20 500.01 243.83
  Q 499.24 244.28 498.51 244.72
  Q 497.93 244.81 497.57 245.35
  C 494.75 249.47 494.06 255.24 496.45 259.89
  C 498.10 263.11 498.02 265.75 496.80 269.50
  Q 491.61 285.47 489.41 304.73
  A 0.42 0.42 0.0 0 1 488.85 305.08
  Q 486.98 304.41 484.78 304.53
  Q 484.54 303.48 484.65 302.74
  Q 486.78 288.97 487.49 275.49
  C 487.63 272.82 487.53 270.95 486.02 268.67
  C 481.98 262.56 478.10 254.33 477.02 246.76
  A 1.69 1.69 0.0 0 1 477.96 244.99
  C 488.59 239.87 498.20 234.01 506.46 225.77
  Q 506.95 225.28 506.88 224.60
  Q 506.58 221.35 504.83 218.80
  A 1.85 1.83 -12.1 0 0 503.61 218.02
  C 498.31 217.09 492.37 219.04 487.30 220.55
  C 479.98 222.72 479.06 218.11 478.83 212.38
  Q 478.81 211.77 478.35 211.36
  L 476.82 209.98
  A 1.85 1.85 0.0 0 1 476.30 208.05
  Q 476.73 206.72 476.75 205.37
  Q 476.76 204.67 476.25 204.19
  L 475.05 203.06
  Q 474.59 202.63 474.63 202.00
  L 474.87 198.05
  Q 474.91 197.46 474.34 197.29
  Q 473.27 196.98 472.15 196.51
  C 469.78 195.54 470.04 194.13 470.98 192.09
  Q 473.36 186.86 474.25 181.12
  Q 479.31 183.98 481.86 179.49
  Q 483.16 177.20 480.65 177.99
  Q 477.78 178.90 474.60 178.98
  Q 475.75 177.00 474.07 174.04
  Q 478.71 172.30 480.46 172.05
  Q 487.27 171.09 480.55 169.62
  Q 477.93 169.05 473.80 171.30
  Q 472.65 161.34 473.21 151.49
  Q 473.52 151.33 473.57 151.76
  A 0.38 0.38 0.0 0 0 474.26 151.93
  Q 474.81 151.14 474.93 150.11
  Q 475.00 149.52 475.53 149.78
  Q 476.03 150.02 476.22 150.54
  Q 479.46 159.53 484.85 164.72
  Q 489.55 169.22 494.91 174.03
  C 499.07 177.76 502.31 182.39 504.58 187.51
  C 508.55 196.48 512.76 204.37 519.80 211.44
  Q 523.99 215.65 528.33 219.64
  Z
  M 492.26 266.96
  A 2.84 2.84 0.0 0 0 489.42 264.12
  A 2.84 2.84 0.0 0 0 486.58 266.96
  A 2.84 2.84 0.0 0 0 489.42 269.80
  A 2.84 2.84 0.0 0 0 492.26 266.96
  Z"
/>
<path fill="#272624" d="
  M 474.07 174.04
  Q 472.85 172.43 473.80 171.30
  Q 477.93 169.05 480.55 169.62
  Q 487.27 171.09 480.46 172.05
  Q 478.71 172.30 474.07 174.04
  Z"
/>
<path fill="#a46d45" d="
  M 561.43 173.20
  Q 561.34 173.27 561.24 173.35
  Q 560.75 172.98 560.61 171.98
  Q 560.62 171.83 560.65 171.71
  Q 560.74 171.34 560.98 171.63
  Q 561.40 172.12 561.43 173.20
  Z"
/>
<path fill="#272624" d="
  M 474.25 181.12
  Q 473.69 180.86 473.36 180.48
  Q 472.94 179.98 473.19 179.50
  Q 473.50 178.91 474.60 178.98
  Q 477.78 178.90 480.65 177.99
  Q 483.16 177.20 481.86 179.49
  Q 479.31 183.98 474.25 181.12
  Z"
/>
<path fill="#eac192" d="
  M 546.94 232.63
  Q 535.37 239.34 523.49 251.98
  Q 512.09 264.10 504.09 278.75
  Q 503.65 279.55 503.53 278.65
  C 502.72 272.68 501.22 267.48 499.17 261.75
  Q 496.27 253.65 498.51 244.72
  Q 499.24 244.28 500.01 243.83
  Q 504.50 241.20 509.04 238.64
  Q 514.90 235.33 517.70 232.90
  Q 524.09 227.35 528.33 219.64
  Q 536.66 226.92 546.47 232.05
  Q 546.90 232.28 546.94 232.63
  Z"
/>
<path fill="#272624" d="
  M 546.94 232.63
  L 548.04 233.88
  L 538.75 240.39
  Q 534.73 243.36 531.42 246.88
  Q 528.93 249.53 527.77 252.08
  Q 522.75 263.10 518.92 272.64
  A 0.43 0.43 0.0 0 1 518.37 272.88
  L 518.00 272.74
  A 0.80 0.79 21.7 0 1 517.54 271.68
  L 525.86 252.19
  Q 526.07 251.70 525.62 251.99
  Q 525.08 252.35 524.64 252.88
  Q 513.61 266.08 504.62 279.88
  C 503.25 281.98 502.90 283.87 502.74 286.26
  Q 502.35 292.38 502.00 298.16
  Q 501.93 299.44 502.52 300.64
  A 0.87 0.86 44.6 0 1 502.53 301.38
  Q 501.81 302.96 501.82 304.78
  Q 501.82 305.52 502.21 304.89
  Q 502.73 304.03 502.75 303.02
  Q 502.83 299.20 503.94 296.32
  Q 504.66 294.45 504.76 296.45
  C 504.87 298.70 504.80 304.43 502.38 305.87
  Q 502.01 306.09 501.93 306.51
  Q 501.17 310.46 501.12 314.19
  Q 500.93 327.79 500.91 342.52
  Q 500.90 353.36 498.97 361.44
  C 496.17 373.17 493.97 384.18 493.92 396.37
  C 493.89 401.74 493.51 407.79 492.10 412.90
  Q 486.00 435.07 485.29 451.85
  Q 484.69 466.00 483.20 477.99
  Q 483.00 479.57 483.01 484.96
  C 482.61 494.87 482.63 503.72 485.20 512.97
  Q 485.60 516.41 489.02 516.69
  Q 500.64 517.67 509.74 516.86
  Q 544.65 513.76 576.07 508.95
  Q 577.11 508.79 578.23 508.92
  Q 578.69 508.98 578.92 509.39
  Q 581.02 513.13 583.68 516.53
  C 584.59 517.68 585.80 520.20 584.34 521.41
  Q 583.50 522.11 582.04 522.16
  Q 568.46 520.97 553.92 521.75
  A 0.49 0.49 0.0 0 0 553.50 522.43
  L 587.17 598.83
  L 613.14 661.83
  L 615.62 668.38
  Q 648.02 750.00 674.50 834.39
  Q 679.78 841.97 682.90 853.33
  Q 686.03 864.73 687.97 877.60
  A 1.17 1.17 0.0 0 1 687.03 878.93
  Q 685.74 879.18 684.38 879.25
  Q 653.20 880.71 621.14 880.71
  Q 605.18 880.72 590.49 879.09
  Q 588.09 878.82 585.71 877.87
  C 583.32 876.92 582.87 873.37 584.48 871.51
  Q 584.83 871.11 585.35 871.02
  C 606.06 867.61 626.58 854.05 641.15 839.58
  L 642.00 839.22
  L 672.27 835.10
  A 0.55 0.54 77.6 0 0 672.72 834.39
  Q 662.87 803.74 652.15 772.31
  Q 647.98 760.10 644.09 749.55
  C 640.07 738.66 634.79 722.96 629.32 709.90
  L 626.14 701.73
  L 614.45 671.29
  L 611.51 663.20
  L 585.11 598.90
  L 551.66 522.74
  A 1.77 1.76 -11.7 0 0 550.04 521.68
  Q 525.78 521.72 500.99 522.87
  C 491.20 523.32 482.26 522.65 472.48 521.80
  Q 468.44 521.45 467.22 518.96
  Q 467.12 515.67 468.48 513.22
  A 1.00 1.00 0.0 0 0 468.16 511.90
  C 464.48 509.46 462.04 506.33 459.15 503.16
  Q 457.40 500.32 455.72 497.53
  Q 449.67 487.47 447.62 475.38
  L 449.78 459.84
  C 451.81 453.05 453.76 446.41 456.18 439.66
  Q 463.34 419.63 471.00 398.72
  Q 474.15 390.12 478.06 380.61
  Q 481.76 371.62 483.83 358.41
  C 484.70 352.84 485.73 347.35 486.19 341.77
  Q 487.58 324.95 489.16 307.79
  Q 489.29 306.43 487.92 306.30
  Q 487.74 306.28 486.87 305.69
  A 0.67 0.67 0.0 0 0 486.03 305.74
  L 485.78 305.97
  Q 485.11 306.57 485.96 306.85
  Q 486.73 307.11 487.61 306.93
  Q 489.20 306.61 488.25 307.93
  Q 487.32 309.22 485.93 308.05
  Q 484.55 306.89 484.46 306.21
  L 484.78 304.53
  Q 486.98 304.41 488.85 305.08
  A 0.42 0.42 0.0 0 0 489.41 304.73
  Q 491.61 285.47 496.80 269.50
  C 498.02 265.75 498.10 263.11 496.45 259.89
  C 494.06 255.24 494.75 249.47 497.57 245.35
  Q 497.93 244.81 498.51 244.72
  Q 496.27 253.65 499.17 261.75
  C 501.22 267.48 502.72 272.68 503.53 278.65
  Q 503.65 279.55 504.09 278.75
  Q 512.09 264.10 523.49 251.98
  Q 535.37 239.34 546.94 232.63
  Z"
/>
<path fill="#eac192" d="
  M 548.04 233.88
  Q 549.55 233.89 550.90 234.85
  Q 560.99 242.05 567.78 249.84
  Q 572.71 255.51 573.58 264.52
  Q 575.35 282.86 577.53 296.15
  Q 578.71 303.33 579.37 309.09
  Q 579.39 309.26 579.28 309.40
  Q 579.17 309.51 579.03 309.58
  L 561.97 280.51
  A 0.42 0.42 0.0 0 0 561.20 280.82
  Q 561.80 283.15 562.97 285.27
  Q 569.31 296.81 576.15 308.05
  Q 577.16 309.71 578.83 310.57
  Q 579.69 316.04 580.21 318.28
  C 582.00 326.00 589.52 326.44 595.90 325.23
  Q 596.91 327.59 598.90 334.04
  Q 623.31 413.43 636.15 495.53
  A 1.20 1.20 0.0 0 1 635.26 496.88
  Q 613.61 502.39 586.30 507.07
  Q 582.48 507.73 578.43 507.82
  Q 573.90 507.92 570.28 508.57
  Q 563.66 509.77 557.08 510.56
  Q 549.80 511.43 543.83 512.22
  Q 534.06 513.51 523.82 514.40
  Q 514.74 515.18 505.15 516.01
  C 498.26 516.60 491.51 516.06 485.20 512.97
  C 482.63 503.72 482.61 494.87 483.01 484.96
  C 484.81 487.16 484.43 490.27 483.95 493.00
  Q 483.86 493.50 484.37 493.52
  Q 507.52 494.04 526.55 492.37
  C 550.73 490.25 570.71 479.33 580.97 456.44
  Q 588.78 439.04 589.08 418.06
  Q 589.35 399.32 586.78 381.73
  Q 586.43 379.29 585.02 374.99
  Q 586.49 352.39 581.86 330.19
  Q 581.56 328.76 581.29 328.43
  Q 579.98 326.86 580.28 328.87
  Q 581.80 339.28 582.78 347.27
  Q 583.93 356.63 583.61 370.85
  C 583.50 375.60 581.74 379.59 580.01 383.85
  Q 568.43 412.47 553.94 438.53
  C 549.70 446.14 545.02 453.24 540.49 460.53
  Q 540.18 461.03 540.69 461.31
  Q 540.98 461.47 541.29 461.38
  Q 542.17 461.14 542.62 460.45
  Q 562.91 429.38 577.06 395.73
  Q 575.69 404.08 570.80 413.33
  C 560.63 432.57 553.94 445.38 546.22 457.62
  C 545.24 459.17 544.02 460.36 542.79 461.68
  A 2.12 2.11 27.0 0 1 540.83 462.31
  Q 538.02 461.76 535.38 460.77
  Q 533.38 460.02 535.39 459.30
  Q 541.24 457.22 543.75 451.67
  Q 547.35 443.74 549.43 435.31
  Q 549.46 435.19 549.38 435.28
  L 540.47 446.46
  A 2.10 2.09 29.3 0 1 538.11 447.12
  Q 520.01 440.37 509.34 424.72
  Q 509.29 424.65 509.31 424.57
  Q 509.34 424.45 509.46 424.37
  Q 509.57 424.31 509.66 424.39
  C 514.63 428.95 519.47 433.65 525.57 436.66
  C 533.13 440.39 543.74 436.84 549.82 430.93
  Q 557.47 423.49 563.63 413.68
  C 566.56 409.02 569.51 404.36 571.38 399.11
  Q 572.01 397.35 570.38 398.26
  Q 566.65 400.34 563.12 403.85
  Q 556.98 409.95 551.26 415.63
  C 542.54 424.28 531.29 430.94 520.18 420.97
  Q 514.05 415.46 511.60 410.16
  A 2.42 2.41 57.8 0 1 512.24 407.30
  C 522.32 398.88 533.02 390.98 542.07 381.79
  Q 544.73 379.09 546.40 375.46
  C 547.14 373.85 546.33 372.01 544.97 371.14
  Q 544.56 370.88 544.07 370.91
  Q 540.16 371.10 537.26 372.43
  Q 530.54 375.52 522.53 381.19
  Q 522.29 381.36 522.08 381.15
  Q 522.04 381.12 522.03 381.07
  Q 521.95 380.79 522.15 380.56
  Q 527.35 374.48 532.29 368.64
  C 536.53 363.63 539.50 358.09 536.09 351.61
  Q 533.62 346.93 531.68 345.56
  Q 525.54 341.23 524.94 337.02
  Q 527.22 326.82 528.06 317.59
  Q 529.84 297.94 532.00 277.87
  Q 535.11 282.56 533.14 291.26
  Q 533.10 291.43 533.27 291.49
  A 0.24 0.23 -70.1 0 0 533.58 291.34
  Q 536.08 282.96 536.11 274.18
  Q 546.13 272.38 556.08 274.88
  Q 556.24 274.92 556.40 274.89
  Q 556.55 274.85 556.62 274.70
  Q 556.84 274.22 556.39 273.94
  C 550.88 270.60 541.81 270.89 536.08 272.35
  Q 541.43 256.91 538.75 240.39
  L 548.04 233.88
  Z
  M 568.31 270.66
  Q 568.38 270.80 568.53 270.81
  A 0.27 0.27 0.0 0 0 568.81 270.48
  Q 566.75 261.78 561.25 255.20
  Q 561.19 255.13 561.09 255.11
  Q 560.92 255.08 560.81 255.18
  Q 560.54 255.42 560.67 255.77
  Q 561.47 258.01 562.45 259.74
  Q 565.57 265.23 568.31 270.66
  Z
  M 492.9028 507.2173
  A 4.00 3.43 73.1 0 0 495.0219 502.3929
  A 4.00 3.43 73.1 0 0 490.5772 499.5627
  A 4.00 3.43 73.1 0 0 488.4581 504.3871
  A 4.00 3.43 73.1 0 0 492.9028 507.2173
  Z"
/>
<path fill="#e7b179" d="
  M 538.75 240.39
  Q 541.43 256.91 536.08 272.35
  Q 535.57 273.73 536.11 274.18
  Q 536.08 282.96 533.58 291.34
  A 0.24 0.23 -70.1 0 1 533.27 291.49
  Q 533.10 291.43 533.14 291.26
  Q 535.11 282.56 532.00 277.87
  Q 532.29 266.94 532.89 255.61
  C 532.97 254.12 533.81 252.95 534.19 251.56
  Q 534.41 250.76 533.80 251.32
  Q 531.08 253.87 531.00 257.04
  Q 530.46 278.60 527.94 300.29
  Q 527.87 300.90 527.25 300.92
  L 513.74 301.25
  A 1.50 1.50 0.0 0 0 512.28 302.65
  Q 511.74 310.84 511.90 318.62
  Q 511.93 320.01 512.98 321.06
  A 1.47 1.43 21.3 0 1 513.39 321.96
  Q 513.95 329.24 513.68 336.50
  C 513.51 341.02 516.85 341.77 520.47 341.97
  A 0.94 0.94 0.0 0 0 521.44 341.26
  L 521.51 340.99
  A 0.41 0.41 0.0 0 0 521.16 340.48
  C 518.68 340.18 515.01 340.56 515.24 336.74
  Q 515.69 328.90 514.91 322.08
  Q 514.83 321.43 515.40 321.76
  Q 519.62 324.17 524.77 325.49
  Q 525.32 325.63 525.29 326.20
  C 524.92 332.49 522.42 338.05 521.46 344.09
  C 519.26 358.01 516.34 371.33 511.44 384.23
  C 508.26 392.61 505.88 400.74 502.73 408.99
  Q 501.82 411.37 502.70 413.40
  Q 503.38 414.95 503.70 413.29
  Q 504.21 410.72 505.09 408.11
  C 509.31 395.48 514.88 381.55 517.92 369.97
  Q 521.19 357.46 523.15 344.38
  Q 523.43 342.52 523.96 340.68
  Q 524.56 338.55 524.94 337.02
  Q 525.54 341.23 531.68 345.56
  Q 533.62 346.93 536.09 351.61
  C 539.50 358.09 536.53 363.63 532.29 368.64
  Q 527.35 374.48 522.15 380.56
  Q 521.95 380.79 522.03 381.07
  Q 522.04 381.12 522.08 381.15
  Q 522.29 381.36 522.53 381.19
  Q 530.54 375.52 537.26 372.43
  Q 540.16 371.10 544.07 370.91
  Q 544.56 370.88 544.97 371.14
  C 546.33 372.01 547.14 373.85 546.40 375.46
  Q 544.73 379.09 542.07 381.79
  C 533.02 390.98 522.32 398.88 512.24 407.30
  A 2.42 2.41 57.8 0 0 511.60 410.16
  Q 514.05 415.46 520.18 420.97
  C 531.29 430.94 542.54 424.28 551.26 415.63
  Q 556.98 409.95 563.12 403.85
  Q 566.65 400.34 570.38 398.26
  Q 572.01 397.35 571.38 399.11
  C 569.51 404.36 566.56 409.02 563.63 413.68
  Q 557.47 423.49 549.82 430.93
  C 543.74 436.84 533.13 440.39 525.57 436.66
  C 519.47 433.65 514.63 428.95 509.66 424.39
  Q 509.57 424.31 509.46 424.37
  Q 509.34 424.45 509.31 424.57
  Q 509.29 424.65 509.34 424.72
  Q 520.01 440.37 538.11 447.12
  A 2.10 2.09 29.3 0 0 540.47 446.46
  L 549.38 435.28
  Q 549.46 435.19 549.43 435.31
  Q 547.35 443.74 543.75 451.67
  Q 541.24 457.22 535.39 459.30
  Q 533.38 460.02 535.38 460.77
  Q 538.02 461.76 540.83 462.31
  A 2.12 2.11 27.0 0 0 542.79 461.68
  C 544.02 460.36 545.24 459.17 546.22 457.62
  C 553.94 445.38 560.63 432.57 570.80 413.33
  Q 575.69 404.08 577.06 395.73
  L 585.02 374.99
  Q 586.43 379.29 586.78 381.73
  Q 589.35 399.32 589.08 418.06
  Q 588.78 439.04 580.97 456.44
  C 570.71 479.33 550.73 490.25 526.55 492.37
  Q 507.52 494.04 484.37 493.52
  Q 483.86 493.50 483.95 493.00
  C 484.43 490.27 484.81 487.16 483.01 484.96
  Q 483.00 479.57 483.20 477.99
  Q 484.69 466.00 485.29 451.85
  Q 486.00 435.07 492.10 412.90
  C 493.51 407.79 493.89 401.74 493.92 396.37
  C 493.97 384.18 496.17 373.17 498.97 361.44
  Q 500.90 353.36 500.91 342.52
  Q 500.93 327.79 501.12 314.19
  Q 501.17 310.46 501.93 306.51
  Q 502.01 306.09 502.38 305.87
  C 504.80 304.43 504.87 298.70 504.76 296.45
  Q 504.66 294.45 503.94 296.32
  Q 502.83 299.20 502.75 303.02
  Q 502.73 304.03 502.21 304.89
  Q 501.82 305.52 501.82 304.78
  Q 501.81 302.96 502.53 301.38
  A 0.87 0.86 44.6 0 0 502.52 300.64
  Q 501.93 299.44 502.00 298.16
  Q 502.35 292.38 502.74 286.26
  C 502.90 283.87 503.25 281.98 504.62 279.88
  Q 513.61 266.08 524.64 252.88
  Q 525.08 252.35 525.62 251.99
  Q 526.07 251.70 525.86 252.19
  L 517.54 271.68
  A 0.80 0.79 21.7 0 0 518.00 272.74
  L 518.37 272.88
  A 0.43 0.43 0.0 0 0 518.92 272.64
  Q 522.75 263.10 527.77 252.08
  Q 528.93 249.53 531.42 246.88
  Q 534.73 243.36 538.75 240.39
  Z
  M 509.3989 347.8828
  A 3.15 2.93 -11.3 0 0 505.7359 345.6268
  A 3.15 2.93 -11.3 0 0 503.2211 349.1172
  A 3.15 2.93 -11.3 0 0 506.8841 351.3732
  A 3.15 2.93 -11.3 0 0 509.3989 347.8828
  Z
  M 500.54 397.10
  Q 499.65 398.60 497.87 397.86
  A 1.62 1.60 -84.3 0 1 496.90 396.66
  Q 496.72 395.65 497.25 394.96
  Q 497.81 394.24 496.95 394.53
  Q 496.31 394.75 496.02 395.50
  Q 495.30 397.29 496.76 398.01
  Q 499.52 399.37 501.54 397.70
  A 1.58 1.58 0.0 0 0 501.39 395.16
  Q 500.37 394.50 499.22 394.31
  Q 498.21 394.14 499.09 394.68
  L 500.10 395.30
  A 1.32 1.32 0.0 0 1 500.54 397.10
  Z
  M 532.73 465.18
  C 527.09 464.77 523.19 458.41 520.70 454.01
  C 514.68 443.39 509.62 432.98 501.53 422.55
  A 0.47 0.47 0.0 0 0 500.81 422.52
  L 500.60 422.75
  A 0.78 0.76 48.7 0 0 500.55 423.71
  Q 502.64 426.64 504.87 429.74
  Q 507.08 432.81 508.72 435.80
  Q 513.60 444.73 518.41 453.32
  C 521.14 458.18 525.12 465.29 530.91 466.53
  Q 531.61 466.68 532.29 466.46
  Q 533.00 466.23 533.05 465.55
  Q 533.08 465.20 532.73 465.18
  Z
  M 494.8400 456.3571
  A 3.27 2.94 0.3 0 0 491.5854 453.4000
  A 3.27 2.94 0.3 0 0 488.3000 456.3229
  A 3.27 2.94 0.3 0 0 491.5546 459.2800
  A 3.27 2.94 0.3 0 0 494.8400 456.3571
  Z"
/>
<path fill="#272624" d="
  M 532.00 277.87
  Q 529.84 297.94 528.06 317.59
  Q 527.22 326.82 524.94 337.02
  Q 524.56 338.55 523.96 340.68
  Q 523.43 342.52 523.15 344.38
  Q 521.19 357.46 517.92 369.97
  C 514.88 381.55 509.31 395.48 505.09 408.11
  Q 504.21 410.72 503.70 413.29
  Q 503.38 414.95 502.70 413.40
  Q 501.82 411.37 502.73 408.99
  C 505.88 400.74 508.26 392.61 511.44 384.23
  C 516.34 371.33 519.26 358.01 521.46 344.09
  C 522.42 338.05 524.92 332.49 525.29 326.20
  Q 525.32 325.63 524.77 325.49
  Q 519.62 324.17 515.40 321.76
  Q 514.83 321.43 514.91 322.08
  Q 515.69 328.90 515.24 336.74
  C 515.01 340.56 518.68 340.18 521.16 340.48
  A 0.41 0.41 0.0 0 1 521.51 340.99
  L 521.44 341.26
  A 0.94 0.94 0.0 0 1 520.47 341.97
  C 516.85 341.77 513.51 341.02 513.68 336.50
  Q 513.95 329.24 513.39 321.96
  A 1.47 1.43 21.3 0 0 512.98 321.06
  Q 511.93 320.01 511.90 318.62
  Q 511.74 310.84 512.28 302.65
  A 1.50 1.50 0.0 0 1 513.74 301.25
  L 527.25 300.92
  Q 527.87 300.90 527.94 300.29
  Q 530.46 278.60 531.00 257.04
  Q 531.08 253.87 533.80 251.32
  Q 534.41 250.76 534.19 251.56
  C 533.81 252.95 532.97 254.12 532.89 255.61
  Q 532.29 266.94 532.00 277.87
  Z
  M 513.26 318.78
  A 0.33 0.33 0.0 0 0 513.45 319.09
  L 525.23 324.30
  A 0.33 0.33 0.0 0 0 525.69 324.03
  L 527.68 302.93
  A 0.33 0.33 0.0 0 0 527.34 302.57
  L 514.04 302.81
  A 0.33 0.33 0.0 0 0 513.72 303.13
  L 513.26 318.78
  Z"
/>
<path fill="#e7b179" d="
  M 568.31 270.66
  Q 565.57 265.23 562.45 259.74
  Q 561.47 258.01 560.67 255.77
  Q 560.54 255.42 560.81 255.18
  Q 560.92 255.08 561.09 255.11
  Q 561.19 255.13 561.25 255.20
  Q 566.75 261.78 568.81 270.48
  A 0.27 0.27 0.0 0 1 568.53 270.81
  Q 568.38 270.80 568.31 270.66
  Z"
/>
<path fill="#272624" d="
  M 404.93 274.94
  L 404.95 272.51
  Q 404.97 270.64 406.80 271.02
  C 409.88 271.66 409.74 268.31 410.23 266.37
  A 1.92 1.91 -85.1 0 1 411.93 264.93
  Q 425.07 263.88 441.13 264.50
  C 443.52 264.59 443.76 268.52 444.02 270.28
  Q 444.12 270.96 444.81 270.99
  L 448.13 271.14
  Q 449.45 271.20 449.22 272.50
  Q 448.79 274.93 450.74 275.99
  Q 451.12 276.19 451.05 276.62
  Q 451.02 276.78 450.89 276.89
  Q 450.72 277.04 450.49 277.03
  Q 427.24 276.58 404.16 277.07
  A 0.55 0.54 12.5 0 1 403.66 276.29
  Q 403.90 275.81 404.38 275.67
  Q 404.92 275.51 404.93 274.94
  Z"
/>
<path fill="#272624" d="
  M 492.26 266.96
  A 2.84 2.84 0.0 0 1 489.42 269.80
  A 2.84 2.84 0.0 0 1 486.58 266.96
  A 2.84 2.84 0.0 0 1 489.42 264.12
  A 2.84 2.84 0.0 0 1 492.26 266.96
  Z
  M 491.1988 266.4393
  A 1.53 1.53 0.0 0 0 489.6318 264.9472
  L 489.3519 264.9540
  A 1.53 1.53 0.0 0 0 487.8597 266.5209
  L 487.8812 267.4007
  A 1.53 1.53 0.0 0 0 489.4482 268.8928
  L 489.7281 268.8860
  A 1.53 1.53 0.0 0 0 491.2203 267.3191
  L 491.1988 266.4393
  Z"
/>
<rect fill="#e7b179" x="-1.67" y="-1.97" transform="translate(489.54,266.92) rotate(-1.4)" width="3.34" height="3.94" rx="1.53"/>
<path fill="#272624" d="
  M 536.11 274.18
  Q 535.57 273.73 536.08 272.35
  C 541.81 270.89 550.88 270.60 556.39 273.94
  Q 556.84 274.22 556.62 274.70
  Q 556.55 274.85 556.40 274.89
  Q 556.24 274.92 556.08 274.88
  Q 546.13 272.38 536.11 274.18
  Z"
/>
<path fill="#272624" d="
  M 579.03 309.58
  Q 579.14 309.99 578.83 310.57
  Q 577.16 309.71 576.15 308.05
  Q 569.31 296.81 562.97 285.27
  Q 561.80 283.15 561.20 280.82
  A 0.42 0.42 0.0 0 1 561.97 280.51
  L 579.03 309.58
  Z"
/>
<path fill="#c18352" d="
  M 409.16 293.23
  L 409.40 299.79
  Q 409.42 300.30 408.92 300.38
  L 408.03 300.54
  C 403.40 298.36 401.68 292.88 407.79 290.82
  Q 408.29 290.65 408.58 291.09
  Q 409.17 291.98 409.16 293.23
  Z"
/>
<path fill="#e7b179" d="
  M 409.16 293.23
  Q 409.81 294.42 411.25 294.38
  Q 426.19 293.97 441.24 294.15
  Q 443.48 294.18 445.61 293.88
  A 0.51 0.51 0.0 0 1 446.18 294.47
  Q 445.49 298.60 446.49 300.88
  L 442.37 300.62
  A 1.21 1.21 0.0 0 0 441.11 301.63
  C 440.74 303.94 441.41 306.30 442.76 308.18
  Q 444.93 311.22 446.40 314.59
  Q 446.97 315.90 448.27 316.68
  C 453.26 319.67 454.97 315.78 454.46 311.52
  Q 455.79 313.04 457.84 312.48
  Q 458.33 312.34 458.76 312.61
  L 480.26 326.02
  Q 480.35 326.83 480.18 327.74
  Q 479.00 334.11 477.79 340.47
  Q 476.61 346.67 474.88 353.06
  Q 472.44 361.99 470.06 370.94
  Q 468.17 378.02 466.23 384.65
  Q 454.60 367.43 440.25 352.24
  Q 439.33 351.27 439.63 349.65
  Q 441.60 339.07 443.71 328.92
  A 0.74 0.73 -86.0 0 0 442.95 328.04
  Q 429.64 328.92 417.00 328.68
  A 2.01 1.99 77.9 0 1 415.22 327.51
  L 414.09 325.06
  Q 413.89 324.62 413.44 324.45
  L 411.21 323.59
  L 412.54 323.65
  Q 414.16 323.72 413.88 322.12
  Q 412.33 313.19 411.07 304.91
  Q 410.86 303.54 409.76 303.74
  Q 410.78 301.80 408.03 300.54
  L 408.92 300.38
  Q 409.42 300.30 409.40 299.79
  L 409.16 293.23
  Z
  M 448.82 338.09
  Q 448.33 338.78 447.57 339.26
  A 0.62 0.61 54.1 0 0 447.43 340.17
  Q 447.89 340.73 448.91 340.39
  A 1.54 1.53 10.3 0 0 449.61 339.91
  Q 451.25 337.98 452.54 335.55
  Q 458.65 324.05 457.69 313.40
  A 0.40 0.38 -6.2 0 0 457.24 313.05
  L 456.90 313.10
  Q 456.06 313.23 456.09 314.09
  Q 456.61 327.01 448.82 338.09
  Z
  M 446.80 321.59
  A 1.00 1.00 0.0 0 0 448.18 322.75
  L 450.25 321.82
  A 1.00 1.00 0.0 0 0 450.78 321.26
  L 451.18 320.18
  A 1.00 1.00 0.0 0 0 450.23 318.83
  L 448.27 318.84
  A 1.00 1.00 0.0 0 0 447.31 319.60
  L 446.80 321.59
  Z"
/>
<path fill="#c18352" d="
  M 446.49 300.88
  Q 452.62 304.33 454.46 311.52
  C 454.97 315.78 453.26 319.67 448.27 316.68
  Q 446.97 315.90 446.40 314.59
  Q 444.93 311.22 442.76 308.18
  C 441.41 306.30 440.74 303.94 441.11 301.63
  A 1.21 1.21 0.0 0 1 442.37 300.62
  L 446.49 300.88
  Z"
/>
<path fill="#e7b179" d="
  M 513.26 318.78
  L 513.72 303.13
  A 0.33 0.33 0.0 0 1 514.04 302.81
  L 527.34 302.57
  A 0.33 0.33 0.0 0 1 527.68 302.93
  L 525.69 324.03
  A 0.33 0.33 0.0 0 1 525.23 324.30
  L 513.45 319.09
  A 0.33 0.33 0.0 0 1 513.26 318.78
  Z"
/>
<path fill="#c18352" d="
  M 409.76 303.74
  Q 410.86 303.54 411.07 304.91
  Q 412.33 313.19 413.88 322.12
  Q 414.16 323.72 412.54 323.65
  L 411.21 323.59
  C 408.26 322.51 408.48 320.29 408.22 317.87
  C 408.05 316.36 407.10 315.66 406.52 314.39
  Q 406.24 313.76 406.37 313.09
  Q 406.85 310.53 406.21 307.81
  Q 406.08 307.27 406.30 306.76
  Q 407.22 304.58 409.76 303.74
  Z"
/>
<path fill="#c18352" d="
  M 449.78 459.84
  Q 449.87 456.44 450.14 454.76
  Q 455.06 424.51 463.48 394.81
  Q 463.85 396.91 464.91 397.92
  Q 466.20 399.14 467.59 398.30
  Q 469.51 397.15 468.67 394.70
  Q 468.65 394.64 468.59 394.66
  L 468.31 394.71
  Q 467.87 394.79 467.94 395.23
  Q 468.34 397.51 465.76 397.33
  A 1.09 1.09 0.0 0 1 464.74 396.30
  L 464.58 393.43
  Q 464.57 393.13 464.46 393.41
  Q 464.39 393.61 464.31 393.79
  Q 464.14 394.21 463.94 393.80
  Q 463.78 393.49 463.89 392.76
  L 466.23 384.65
  Q 468.17 378.02 470.06 370.94
  Q 472.44 361.99 474.88 353.06
  Q 476.61 346.67 477.79 340.47
  Q 479.00 334.11 480.18 327.74
  Q 480.35 326.83 480.26 326.02
  L 484.46 306.21
  Q 484.55 306.89 485.93 308.05
  Q 487.32 309.22 488.25 307.93
  Q 489.20 306.61 487.61 306.93
  Q 486.73 307.11 485.96 306.85
  Q 485.11 306.57 485.78 305.97
  L 486.03 305.74
  A 0.67 0.67 0.0 0 1 486.87 305.69
  Q 487.74 306.28 487.92 306.30
  Q 489.29 306.43 489.16 307.79
  Q 487.58 324.95 486.19 341.77
  C 485.73 347.35 484.70 352.84 483.83 358.41
  Q 481.76 371.62 478.06 380.61
  Q 474.15 390.12 471.00 398.72
  Q 463.34 419.63 456.18 439.66
  C 453.76 446.41 451.81 453.05 449.78 459.84
  Z
  M 481.6754 354.0497
  A 1.98 1.68 91.0 0 0 483.3897 352.0993
  A 1.98 1.68 91.0 0 0 481.7446 350.0903
  A 1.98 1.68 91.0 0 0 480.0303 352.0407
  A 1.98 1.68 91.0 0 0 481.6754 354.0497
  Z
  M 466.34 396.01
  A 0.15 0.15 0.0 0 0 466.59 396.06
  Q 467.29 395.26 467.05 394.36
  A 0.33 0.33 0.0 0 0 466.46 394.24
  Q 465.93 394.94 466.34 396.01
  Z"
/>
<path fill="#272624" d="
  M 448.82 338.09
  Q 456.61 327.01 456.09 314.09
  Q 456.06 313.23 456.90 313.10
  L 457.24 313.05
  A 0.40 0.38 -6.2 0 1 457.69 313.40
  Q 458.65 324.05 452.54 335.55
  Q 451.25 337.98 449.61 339.91
  A 1.54 1.53 10.3 0 1 448.91 340.39
  Q 447.89 340.73 447.43 340.17
  A 0.62 0.61 54.1 0 1 447.57 339.26
  Q 448.33 338.78 448.82 338.09
  Z"
/>
<path fill="#272624" d="
  M 446.80 321.59
  L 447.31 319.60
  A 1.00 1.00 0.0 0 1 448.27 318.84
  L 450.23 318.83
  A 1.00 1.00 0.0 0 1 451.18 320.18
  L 450.78 321.26
  A 1.00 1.00 0.0 0 1 450.25 321.82
  L 448.18 322.75
  A 1.00 1.00 0.0 0 1 446.80 321.59
  Z"
/>
<path fill="#272624" d="
  M 585.02 374.99
  L 577.06 395.73
  Q 562.91 429.38 542.62 460.45
  Q 542.17 461.14 541.29 461.38
  Q 540.98 461.47 540.69 461.31
  Q 540.18 461.03 540.49 460.53
  C 545.02 453.24 549.70 446.14 553.94 438.53
  Q 568.43 412.47 580.01 383.85
  C 581.74 379.59 583.50 375.60 583.61 370.85
  Q 583.93 356.63 582.78 347.27
  Q 581.80 339.28 580.28 328.87
  Q 579.98 326.86 581.29 328.43
  Q 581.56 328.76 581.86 330.19
  Q 586.49 352.39 585.02 374.99
  Z"
/>
<path fill="#272624" d="
  M 509.3989 347.8828
  A 3.15 2.93 -11.3 0 1 506.8841 351.3732
  A 3.15 2.93 -11.3 0 1 503.2211 349.1172
  A 3.15 2.93 -11.3 0 1 505.7359 345.6268
  A 3.15 2.93 -11.3 0 1 509.3989 347.8828
  Z
  M 507.36 346.46
  A 1.39 1.39 0.0 0 0 504.91 346.76
  L 504.42 348.11
  A 1.39 1.39 0.0 0 0 504.96 349.75
  L 505.69 350.23
  A 1.39 1.39 0.0 0 0 507.46 350.01
  L 508.05 349.38
  A 1.39 1.39 0.0 0 0 508.18 347.64
  L 507.36 346.46
  Z"
/>
<path fill="#e7b179" d="
  M 507.36 346.46
  L 508.18 347.64
  A 1.39 1.39 0.0 0 1 508.05 349.38
  L 507.46 350.01
  A 1.39 1.39 0.0 0 1 505.69 350.23
  L 504.96 349.75
  A 1.39 1.39 0.0 0 1 504.42 348.11
  L 504.91 346.76
  A 1.39 1.39 0.0 0 1 507.36 346.46
  Z"
/>
<path fill="#4f382c" d="
  M 481.6754 354.0497
  A 1.98 1.68 91.0 0 1 480.0303 352.0407
  A 1.98 1.68 91.0 0 1 481.7446 350.0903
  A 1.98 1.68 91.0 0 1 483.3897 352.0993
  A 1.98 1.68 91.0 0 1 481.6754 354.0497
  Z
  M 481.5210 353.1540
  A 1.13 0.93 106.4 0 0 482.7322 352.3326
  A 1.13 0.93 106.4 0 0 482.1590 350.9860
  A 1.13 0.93 106.4 0 0 480.9478 351.8074
  A 1.13 0.93 106.4 0 0 481.5210 353.1540
  Z"
/>
<ellipse fill="#c18352" cx="0.00" cy="0.00" transform="translate(481.84,352.07) rotate(106.4)" rx="1.13" ry="0.93"/>
<path fill="#4f382c" d="
  M 463.89 392.76
  Q 463.78 393.49 463.94 393.80
  Q 464.14 394.21 464.31 393.79
  Q 464.39 393.61 464.46 393.41
  Q 464.57 393.13 464.58 393.43
  L 464.74 396.30
  A 1.09 1.09 0.0 0 0 465.76 397.33
  Q 468.34 397.51 467.94 395.23
  Q 467.87 394.79 468.31 394.71
  L 468.59 394.66
  Q 468.65 394.64 468.67 394.70
  Q 469.51 397.15 467.59 398.30
  Q 466.20 399.14 464.91 397.92
  Q 463.85 396.91 463.48 394.81
  Q 463.88 394.29 463.89 392.76
  Z"
/>
<path fill="#4f382c" d="
  M 466.34 396.01
  Q 465.93 394.94 466.46 394.24
  A 0.33 0.33 0.0 0 1 467.05 394.36
  Q 467.29 395.26 466.59 396.06
  A 0.15 0.15 0.0 0 1 466.34 396.01
  Z"
/>
<path fill="#272624" d="
  M 500.54 397.10
  A 1.32 1.32 0.0 0 0 500.10 395.30
  L 499.09 394.68
  Q 498.21 394.14 499.22 394.31
  Q 500.37 394.50 501.39 395.16
  A 1.58 1.58 0.0 0 1 501.54 397.70
  Q 499.52 399.37 496.76 398.01
  Q 495.30 397.29 496.02 395.50
  Q 496.31 394.75 496.95 394.53
  Q 497.81 394.24 497.25 394.96
  Q 496.72 395.65 496.90 396.66
  A 1.62 1.60 -84.3 0 0 497.87 397.86
  Q 499.65 398.60 500.54 397.10
  Z"
/>
<path fill="#272624" d="
  M 532.73 465.18
  Q 533.08 465.20 533.05 465.55
  Q 533.00 466.23 532.29 466.46
  Q 531.61 466.68 530.91 466.53
  C 525.12 465.29 521.14 458.18 518.41 453.32
  Q 513.60 444.73 508.72 435.80
  Q 507.08 432.81 504.87 429.74
  Q 502.64 426.64 500.55 423.71
  A 0.78 0.76 48.7 0 1 500.60 422.75
  L 500.81 422.52
  A 0.47 0.47 0.0 0 1 501.53 422.55
  C 509.62 432.98 514.68 443.39 520.70 454.01
  C 523.19 458.41 527.09 464.77 532.73 465.18
  Z"
/>
<path fill="#272624" d="
  M 494.8400 456.3571
  A 3.27 2.94 0.3 0 1 491.5546 459.2800
  A 3.27 2.94 0.3 0 1 488.3000 456.3229
  A 3.27 2.94 0.3 0 1 491.5854 453.4000
  A 3.27 2.94 0.3 0 1 494.8400 456.3571
  Z
  M 493.8053 456.7952
  A 2.27 2.15 12.6 0 0 492.0590 454.2018
  A 2.27 2.15 12.6 0 0 489.3747 455.8048
  A 2.27 2.15 12.6 0 0 491.1210 458.3982
  A 2.27 2.15 12.6 0 0 493.8053 456.7952
  Z"
/>
<ellipse fill="#e7b179" cx="0.00" cy="0.00" transform="translate(491.59,456.30) rotate(12.6)" rx="2.27" ry="2.15"/>
<path fill="#c18352" d="
  M 447.62 475.38
  Q 449.67 487.47 455.72 497.53
  Q 457.40 500.32 459.15 503.16
  L 445.86 501.84
  A 1.09 1.08 -84.2 0 1 444.90 500.65
  L 447.62 475.38
  Z
  M 448.64 496.70
  L 450.07 496.28
  A 0.26 0.26 0.0 0 0 450.25 495.95
  L 450.16 495.64
  A 2.89 0.85 73.5 0 0 448.52 493.11
  L 448.21 493.20
  A 2.89 0.85 73.5 0 0 448.22 496.21
  L 448.31 496.53
  A 0.26 0.26 0.0 0 0 448.64 496.70
  Z"
/>
<path fill="#272624" d="
  M 448.64 496.70
  A 0.26 0.26 0.0 0 1 448.31 496.53
  L 448.22 496.21
  A 2.89 0.85 73.5 0 1 448.21 493.20
  L 448.52 493.11
  A 2.89 0.85 73.5 0 1 450.16 495.64
  L 450.25 495.95
  A 0.26 0.26 0.0 0 1 450.07 496.28
  L 448.64 496.70
  Z"
/>
<path fill="#272624" d="
  M 492.9028 507.2173
  A 4.00 3.43 73.1 0 1 488.4581 504.3871
  A 4.00 3.43 73.1 0 1 490.5772 499.5627
  A 4.00 3.43 73.1 0 1 495.0219 502.3929
  A 4.00 3.43 73.1 0 1 492.9028 507.2173
  Z
  M 492.3131 506.2019
  A 3.01 2.48 76.1 0 0 493.9974 502.6842
  A 3.01 2.48 76.1 0 0 490.8669 500.3581
  A 3.01 2.48 76.1 0 0 489.1826 503.8758
  A 3.01 2.48 76.1 0 0 492.3131 506.2019
  Z"
/>
<path fill="#eac192" d="
  M 492.3131 506.2019
  A 3.01 2.48 76.1 0 1 489.1826 503.8758
  A 3.01 2.48 76.1 0 1 490.8669 500.3581
  A 3.01 2.48 76.1 0 1 493.9974 502.6842
  A 3.01 2.48 76.1 0 1 492.3131 506.2019
  Z
  M 492.02 502.57
  Q 491.37 502.34 491.53 503.09
  Q 491.66 503.72 492.12 503.26
  Q 492.60 502.78 492.02 502.57
  Z"
/>
<path fill="#c18352" d="
  M 492.02 502.57
  Q 492.60 502.78 492.12 503.26
  Q 491.66 503.72 491.53 503.09
  Q 491.37 502.34 492.02 502.57
  Z"
/>
<path fill="#a46d45" d="
  M 467.22 518.96
  Q 468.44 521.45 472.48 521.80
  C 482.26 522.65 491.20 523.32 500.99 522.87
  Q 525.78 521.72 550.04 521.68
  A 1.77 1.76 -11.7 0 1 551.66 522.74
  L 585.11 598.90
  C 581.07 602.67 576.19 603.32 570.52 603.63
  Q 557.97 604.33 545.40 603.36
  Q 539.19 602.88 532.01 606.84
  L 524.47 591.16
  Q 524.04 590.26 523.86 591.24
  Q 522.17 600.26 519.28 609.43
  Q 516.44 618.45 513.25 627.17
  Q 502.96 627.96 493.02 626.89
  Q 492.50 626.83 492.27 627.30
  Q 482.29 647.42 465.85 661.76
  Q 458.78 667.93 447.73 676.67
  C 446.73 677.46 445.71 677.03 444.71 676.43
  L 478.97 575.19
  Q 481.64 574.48 483.43 572.67
  Q 488.79 567.26 495.25 563.24
  Q 501.41 559.42 507.22 555.23
  Q 507.59 556.93 508.12 557.40
  Q 510.49 559.57 509.47 556.52
  Q 508.63 554.04 506.96 550.74
  Q 501.63 540.22 496.16 529.01
  Q 495.84 528.36 495.16 528.10
  L 493.46 527.47
  Q 492.98 527.30 492.84 527.78
  L 490.81 534.85
  Q 481.68 535.79 473.43 539.54
  C 468.31 541.87 461.57 544.68 459.41 550.34
  A 0.51 0.51 0.0 0 0 459.98 551.02
  Q 463.39 550.32 466.23 549.28
  Q 477.52 545.17 488.79 541.15
  L 481.44 562.23
  C 473.54 563.98 466.12 569.98 461.13 576.12
  C 459.65 577.94 458.52 580.14 457.48 582.24
  A 0.84 0.84 0.0 0 0 458.34 583.45
  Q 468.03 582.27 476.47 576.37
  L 440.88 681.04
  Q 435.85 684.45 430.89 687.90
  Q 412.09 700.97 397.44 718.80
  Q 394.95 721.83 390.81 724.88
  Q 390.33 725.23 390.18 724.66
  L 389.86 723.44
  Q 397.91 706.70 405.84 689.85
  C 408.26 684.72 407.23 679.16 407.39 673.93
  Q 407.52 669.78 409.89 663.64
  Q 414.32 652.20 420.88 639.00
  Q 436.23 608.14 441.13 597.25
  Q 449.10 579.51 453.65 565.00
  Q 458.65 549.04 463.37 533.01
  Q 465.46 525.93 467.22 518.96
  Z
  M 492.23 626.04
  A 0.91 0.90 -72.9 0 0 493.18 625.53
  C 497.46 616.39 501.86 607.26 505.68 597.85
  Q 510.42 586.19 515.01 575.38
  A 6.03 6.02 43.5 0 0 514.87 570.36
  Q 513.47 567.54 512.19 564.94
  Q 510.76 562.06 508.98 564.73
  Q 505.02 570.69 501.03 576.86
  C 491.46 591.66 479.73 604.95 466.58 616.80
  A 0.74 0.73 -55.4 0 0 466.80 618.03
  Q 476.42 621.81 486.01 624.70
  Q 488.97 625.60 492.23 626.04
  Z"
/>
<path fill="#a46d45" d="
  M 582.04 522.16
  Q 583.03 529.51 586.36 536.20
  C 587.56 543.21 588.51 548.97 590.16 557.11
  Q 592.73 569.77 592.73 581.65
  Q 592.72 590.91 587.17 598.83
  L 553.50 522.43
  A 0.49 0.49 0.0 0 1 553.92 521.75
  Q 568.46 520.97 582.04 522.16
  Z"
/>
<path fill="#272624" d="
  M 507.22 555.23
  L 506.09 552.89
  L 495.24 530.81
  Q 494.83 529.96 494.52 530.85
  L 484.66 558.79
  L 478.97 575.19
  L 444.71 676.43
  Q 439.91 689.79 436.29 703.44
  Q 434.71 709.37 432.49 714.44
  Q 421.85 738.74 411.63 763.20
  L 397.66 795.23
  L 384.65 824.60
  Q 380.80 843.57 373.57 862.71
  Q 373.12 863.92 371.93 863.41
  Q 336.37 848.11 302.06 828.07
  C 295.53 824.25 289.03 819.88 283.31 815.02
  C 281.92 813.84 280.25 812.11 281.07 810.10
  C 281.98 807.86 283.40 806.84 285.94 807.09
  C 305.92 809.04 327.26 808.32 346.41 804.05
  Q 346.40 804.74 345.63 805.89
  A 1.14 1.11 -35.7 0 0 345.47 806.79
  Q 345.88 808.39 347.15 808.21
  Q 349.84 810.96 354.00 813.26
  Q 367.02 820.48 380.67 823.91
  Q 383.49 824.61 382.95 823.53
  L 392.87 800.70
  L 407.02 767.58
  Q 408.34 764.94 410.07 760.90
  Q 420.35 736.96 430.87 713.11
  Q 432.82 708.68 434.14 703.38
  Q 436.97 692.03 440.88 681.04
  L 476.47 576.37
  L 481.44 562.23
  L 488.79 541.15
  L 490.81 534.85
  L 492.84 527.78
  Q 492.98 527.30 493.46 527.47
  L 495.16 528.10
  Q 495.84 528.36 496.16 529.01
  Q 501.63 540.22 506.96 550.74
  Q 508.63 554.04 509.47 556.52
  Q 510.49 559.57 508.12 557.40
  Q 507.59 556.93 507.22 555.23
  Z"
/>
<path fill="#a46d45" d="
  M 506.09 552.89
  C 500.15 552.46 495.21 554.73 489.92 557.62
  Q 487.45 558.96 484.66 558.79
  L 494.52 530.85
  Q 494.83 529.96 495.24 530.81
  L 506.09 552.89
  Z"
/>
<path fill="#905439" d="
  M 490.81 534.85
  L 488.79 541.15
  Q 477.52 545.17 466.23 549.28
  Q 463.39 550.32 459.98 551.02
  A 0.51 0.51 0.0 0 1 459.41 550.34
  C 461.57 544.68 468.31 541.87 473.43 539.54
  Q 481.68 535.79 490.81 534.85
  Z"
/>
<path fill="#c18352" d="
  M 674.50 834.39
  Q 648.02 750.00 615.62 668.38
  Q 622.57 661.07 627.41 652.16
  Q 629.67 647.99 631.10 642.58
  Q 631.24 642.03 630.70 641.88
  Q 629.48 641.54 628.45 642.96
  Q 622.29 651.49 613.14 661.83
  L 587.17 598.83
  Q 592.72 590.91 592.73 581.65
  Q 592.73 569.77 590.16 557.11
  C 588.51 548.97 587.56 543.21 586.36 536.20
  C 593.31 552.50 599.51 569.04 605.93 585.56
  C 610.03 596.12 612.38 606.03 614.53 616.98
  C 615.05 619.66 617.14 622.48 619.62 623.76
  C 631.05 629.62 633.35 638.54 634.66 650.53
  Q 636.21 664.70 638.29 678.22
  Q 646.95 734.53 677.45 784.07
  Q 689.46 803.58 701.95 821.42
  A 1.36 1.35 -42.9 0 1 701.88 823.06
  Q 700.66 824.53 698.91 825.67
  Q 688.00 832.76 674.50 834.39
  Z"
/>
<path fill="#905439" d="
  M 506.09 552.89
  L 507.22 555.23
  Q 501.41 559.42 495.25 563.24
  Q 488.79 567.26 483.43 572.67
  Q 481.64 574.48 478.97 575.19
  L 484.66 558.79
  Q 487.45 558.96 489.92 557.62
  C 495.21 554.73 500.15 552.46 506.09 552.89
  Z"
/>
<path fill="#905439" d="
  M 481.44 562.23
  L 476.47 576.37
  Q 468.03 582.27 458.34 583.45
  A 0.84 0.84 0.0 0 1 457.48 582.24
  C 458.52 580.14 459.65 577.94 461.13 576.12
  C 466.12 569.98 473.54 563.98 481.44 562.23
  Z"
/>
<path fill="#905439" d="
  M 492.23 626.04
  Q 488.97 625.60 486.01 624.70
  Q 476.42 621.81 466.80 618.03
  A 0.74 0.73 -55.4 0 1 466.58 616.80
  C 479.73 604.95 491.46 591.66 501.03 576.86
  Q 505.02 570.69 508.98 564.73
  Q 510.76 562.06 512.19 564.94
  Q 513.47 567.54 514.87 570.36
  A 6.03 6.02 43.5 0 1 515.01 575.38
  Q 510.42 586.19 505.68 597.85
  C 501.86 607.26 497.46 616.39 493.18 625.53
  A 0.91 0.90 -72.9 0 1 492.23 626.04
  Z"
/>
<path fill="#c18352" d="
  M 585.11 598.90
  L 611.51 663.20
  C 605.65 671.47 596.67 680.66 599.84 691.66
  A 0.73 0.73 0.0 0 0 600.98 692.05
  C 607.01 687.56 611.59 678.23 614.45 671.29
  L 626.14 701.73
  L 624.53 703.30
  Q 624.17 703.65 624.13 704.15
  Q 621.90 731.40 607.99 754.24
  Q 605.63 758.13 604.70 760.20
  C 601.63 750.14 599.18 739.95 595.05 730.21
  C 592.92 725.20 590.67 722.94 586.04 718.42
  Q 578.98 711.52 574.86 702.37
  Q 553.29 654.55 532.01 606.84
  Q 539.19 602.88 545.40 603.36
  Q 557.97 604.33 570.52 603.63
  C 576.19 603.32 581.07 602.67 585.11 598.90
  Z"
/>
<path fill="#c18352" d="
  M 513.25 627.17
  Q 505.55 649.01 497.98 670.72
  Q 494.82 679.79 486.59 690.57
  Q 483.56 694.54 479.17 705.04
  C 472.33 721.44 467.91 735.53 461.53 755.97
  Q 458.53 765.57 455.72 775.13
  Q 446.86 805.16 437.26 834.61
  A 1.00 0.99 13.2 0 1 436.17 835.28
  Q 410.18 831.47 384.65 824.60
  L 397.66 795.23
  Q 400.60 795.23 401.72 794.22
  Q 407.52 789.01 414.55 783.03
  Q 425.38 773.82 434.53 762.67
  Q 441.62 754.03 445.70 746.58
  Q 450.80 737.25 455.67 724.76
  Q 462.54 707.14 468.88 692.41
  Q 468.89 692.38 468.86 692.37
  L 468.63 692.27
  Q 468.38 692.15 468.25 692.40
  Q 458.96 711.28 446.41 728.48
  C 437.60 740.57 426.38 750.93 414.87 760.91
  C 414.08 761.59 413.51 762.54 413.05 763.46
  A 0.75 0.75 0.0 0 1 412.25 763.86
  Q 411.86 763.79 411.63 763.20
  Q 421.85 738.74 432.49 714.44
  Q 434.71 709.37 436.29 703.44
  Q 439.91 689.79 444.71 676.43
  C 445.71 677.03 446.73 677.46 447.73 676.67
  Q 458.78 667.93 465.85 661.76
  Q 482.29 647.42 492.27 627.30
  Q 492.50 626.83 493.02 626.89
  Q 502.96 627.96 513.25 627.17
  Z"
/>
<path fill="#a46d45" d="
  M 615.62 668.38
  L 613.14 661.83
  Q 622.29 651.49 628.45 642.96
  Q 629.48 641.54 630.70 641.88
  Q 631.24 642.03 631.10 642.58
  Q 629.67 647.99 627.41 652.16
  Q 622.57 661.07 615.62 668.38
  Z"
/>
<path fill="#a46d45" d="
  M 611.51 663.20
  L 614.45 671.29
  C 611.59 678.23 607.01 687.56 600.98 692.05
  A 0.73 0.73 0.0 0 1 599.84 691.66
  C 596.67 680.66 605.65 671.47 611.51 663.20
  Z"
/>
<path fill="#c18352" d="
  M 440.88 681.04
  Q 436.97 692.03 434.14 703.38
  Q 432.82 708.68 430.87 713.11
  Q 420.35 736.96 410.07 760.90
  Q 408.34 764.94 407.02 767.58
  Q 399.77 770.37 392.25 776.75
  Q 386.22 781.87 384.07 786.71
  C 381.42 792.67 379.31 799.64 378.69 806.16
  Q 378.57 807.34 379.65 806.84
  L 392.87 800.70
  L 382.95 823.53
  Q 363.81 818.95 347.15 808.21
  Q 345.88 808.39 345.47 806.79
  A 1.14 1.11 -35.7 0 1 345.63 805.89
  Q 346.40 804.74 346.41 804.05
  Q 347.10 803.67 347.92 803.12
  Q 348.63 802.64 349.11 801.86
  Q 353.69 794.50 357.88 786.91
  Q 373.13 759.31 383.15 737.68
  Q 387.78 727.66 389.86 723.44
  L 390.18 724.66
  Q 390.33 725.23 390.81 724.88
  Q 394.95 721.83 397.44 718.80
  Q 412.09 700.97 430.89 687.90
  Q 435.85 684.45 440.88 681.04
  Z"
/>
<path fill="#a46d45" d="
  M 397.66 795.23
  L 411.63 763.20
  Q 411.86 763.79 412.25 763.86
  A 0.75 0.75 0.0 0 0 413.05 763.46
  C 413.51 762.54 414.08 761.59 414.87 760.91
  C 426.38 750.93 437.60 740.57 446.41 728.48
  Q 458.96 711.28 468.25 692.40
  Q 468.38 692.15 468.63 692.27
  L 468.86 692.37
  Q 468.89 692.38 468.88 692.41
  Q 462.54 707.14 455.67 724.76
  Q 450.80 737.25 445.70 746.58
  Q 441.62 754.03 434.53 762.67
  Q 425.38 773.82 414.55 783.03
  Q 407.52 789.01 401.72 794.22
  Q 400.60 795.23 397.66 795.23
  Z"
/>
<path fill="#a46d45" d="
  M 626.14 701.73
  L 629.32 709.90
  Q 630.16 715.05 631.62 720.08
  Q 633.46 726.40 634.08 730.20
  C 635.34 737.88 636.76 746.03 637.27 753.63
  Q 639.26 783.45 632.87 817.86
  Q 631.37 825.90 628.27 830.83
  Q 621.70 818.18 618.01 806.50
  Q 611.53 785.97 604.70 760.20
  Q 605.63 758.13 607.99 754.24
  Q 621.90 731.40 624.13 704.15
  Q 624.17 703.65 624.53 703.30
  L 626.14 701.73
  Z"
/>
<path fill="#c18352" d="
  M 629.32 709.90
  C 634.79 722.96 640.07 738.66 644.09 749.55
  Q 647.98 760.10 652.15 772.31
  Q 662.87 803.74 672.72 834.39
  A 0.55 0.54 77.6 0 1 672.27 835.10
  L 642.00 839.22
  Q 641.76 838.77 640.99 839.30
  L 634.61 840.02
  A 1.69 1.69 0.0 0 1 632.94 839.16
  L 628.27 830.83
  Q 631.37 825.90 632.87 817.86
  Q 639.26 783.45 637.27 753.63
  C 636.76 746.03 635.34 737.88 634.08 730.20
  Q 633.46 726.40 631.62 720.08
  Q 630.16 715.05 629.32 709.90
  Z"
/>
<path fill="#a46d45" d="
  M 407.02 767.58
  L 392.87 800.70
  L 379.65 806.84
  Q 378.57 807.34 378.69 806.16
  C 379.31 799.64 381.42 792.67 384.07 786.71
  Q 386.22 781.87 392.25 776.75
  Q 399.77 770.37 407.02 767.58
  Z"
/>
<path fill="#eac192" d="
  M 382.95 823.53
  Q 383.49 824.61 380.67 823.91
  Q 367.02 820.48 354.00 813.26
  Q 349.84 810.96 347.15 808.21
  Q 363.81 818.95 382.95 823.53
  Z"
/>
<path fill="#e7b179" d="
  M 642.00 839.22
  L 641.15 839.58
  Q 641.07 839.44 640.99 839.30
  Q 641.76 838.77 642.00 839.22
  Z"
/>
<path fill="#ead1bc" d="
  M 684.71 880.22
  Q 684.83 880.00 685.00 879.83
  Q 685.26 879.59 685.61 879.62
  C 687.16 879.75 688.19 879.11 689.76 879.14
  Q 714.84 879.69 738.10 881.19
  Q 738.26 881.20 738.27 881.35
  L 738.30 881.63
  A 0.45 0.44 86.1 0 1 737.89 882.11
  Q 713.96 884.15 691.98 884.93
  Q 642.24 886.69 588.13 887.51
  Q 546.58 888.15 468.00 888.05
  Q 393.12 887.96 331.01 886.00
  Q 318.08 885.59 303.95 884.29
  Q 300.70 884.00 297.35 883.29
  Q 296.87 883.18 296.56 882.83
  A 0.51 0.50 64.0 0 1 296.84 882.01
  Q 300.33 881.29 303.28 880.99
  Q 318.71 879.41 339.00 878.70
  Q 386.59 877.02 423.01 876.90
  Q 495.66 876.66 571.70 877.44
  C 575.57 877.48 580.64 877.14 583.83 878.32
  Q 587.78 879.77 591.41 880.31
  C 598.17 881.31 605.69 881.87 612.68 881.95
  Q 637.24 882.24 662.52 881.83
  Q 664.79 881.80 666.77 881.50
  Q 669.06 881.15 671.24 881.11
  Q 677.32 881.01 683.82 880.79
  A 1.05 1.03 -77.3 0 0 684.71 880.22
  Z"
/>
</svg>
