<?xml version="1.0" encoding="UTF-8" standalone="no"?>
<!DOCTYPE svg PUBLIC "-//W3C//DTD SVG 1.1//EN" "http://www.w3.org/Graphics/SVG/1.1/DTD/svg11.dtd">
<svg xmlns="http://www.w3.org/2000/svg" version="1.1" viewBox="0.00 0.00 1024.00 1024.00">
<g stroke-width="2.00" fill="none" stroke-linecap="butt">
<path stroke="#fad5c4" vector-effect="non-scaling-stroke" d="
  M 459.02 120.05
  Q 457.69 127.46 456.92 134.88
  C 456.63 137.72 455.88 140.80 458.02 143.17
  A 1.06 1.05 37.8 0 1 458.18 144.37
  Q 453.93 152.64 448.84 160.14
  A 1.93 1.92 29.9 0 0 449.61 162.96
  Q 452.73 164.45 456.66 164.85
  A 0.49 0.48 6.3 0 1 457.10 165.39
  Q 456.31 172.71 456.72 179.90
  C 456.91 183.08 455.68 186.14 455.86 189.21
  C 456.29 196.64 465.05 195.76 469.97 194.27
  C 473.36 193.24 476.76 192.41 480.10 191.19
  Q 482.11 190.46 483.19 192.86"
/>
<path stroke="#e8d4c4" vector-effect="non-scaling-stroke" d="
  M 483.19 192.86
  L 485.73 199.20"
/>
<path stroke="#fad5c4" vector-effect="non-scaling-stroke" d="
  M 485.73 199.20
  Q 486.50 207.42 488.78 215.16"
/>
<path stroke="#909597" vector-effect="non-scaling-stroke" d="
  M 488.78 215.16
  Q 486.24 215.56 484.43 217.39"
/>
<path stroke="#fad5c4" vector-effect="non-scaling-stroke" d="
  M 484.43 217.39
  Q 469.79 231.06 459.37 248.50"
/>
<path stroke="#909597" vector-effect="non-scaling-stroke" d="
  M 459.37 248.50
  Q 454.66 253.97 452.25 259.73
  Q 448.98 267.52 447.71 269.97
  Q 446.16 272.98 449.10 274.25"
/>
<path stroke="#faf1e4" vector-effect="non-scaling-stroke" d="
  M 449.10 274.25
  Q 446.00 285.47 443.97 289.19
  Q 434.90 305.80 427.49 322.94"
/>
<path stroke="#e8d4c4" vector-effect="non-scaling-stroke" d="
  M 427.49 322.94
  Q 414.39 354.58 403.66 386.93
  C 402.70 389.81 402.19 392.89 401.30 395.65
  Q 396.96 409.11 393.52 422.36
  Q 390.52 433.90 385.80 443.92
  Q 372.58 471.96 361.86 500.23
  C 353.55 522.16 345.68 543.28 339.31 565.53
  Q 336.81 574.28 335.27 583.31
  C 334.55 587.53 334.16 592.23 339.24 593.79
  Q 353.62 598.19 364.04 600.68"
/>
<path stroke="#faf1e4" vector-effect="non-scaling-stroke" d="
  M 364.04 600.68
  Q 364.56 600.96 364.42 602.28
  C 363.89 607.49 362.76 624.56 367.03 626.59
  Q 371.76 628.83 378.70 629.56
  Q 392.71 631.04 404.20 631.98
  A 2.48 2.47 -87.4 0 0 406.87 629.54
  L 406.91 625.95"
/>
<path stroke="#e8d4c4" vector-effect="non-scaling-stroke" d="
  M 406.91 625.95
  L 408.38 617.95"
/>
<path stroke="#aba19b" vector-effect="non-scaling-stroke" d="
  M 408.38 617.95
  L 422.88 618.61"
/>
<path stroke="#909597" vector-effect="non-scaling-stroke" d="
  M 422.88 618.61
  Q 420.55 629.37 417.19 639.98
  Q 411.94 656.51 407.62 671.58
  C 401.93 691.37 398.77 711.31 397.27 731.71
  C 396.20 746.24 394.75 760.43 390.03 773.76
  Q 375.69 814.22 361.50 856.94
  Q 358.28 866.60 354.60 876.12
  A 0.82 0.82 0.0 0 0 354.76 876.98
  Q 355.14 877.40 356.06 877.71"
/>
<path stroke="#fad5c4" vector-effect="non-scaling-stroke" d="
  M 356.06 877.71
  L 346.81 895.69"
/>
<path stroke="#909597" vector-effect="non-scaling-stroke" d="
  M 346.81 895.69
  Q 344.76 895.16 343.88 892.52
  A 1.29 1.28 79.4 0 0 342.61 891.65
  Q 318.84 892.59 295.70 893.89
  C 283.21 894.59 272.94 899.68 271.49 913.18
  Q 271.42 913.74 271.82 914.15
  Q 272.68 915.05 273.87 915.42
  Q 303.54 924.63 329.08 932.31
  Q 344.41 936.92 360.00 941.70"
/>
<path stroke="#f0efee" vector-effect="non-scaling-stroke" d="
  M 360.00 941.70
  Q 358.36 942.39 356.29 942.08
  Q 353.60 941.68 352.67 941.71
  C 340.43 942.09 326.73 943.09 315.44 943.59
  Q 291.07 944.68 266.49 946.59
  Q 251.54 947.75 237.01 950.70
  Q 236.20 950.86 235.65 951.48
  A 0.86 0.86 0.0 0 0 236.03 952.87
  Q 239.80 954.06 245.68 954.78
  Q 269.32 957.67 292.00 958.72
  Q 336.35 960.77 389.23 961.79
  Q 453.97 963.04 536.50 961.80
  Q 608.79 960.71 675.75 958.72
  Q 733.07 957.02 787.01 953.79
  Q 806.68 952.61 829.26 949.46
  Q 832.01 949.08 834.42 948.03
  Q 836.43 947.15 834.34 946.46
  Q 832.17 945.74 829.77 945.40
  Q 815.78 943.38 800.76 942.55
  Q 750.39 939.75 696.18 939.52
  C 693.82 939.51 691.89 940.27 689.68 940.94"
/>
<path stroke="#909597" vector-effect="non-scaling-stroke" d="
  M 689.68 940.94
  L 767.64 867.33
  A 0.63 0.62 45.3 0 0 767.64 866.42
  Q 753.30 852.97 740.12 839.01
  A 1.30 1.29 -42.6 0 0 738.30 838.94
  L 733.77 843.06"
/>
<path stroke="#fad5c4" vector-effect="non-scaling-stroke" d="
  M 733.77 843.06
  L 723.17 834.87"
/>
<path stroke="#909597" vector-effect="non-scaling-stroke" d="
  M 723.17 834.87
  Q 729.34 829.74 733.19 822.62
  C 733.97 821.18 733.82 820.07 733.03 818.75
  C 726.09 807.18 718.10 795.81 710.26 784.57
  Q 691.98 758.37 671.45 733.29
  C 664.52 724.82 656.43 716.85 650.03 708.70
  Q 630.38 683.74 612.11 661.98
  Q 611.63 661.41 611.45 660.68
  L 603.80 629.93"
/>
<path stroke="#faf1e4" vector-effect="non-scaling-stroke" d="
  M 603.80 629.93
  Q 606.08 628.91 607.75 628.89
  Q 628.07 628.64 648.58 627.82
  Q 649.76 627.77 649.58 626.60
  Q 644.40 593.15 639.19 559.62
  Q 639.18 559.55 636.61 541.35
  Q 635.09 530.55 633.31 521.89
  Q 631.65 513.80 633.76 505.88
  Q 638.22 489.19 642.78 472.34
  Q 651.68 439.41 658.56 407.28
  Q 661.06 395.56 658.61 385.11
  C 655.17 370.41 651.74 355.14 648.01 340.34
  Q 641.39 314.04 634.98 287.74
  Q 633.09 280.01 630.78 272.46
  C 627.12 260.53 617.42 251.82 606.90 245.26
  C 602.26 242.37 597.42 240.72 593.08 237.27
  C 585.07 230.90 577.01 225.31 567.98 220.65
  Q 567.15 220.22 565.35 219.67
  Q 563.85 219.20 562.77 218.44"
/>
<path stroke="#909597" vector-effect="non-scaling-stroke" d="
  M 562.77 218.44
  C 562.59 215.90 561.33 215.65 559.15 216.38"
/>
<path stroke="#faf1e4" vector-effect="non-scaling-stroke" d="
  M 559.15 216.38
  Q 558.87 216.31 558.53 216.17
  Q 558.21 216.04 557.99 215.75
  Q 552.71 208.53 546.88 201.18
  C 545.30 199.19 542.02 199.99 540.15 201.00
  Q 539.63 201.28 539.40 201.82
  Q 538.64 203.58 537.63 203.62"
/>
<path stroke="#909597" vector-effect="non-scaling-stroke" d="
  M 537.63 203.62
  C 535.75 197.34 532.93 187.07 523.96 192.82"
/>
<path stroke="#fad5c4" vector-effect="non-scaling-stroke" d="
  M 523.96 192.82
  Q 521.82 186.99 521.32 180.45"
/>
<path stroke="#909597" vector-effect="non-scaling-stroke" d="
  M 521.32 180.45
  C 521.57 170.80 524.58 162.70 529.60 154.33
  C 535.71 144.15 541.59 126.29 532.65 116.30
  Q 532.27 115.88 532.51 115.36
  C 533.65 112.90 535.03 110.96 535.68 108.27
  C 536.67 104.19 532.39 100.80 529.15 99.36
  C 517.53 94.15 504.86 95.34 493.19 93.32
  C 483.01 91.56 470.80 87.12 460.07 87.56
  C 448.48 88.04 442.42 97.62 445.83 108.35
  Q 448.64 117.15 459.02 120.05"
/>
<path stroke="#8d6d5e" vector-effect="non-scaling-stroke" d="
  M 521.32 180.45
  C 513.55 178.61 509.37 174.25 504.04 169.31
  A 0.33 0.33 0.0 0 1 504.14 168.77
  Q 508.63 166.86 511.61 162.26
  C 514.57 157.67 513.72 147.76 507.01 146.76
  C 500.07 145.72 498.88 149.16 495.90 153.88
  A 2.28 2.27 -60.1 0 1 492.92 154.69
  Q 491.01 153.70 490.53 151.25
  C 489.39 145.39 489.39 140.48 485.62 135.56
  C 482.45 131.42 486.36 126.20 488.58 122.70
  C 489.97 120.51 487.92 117.82 485.67 117.97
  Q 478.81 118.44 470.51 120.09
  Q 465.46 121.10 459.02 120.05"
/>
<path stroke="#8d6d5e" vector-effect="non-scaling-stroke" d="
  M 523.96 192.82
  L 493.71 219.73
  Q 492.30 220.98 491.68 219.21
  L 490.76 216.58
  A 1.14 1.10 5.6 0 0 490.24 215.97
  L 488.78 215.16"
/>
<path stroke="#e5ac8b" vector-effect="non-scaling-stroke" d="
  M 485.73 199.20
  C 488.44 200.42 491.48 200.44 493.70 198.25
  C 497.28 194.71 499.23 189.55 500.76 184.43
  Q 501.50 181.93 500.89 179.42
  A 0.64 0.64 0.0 0 0 499.78 179.17
  C 495.60 184.21 489.64 187.30 483.33 189.28
  Q 482.76 189.46 482.70 190.05
  Q 482.58 191.30 483.19 192.86"
/>
<path stroke="#8d887e" vector-effect="non-scaling-stroke" d="
  M 537.63 203.62
  L 504.36 238.45
  Q 504.01 238.81 504.13 239.30
  L 505.12 243.47"
/>
<path stroke="#909597" vector-effect="non-scaling-stroke" d="
  M 505.12 243.47
  C 504.75 251.21 502.31 258.73 501.47 266.25
  Q 499.20 286.67 498.34 298.77
  Q 493.54 366.51 491.15 434.51"
/>
<path stroke="#8d887e" vector-effect="non-scaling-stroke" d="
  M 491.15 434.51
  Q 488.02 535.93 488.00 637.47
  A 0.54 0.53 87.6 0 0 488.58 638.01
  L 492.88 637.65"
/>
<path stroke="#909597" vector-effect="non-scaling-stroke" d="
  M 492.88 637.65
  Q 484.23 672.13 476.15 692.38
  Q 468.91 710.51 461.62 728.91
  Q 458.43 736.98 455.45 751.78
  Q 453.62 760.85 446.20 781.92
  Q 441.03 796.60 433.84 814.64
  Q 421.79 844.91 401.46 894.01
  Q 401.23 894.57 400.66 894.35
  L 387.45 889.39"
/>
<path stroke="#8d6d5e" vector-effect="non-scaling-stroke" d="
  M 387.45 889.39
  L 356.06 877.71"
/>
<path stroke="#3e3935" vector-effect="non-scaling-stroke" d="
  M 422.88 618.61
  Q 423.59 615.64 424.48 612.72
  Q 425.52 609.32 426.04 606.85
  Q 435.16 563.45 443.45 521.25
  Q 446.57 505.40 448.93 489.20
  A 1.19 1.16 85.7 0 1 449.73 488.25
  L 472.42 480.84
  Q 474.03 480.31 472.33 480.36
  Q 466.26 480.53 459.75 480.94
  Q 448.02 481.68 436.45 482.20
  Q 436.07 482.22 435.97 481.85
  Q 435.92 481.66 435.83 481.45"
/>
<path stroke="#7b6c5e" vector-effect="non-scaling-stroke" d="
  M 435.83 481.45
  L 478.02 266.38"
/>
<path stroke="#8d6d5e" vector-effect="non-scaling-stroke" d="
  M 478.02 266.38
  Q 480.22 254.87 481.21 248.23
  Q 482.35 240.62 484.62 235.33
  Q 485.53 233.21 485.29 231.15
  Q 484.91 227.73 484.39 224.39
  Q 483.90 221.23 484.43 217.39"
/>
<path stroke="#fad5c4" vector-effect="non-scaling-stroke" d="
  M 696.23 855.86
  Q 701.30 861.76 706.05 867.03
  Q 705.92 867.36 706.90 867.61"
/>
<path stroke="#909597" vector-effect="non-scaling-stroke" d="
  M 706.90 867.61
  Q 705.41 868.95 703.89 870.24
  C 701.98 871.86 699.70 872.78 698.52 875.17
  Q 689.01 894.58 678.64 914.88
  C 674.75 922.49 672.27 929.98 674.59 938.82"
/>
<path stroke="#f0efee" vector-effect="non-scaling-stroke" d="
  M 674.59 938.82
  Q 544.43 937.24 414.50 939.47
  Q 408.28 939.57 386.79 940.35"
/>
<path stroke="#909597" vector-effect="non-scaling-stroke" d="
  M 386.79 940.35
  L 393.41 909.12
  A 0.95 0.94 13.8 0 0 392.74 908.02
  L 386.76 906.33"
/>
<path stroke="#fad5c4" vector-effect="non-scaling-stroke" d="
  M 386.76 906.33
  L 387.45 889.39"
/>
<path stroke="#8d6d5e" vector-effect="non-scaling-stroke" d="
  M 386.76 906.33
  L 346.81 895.69"
/>
<path stroke="#8d887e" vector-effect="non-scaling-stroke" d="
  M 559.15 216.38
  Q 560.65 218.82 559.49 222.75
  Q 558.17 227.28 557.61 228.57
  Q 548.56 249.79 537.58 271.51
  Q 537.24 272.18 536.88 271.52
  Q 527.28 253.72 509.80 242.15
  Q 508.24 241.12 506.39 240.80
  Q 505.86 240.71 505.86 241.25
  Q 505.87 242.16 505.58 243.00"
/>
<path stroke="#faf1e4" vector-effect="non-scaling-stroke" d="
  M 505.58 243.00
  Q 505.03 242.87 505.12 243.47"
/>
<path stroke="#8d887e" vector-effect="non-scaling-stroke" d="
  M 603.80 629.93
  L 532.32 634.95"
/>
<path stroke="#faf1e4" vector-effect="non-scaling-stroke" d="
  M 532.32 634.95
  L 492.88 637.65"
/>
<path stroke="#faf1e4" vector-effect="non-scaling-stroke" d="
  M 491.15 434.51
  Q 493.53 433.92 495.35 431.47"
/>
<path stroke="#8d887e" vector-effect="non-scaling-stroke" d="
  M 495.35 431.47
  Q 496.27 431.85 496.35 431.23
  Q 502.18 386.27 514.59 339.87
  C 518.19 326.45 521.78 313.61 527.73 301.79
  C 528.50 300.26 528.20 298.44 526.81 297.38"
/>
<path stroke="#faf1e4" vector-effect="non-scaling-stroke" d="
  M 526.81 297.38
  L 527.39 292.12"
/>
<path stroke="#f7c9aa" vector-effect="non-scaling-stroke" d="
  M 530.48 290.92
  Q 531.17 291.30 531.89 290.80
  Q 532.42 290.42 532.61 289.77
  C 533.60 286.34 531.39 282.72 529.52 279.89
  Q 526.08 274.69 522.45 269.73
  Q 520.47 267.04 521.20 264.32
  Q 522.18 260.67 520.70 257.63
  Q 520.37 256.94 519.93 256.25
  Q 519.10 254.91 520.42 254.20"
/>
<path stroke="#e5ac8b" vector-effect="non-scaling-stroke" d="
  M 478.02 266.38
  Q 475.94 263.65 476.94 259.89
  Q 478.66 253.39 478.93 247.30
  Q 478.95 246.74 478.41 246.63
  Q 478.02 246.55 477.61 246.59
  Q 477.08 246.64 476.76 247.07
  L 474.53 250.11"
/>
<path stroke="#8d6d5e" vector-effect="non-scaling-stroke" d="
  M 474.53 250.11
  Q 475.78 245.56 471.33 244.91
  Q 465.61 244.07 459.37 248.50"
/>
<path stroke="#909597" vector-effect="non-scaling-stroke" d="
  M 526.81 297.38
  Q 525.38 299.57 524.37 301.88
  Q 519.42 313.21 516.12 324.06
  Q 506.43 355.97 499.15 395.48
  Q 496.69 408.83 495.55 420.00
  Q 494.96 425.84 495.35 431.47"
/>
<path stroke="#967862" vector-effect="non-scaling-stroke" d="
  M 435.83 481.45
  L 408.38 617.95"
/>
<path stroke="#e5c8ab" vector-effect="non-scaling-stroke" d="
  M 406.91 625.95
  L 405.86 629.52
  A 0.94 0.93 -69.4 0 1 404.58 630.10
  Q 400.91 628.47 396.83 628.14
  A 1.26 1.26 0.0 0 1 395.71 626.59
  Q 401.79 601.14 407.18 577.03
  Q 410.64 561.54 414.19 546.24
  Q 417.52 531.86 420.35 518.08
  C 421.31 513.43 422.64 508.92 423.61 504.30
  Q 425.63 494.64 427.53 484.64
  C 428.86 477.68 430.74 470.84 432.00 463.79
  C 432.50 460.98 433.58 457.98 434.05 455.25
  Q 435.79 445.03 438.35 434.56
  Q 439.10 431.52 439.56 428.55
  C 440.36 423.43 441.90 418.44 442.69 413.50
  Q 444.13 404.43 446.18 395.64
  Q 447.15 391.47 447.93 387.40
  C 449.21 380.67 450.68 374.08 451.83 367.15
  C 452.96 360.30 454.57 353.59 455.82 346.77
  C 457.36 338.36 459.13 330.54 460.28 321.61
  Q 460.47 320.06 460.94 318.34
  Q 461.38 316.73 461.69 315.09
  Q 464.35 300.96 467.52 282.99
  Q 467.94 280.61 468.53 277.48"
/>
<path stroke="#838788" vector-effect="non-scaling-stroke" d="
  M 689.68 940.94
  Q 687.64 942.86 685.61 944.89
  Q 682.25 948.24 679.06 944.70
  Q 675.58 940.82 674.59 938.82"
/>
<path stroke="#838788" vector-effect="non-scaling-stroke" d="
  M 386.79 940.35
  L 385.09 948.71
  A 0.55 0.54 14.2 0 1 384.40 949.12
  L 360.00 941.70"
/>
<path stroke="#8d6d5e" vector-effect="non-scaling-stroke" d="
  M 733.77 843.06
  L 706.90 867.61"
/>
<path stroke="#8d6d5e" vector-effect="non-scaling-stroke" d="
  M 723.17 834.87
  Q 710.52 846.17 696.23 855.86"
/>
<path stroke="#909597" vector-effect="non-scaling-stroke" d="
  M 696.23 855.86
  L 692.39 859.20
  A 0.88 0.88 0.0 0 1 691.10 859.03
  Q 673.57 833.54 655.01 811.20
  C 646.95 801.50 637.87 792.23 628.90 783.21
  Q 621.89 776.15 616.01 769.35
  Q 595.92 746.12 567.44 712.27
  Q 560.55 704.08 557.01 697.76
  Q 552.39 689.55 547.85 678.17
  Q 539.39 657.02 532.32 634.95"
/>
<path stroke="#8d887e" vector-effect="non-scaling-stroke" d="
  M 562.77 218.44
  Q 562.70 222.70 561.27 226.50
  C 554.90 243.53 546.32 260.32 538.29 276.91
  A 0.87 0.86 -45.6 0 1 536.74 276.93
  Q 530.28 264.24 520.42 254.20"
/>
<path stroke="#8d6d5e" vector-effect="non-scaling-stroke" d="
  M 520.42 254.20
  Q 515.48 248.74 509.15 245.13
  Q 508.61 244.82 508.84 245.40
  Q 512.38 254.73 509.97 263.48
  Q 509.83 264.00 510.16 264.43
  L 530.48 290.92"
/>
<path stroke="#8d887e" vector-effect="non-scaling-stroke" d="
  M 530.48 290.92
  Q 528.73 293.79 527.39 292.12"
/>
<path stroke="#909597" vector-effect="non-scaling-stroke" d="
  M 527.39 292.12
  Q 517.82 279.12 508.08 266.16
  Q 507.11 264.87 506.86 263.29
  Q 506.78 262.80 507.05 262.38
  C 509.61 258.38 507.03 247.90 505.58 243.00"
/>
<path stroke="#7b6c5e" vector-effect="non-scaling-stroke" d="
  M 474.53 250.11
  Q 473.40 255.83 474.72 261.74
  C 475.29 264.29 475.28 266.68 474.34 268.81
  Q 472.22 273.61 468.53 277.48"
/>
<path stroke="#8d887e" vector-effect="non-scaling-stroke" d="
  M 468.53 277.48
  L 448.58 291.34
  A 0.76 0.76 0.0 0 1 447.41 290.55
  C 448.39 286.30 457.70 281.18 461.36 279.01
  Q 467.17 275.56 470.64 269.76
  C 472.08 267.35 472.32 264.51 471.93 261.79
  Q 470.93 255.00 471.68 249.12
  A 1.28 1.28 0.0 0 0 470.44 247.67
  Q 463.73 247.56 459.46 253.45
  Q 455.32 259.17 452.91 265.70
  A 0.12 0.11 79.4 0 0 453.09 265.83
  L 462.89 256.25
  Q 463.55 255.60 463.79 256.50
  Q 464.02 257.37 462.70 258.96
  Q 456.05 266.93 449.10 274.25"
/>
<path stroke="#e5c8ab" vector-effect="non-scaling-stroke" d="
  M 364.04 600.68
  Q 365.14 598.14 365.48 594.68
  Q 366.06 588.64 366.07 588.58
  Q 369.65 564.55 373.85 545.07
  Q 382.84 503.42 395.28 457.84
  Q 398.01 447.87 400.44 438.49
  Q 406.40 415.50 412.47 394.06
  Q 415.18 384.49 417.77 374.79
  Q 421.76 359.91 426.45 343.92
  C 427.76 339.45 428.48 334.89 429.68 330.53
  C 430.51 327.51 429.37 324.92 429.68 321.89
  Q 429.75 321.19 429.06 321.32
  Q 428.75 321.37 428.61 321.64
  Q 427.96 322.85 427.49 322.94"
/>
<path stroke="#8d6d5e" vector-effect="non-scaling-stroke" d="
  M 471.1932 146.2896
  A 1.56 1.56 0.0 0 0 470.0176 144.4228
  L 461.2802 142.4377
  A 1.56 1.56 0.0 0 0 459.4134 143.6133
  L 459.3868 143.7304
  A 1.56 1.56 0.0 0 0 460.5624 145.5972
  L 469.2998 147.5823
  A 1.56 1.56 0.0 0 0 471.1666 146.4067
  L 471.1932 146.2896"
/>
<path stroke="#8d887e" vector-effect="non-scaling-stroke" d="
  M 542.75 307.52
  A 5.30 5.30 0.0 0 0 537.45 302.22
  A 5.30 5.30 0.0 0 0 532.15 307.52
  A 5.30 5.30 0.0 0 0 537.45 312.82
  A 5.30 5.30 0.0 0 0 542.75 307.52"
/>
<path stroke="#e5c8ab" vector-effect="non-scaling-stroke" d="
  M 589.33 373.59
  L 593.83 373.93
  A 1.02 1.00 27.5 0 0 594.54 373.71
  L 594.97 373.34
  A 0.36 0.36 0.0 0 0 594.79 372.71
  Q 585.32 371.38 579.32 363.95
  C 572.92 356.03 571.98 346.69 573.27 336.29
  Q 573.62 333.47 573.38 330.44
  Q 573.32 329.68 572.57 329.82
  C 565.27 331.23 566.45 352.52 567.24 357.68
  C 567.90 361.98 569.64 366.42 568.85 370.62
  C 566.83 381.29 565.34 391.08 565.68 402.34
  Q 566.02 413.48 572.49 422.06
  C 575.32 425.81 579.00 429.13 578.61 434.28
  C 577.96 443.06 577.15 452.58 578.81 460.98
  C 579.82 466.10 583.03 470.72 585.47 475.30
  Q 586.02 476.33 586.29 475.19
  C 591.76 452.33 597.20 429.52 604.42 407.81
  A 2.48 2.47 -64.7 0 0 603.40 404.95
  Q 599.46 402.44 596.26 400.11
  C 588.60 394.55 587.28 383.70 587.94 374.79
  A 1.30 1.30 0.0 0 1 589.33 373.59"
/>
<path stroke="#8d887e" vector-effect="non-scaling-stroke" d="
  M 551.62 446.36
  A 5.32 5.32 0.0 0 0 546.30 441.04
  A 5.32 5.32 0.0 0 0 540.98 446.36
  A 5.32 5.32 0.0 0 0 546.30 451.68
  A 5.32 5.32 0.0 0 0 551.62 446.36"
/>
<path stroke="#a89582" vector-effect="non-scaling-stroke" d="
  M 582.93 526.10
  L 581.39 531.17
  Q 581.22 531.72 581.75 531.93
  L 584.30 532.95"
/>
<path stroke="#f7c9aa" vector-effect="non-scaling-stroke" d="
  M 584.30 532.95
  Q 576.51 541.77 574.47 545.47
  Q 572.87 548.36 573.12 551.21
  Q 574.04 561.85 574.07 573.65
  A 1.38 1.36 -71.1 0 0 574.59 574.73
  Q 575.73 575.61 577.23 576.03
  A 0.72 0.72 0.0 0 1 577.75 576.71
  L 577.88 583.20"
/>
<path stroke="#e5c8ab" vector-effect="non-scaling-stroke" d="
  M 577.88 583.20
  C 578.12 585.91 579.41 589.35 582.54 589.69
  Q 586.18 590.08 588.80 588.41
  Q 590.75 587.16 592.10 586.83
  Q 599.29 585.07 606.55 582.63"
/>
<path stroke="#f7c9aa" vector-effect="non-scaling-stroke" d="
  M 606.55 582.63
  Q 609.20 581.96 612.20 581.69
  Q 614.04 581.53 615.20 580.34
  Q 616.09 579.42 616.19 577.53
  Q 616.73 567.48 616.97 558.50
  Q 617.13 552.33 618.77 543.29"
/>
<path stroke="#a89582" vector-effect="non-scaling-stroke" d="
  M 618.77 543.29
  L 620.02 540.12
  Q 620.28 539.46 620.97 539.63
  Q 622.25 539.94 623.43 540.82
  Q 623.87 541.15 623.87 540.60
  Q 623.87 540.18 623.51 539.28"
/>
<path stroke="#e5c8ab" vector-effect="non-scaling-stroke" d="
  M 623.51 539.28
  L 625.08 527.27
  A 1.13 1.13 0.0 0 0 623.46 526.11
  L 622.50 526.58
  A 0.97 0.96 77.5 0 1 621.11 525.69
  Q 621.18 522.05 618.48 519.36
  Q 617.41 518.30 617.62 519.79
  L 618.44 525.71
  A 1.03 1.02 -9.4 0 1 617.61 526.86
  C 612.80 527.72 608.60 524.66 605.58 521.34
  C 596.60 511.50 587.97 501.07 581.67 489.56
  Q 580.97 488.28 580.76 489.73
  L 575.88 522.65
  Q 575.64 524.24 577.20 524.64
  L 582.93 526.10"
/>
<path stroke="#967862" vector-effect="non-scaling-stroke" d="
  M 623.51 539.28
  L 582.93 526.10"
/>
<path stroke="#a77962" vector-effect="non-scaling-stroke" d="
  M 618.77 543.29
  L 584.30 532.95"
/>
<path stroke="#e5ac8b" vector-effect="non-scaling-stroke" d="
  M 606.55 582.63
  Q 605.65 581.65 603.35 582.80
  Q 601.47 583.75 601.10 581.67
  Q 600.96 580.94 601.32 579.02
  Q 601.36 578.76 601.11 578.72
  L 600.78 578.68
  Q 600.63 578.66 600.57 578.80
  Q 599.95 580.45 600.16 582.29
  Q 600.33 583.75 598.89 584.02
  L 594.02 584.94
  Q 592.74 585.18 592.73 583.88
  Q 592.71 581.93 592.16 579.94
  Q 592.13 579.86 592.05 579.87
  L 591.71 579.94
  Q 591.56 579.98 591.57 580.13
  L 591.87 584.30
  Q 591.93 585.07 591.27 585.46
  C 586.23 588.49 581.04 588.85 578.40 582.44
  A 0.21 0.20 -51.7 0 0 578.01 582.49
  L 577.88 583.20"
/>
<path stroke="#8d887e" vector-effect="non-scaling-stroke" d="
  M 542.34 584.04
  A 5.31 5.31 0.0 0 0 537.03 578.73
  A 5.31 5.31 0.0 0 0 531.72 584.04
  A 5.31 5.31 0.0 0 0 537.03 589.35
  A 5.31 5.31 0.0 0 0 542.34 584.04"
/>
<path stroke="#8d887e" vector-effect="non-scaling-stroke" d="
  M 446.24 292.87
  Q 446.10 293.32 446.49 293.59
  Q 446.60 293.66 446.67 293.55
  Q 446.90 293.23 446.73 292.85
  A 0.26 0.26 0.0 0 0 446.24 292.87"
/>
<path stroke="#909597" vector-effect="non-scaling-stroke" d="
  M 711.78 906.07
  Q 700.67 914.12 694.15 920.51
  Q 686.16 928.34 678.32 936.71
  A 0.59 0.59 0.0 0 0 678.27 937.45
  L 678.52 937.80
  A 0.69 0.69 0.0 0 0 679.56 937.89
  Q 686.01 931.68 691.98 925.67
  Q 701.85 915.74 713.23 907.61
  C 715.31 906.12 717.60 903.58 719.20 901.57
  Q 736.41 879.91 755.17 860.77
  Q 756.08 859.84 756.64 858.46
  Q 756.82 858.00 756.18 857.70
  A 0.67 0.66 -54.4 0 0 755.44 857.83
  Q 744.52 868.53 734.53 880.10
  Q 725.47 890.58 716.93 901.00
  C 715.42 902.84 713.71 904.68 711.78 906.07"
/>
<path stroke="#909597" vector-effect="non-scaling-stroke" d="
  M 278.33 907.57
  Q 289.09 910.46 299.42 913.34
  C 307.02 915.46 314.09 918.94 321.29 922.07
  Q 323.21 922.91 325.24 923.19
  Q 355.16 927.33 385.90 934.03
  A 0.71 0.70 -56.4 0 0 386.47 933.91
  Q 387.66 933.04 385.95 932.56
  C 366.33 927.09 346.26 924.00 325.71 921.24
  Q 323.58 920.95 321.82 920.07
  Q 310.26 914.27 300.29 911.37
  Q 290.39 908.50 279.79 905.74
  Q 278.79 905.48 278.00 906.15
  Q 277.80 906.32 277.74 906.57
  Q 277.54 907.36 278.33 907.57"
/>
</g>
<path fill="#fdfdfd" d="
  M 1024.00 0.00
  L 1024.00 1024.00
  L 0.00 1024.00
  L 0.00 0.00
  L 1024.00 0.00
  Z
  M 459.02 120.05
  Q 457.69 127.46 456.92 134.88
  C 456.63 137.72 455.88 140.80 458.02 143.17
  A 1.06 1.05 37.8 0 1 458.18 144.37
  Q 453.93 152.64 448.84 160.14
  A 1.93 1.92 29.9 0 0 449.61 162.96
  Q 452.73 164.45 456.66 164.85
  A 0.49 0.48 6.3 0 1 457.10 165.39
  Q 456.31 172.71 456.72 179.90
  C 456.91 183.08 455.68 186.14 455.86 189.21
  C 456.29 196.64 465.05 195.76 469.97 194.27
  C 473.36 193.24 476.76 192.41 480.10 191.19
  Q 482.11 190.46 483.19 192.86
  L 485.73 199.20
  Q 486.50 207.42 488.78 215.16
  Q 486.24 215.56 484.43 217.39
  Q 469.79 231.06 459.37 248.50
  Q 454.66 253.97 452.25 259.73
  Q 448.98 267.52 447.71 269.97
  Q 446.16 272.98 449.10 274.25
  Q 446.00 285.47 443.97 289.19
  Q 434.90 305.80 427.49 322.94
  Q 414.39 354.58 403.66 386.93
  C 402.70 389.81 402.19 392.89 401.30 395.65
  Q 396.96 409.11 393.52 422.36
  Q 390.52 433.90 385.80 443.92
  Q 372.58 471.96 361.86 500.23
  C 353.55 522.16 345.68 543.28 339.31 565.53
  Q 336.81 574.28 335.27 583.31
  C 334.55 587.53 334.16 592.23 339.24 593.79
  Q 353.62 598.19 364.04 600.68
  Q 364.56 600.96 364.42 602.28
  C 363.89 607.49 362.76 624.56 367.03 626.59
  Q 371.76 628.83 378.70 629.56
  Q 392.71 631.04 404.20 631.98
  A 2.48 2.47 -87.4 0 0 406.87 629.54
  L 406.91 625.95
  L 408.38 617.95
  L 422.88 618.61
  Q 420.55 629.37 417.19 639.98
  Q 411.94 656.51 407.62 671.58
  C 401.93 691.37 398.77 711.31 397.27 731.71
  C 396.20 746.24 394.75 760.43 390.03 773.76
  Q 375.69 814.22 361.50 856.94
  Q 358.28 866.60 354.60 876.12
  A 0.82 0.82 0.0 0 0 354.76 876.98
  Q 355.14 877.40 356.06 877.71
  L 346.81 895.69
  Q 344.76 895.16 343.88 892.52
  A 1.29 1.28 79.4 0 0 342.61 891.65
  Q 318.84 892.59 295.70 893.89
  C 283.21 894.59 272.94 899.68 271.49 913.18
  Q 271.42 913.74 271.82 914.15
  Q 272.68 915.05 273.87 915.42
  Q 303.54 924.63 329.08 932.31
  Q 344.41 936.92 360.00 941.70
  Q 358.36 942.39 356.29 942.08
  Q 353.60 941.68 352.67 941.71
  C 340.43 942.09 326.73 943.09 315.44 943.59
  Q 291.07 944.68 266.49 946.59
  Q 251.54 947.75 237.01 950.70
  Q 236.20 950.86 235.65 951.48
  A 0.86 0.86 0.0 0 0 236.03 952.87
  Q 239.80 954.06 245.68 954.78
  Q 269.32 957.67 292.00 958.72
  Q 336.35 960.77 389.23 961.79
  Q 453.97 963.04 536.50 961.80
  Q 608.79 960.71 675.75 958.72
  Q 733.07 957.02 787.01 953.79
  Q 806.68 952.61 829.26 949.46
  Q 832.01 949.08 834.42 948.03
  Q 836.43 947.15 834.34 946.46
  Q 832.17 945.74 829.77 945.40
  Q 815.78 943.38 800.76 942.55
  Q 750.39 939.75 696.18 939.52
  C 693.82 939.51 691.89 940.27 689.68 940.94
  L 767.64 867.33
  A 0.63 0.62 45.3 0 0 767.64 866.42
  Q 753.30 852.97 740.12 839.01
  A 1.30 1.29 -42.6 0 0 738.30 838.94
  L 733.77 843.06
  L 723.17 834.87
  Q 729.34 829.74 733.19 822.62
  C 733.97 821.18 733.82 820.07 733.03 818.75
  C 726.09 807.18 718.10 795.81 710.26 784.57
  Q 691.98 758.37 671.45 733.29
  C 664.52 724.82 656.43 716.85 650.03 708.70
  Q 630.38 683.74 612.11 661.98
  Q 611.63 661.41 611.45 660.68
  L 603.80 629.93
  Q 606.08 628.91 607.75 628.89
  Q 628.07 628.64 648.58 627.82
  Q 649.76 627.77 649.58 626.60
  Q 644.40 593.15 639.19 559.62
  Q 639.18 559.55 636.61 541.35
  Q 635.09 530.55 633.31 521.89
  Q 631.65 513.80 633.76 505.88
  Q 638.22 489.19 642.78 472.34
  Q 651.68 439.41 658.56 407.28
  Q 661.06 395.56 658.61 385.11
  C 655.17 370.41 651.74 355.14 648.01 340.34
  Q 641.39 314.04 634.98 287.74
  Q 633.09 280.01 630.78 272.46
  C 627.12 260.53 617.42 251.82 606.90 245.26
  C 602.26 242.37 597.42 240.72 593.08 237.27
  C 585.07 230.90 577.01 225.31 567.98 220.65
  Q 567.15 220.22 565.35 219.67
  Q 563.85 219.20 562.77 218.44
  C 562.59 215.90 561.33 215.65 559.15 216.38
  Q 558.87 216.31 558.53 216.17
  Q 558.21 216.04 557.99 215.75
  Q 552.71 208.53 546.88 201.18
  C 545.30 199.19 542.02 199.99 540.15 201.00
  Q 539.63 201.28 539.40 201.82
  Q 538.64 203.58 537.63 203.62
  C 535.75 197.34 532.93 187.07 523.96 192.82
  Q 521.82 186.99 521.32 180.45
  C 521.57 170.80 524.58 162.70 529.60 154.33
  C 535.71 144.15 541.59 126.29 532.65 116.30
  Q 532.27 115.88 532.51 115.36
  C 533.65 112.90 535.03 110.96 535.68 108.27
  C 536.67 104.19 532.39 100.80 529.15 99.36
  C 517.53 94.15 504.86 95.34 493.19 93.32
  C 483.01 91.56 470.80 87.12 460.07 87.56
  C 448.48 88.04 442.42 97.62 445.83 108.35
  Q 448.64 117.15 459.02 120.05
  Z"
/>
<path fill="#232c31" d="
  M 521.32 180.45
  C 513.55 178.61 509.37 174.25 504.04 169.31
  A 0.33 0.33 0.0 0 1 504.14 168.77
  Q 508.63 166.86 511.61 162.26
  C 514.57 157.67 513.72 147.76 507.01 146.76
  C 500.07 145.72 498.88 149.16 495.90 153.88
  A 2.28 2.27 -60.1 0 1 492.92 154.69
  Q 491.01 153.70 490.53 151.25
  C 489.39 145.39 489.39 140.48 485.62 135.56
  C 482.45 131.42 486.36 126.20 488.58 122.70
  C 489.97 120.51 487.92 117.82 485.67 117.97
  Q 478.81 118.44 470.51 120.09
  Q 465.46 121.10 459.02 120.05
  Q 448.64 117.15 445.83 108.35
  C 442.42 97.62 448.48 88.04 460.07 87.56
  C 470.80 87.12 483.01 91.56 493.19 93.32
  C 504.86 95.34 517.53 94.15 529.15 99.36
  C 532.39 100.80 536.67 104.19 535.68 108.27
  C 535.03 110.96 533.65 112.90 532.51 115.36
  Q 532.27 115.88 532.65 116.30
  C 541.59 126.29 535.71 144.15 529.60 154.33
  C 524.58 162.70 521.57 170.80 521.32 180.45
  Z"
/>
<path fill="#f6ad8a" d="
  M 521.32 180.45
  Q 521.82 186.99 523.96 192.82
  L 493.71 219.73
  Q 492.30 220.98 491.68 219.21
  L 490.76 216.58
  A 1.14 1.10 5.6 0 0 490.24 215.97
  L 488.78 215.16
  Q 486.50 207.42 485.73 199.20
  C 488.44 200.42 491.48 200.44 493.70 198.25
  C 497.28 194.71 499.23 189.55 500.76 184.43
  Q 501.50 181.93 500.89 179.42
  A 0.64 0.64 0.0 0 0 499.78 179.17
  C 495.60 184.21 489.64 187.30 483.33 189.28
  Q 482.76 189.46 482.70 190.05
  Q 482.58 191.30 483.19 192.86
  Q 482.11 190.46 480.10 191.19
  C 476.76 192.41 473.36 193.24 469.97 194.27
  C 465.05 195.76 456.29 196.64 455.86 189.21
  C 455.68 186.14 456.91 183.08 456.72 179.90
  Q 456.31 172.71 457.10 165.39
  A 0.49 0.48 6.3 0 0 456.66 164.85
  Q 452.73 164.45 449.61 162.96
  A 1.93 1.92 29.9 0 1 448.84 160.14
  Q 453.93 152.64 458.18 144.37
  A 1.06 1.05 37.8 0 0 458.02 143.17
  C 455.88 140.80 456.63 137.72 456.92 134.88
  Q 457.69 127.46 459.02 120.05
  Q 465.46 121.10 470.51 120.09
  Q 478.81 118.44 485.67 117.97
  C 487.92 117.82 489.97 120.51 488.58 122.70
  C 486.36 126.20 482.45 131.42 485.62 135.56
  C 489.39 140.48 489.39 145.39 490.53 151.25
  Q 491.01 153.70 492.92 154.69
  A 2.28 2.27 -60.1 0 0 495.90 153.88
  C 498.88 149.16 500.07 145.72 507.01 146.76
  C 513.72 147.76 514.57 157.67 511.61 162.26
  Q 508.63 166.86 504.14 168.77
  A 0.33 0.33 0.0 0 0 504.04 169.31
  C 509.37 174.25 513.55 178.61 521.32 180.45
  Z
  M 471.1932 146.2896
  A 1.56 1.56 0.0 0 0 470.0176 144.4228
  L 461.2802 142.4377
  A 1.56 1.56 0.0 0 0 459.4134 143.6133
  L 459.3868 143.7304
  A 1.56 1.56 0.0 0 0 460.5624 145.5972
  L 469.2998 147.5823
  A 1.56 1.56 0.0 0 0 471.1666 146.4067
  L 471.1932 146.2896
  Z"
/>
<rect fill="#232c31" x="-6.04" y="-1.62" transform="translate(465.29,145.01) rotate(12.8)" width="12.08" height="3.24" rx="1.56"/>
<path fill="#d3ab8b" d="
  M 485.73 199.20
  L 483.19 192.86
  Q 482.58 191.30 482.70 190.05
  Q 482.76 189.46 483.33 189.28
  C 489.64 187.30 495.60 184.21 499.78 179.17
  A 0.64 0.64 0.0 0 1 500.89 179.42
  Q 501.50 181.93 500.76 184.43
  C 499.23 189.55 497.28 194.71 493.70 198.25
  C 491.48 200.44 488.44 200.42 485.73 199.20
  Z"
/>
<path fill="#232c31" d="
  M 537.63 203.62
  L 504.36 238.45
  Q 504.01 238.81 504.13 239.30
  L 505.12 243.47
  C 504.75 251.21 502.31 258.73 501.47 266.25
  Q 499.20 286.67 498.34 298.77
  Q 493.54 366.51 491.15 434.51
  Q 488.02 535.93 488.00 637.47
  A 0.54 0.53 87.6 0 0 488.58 638.01
  L 492.88 637.65
  Q 484.23 672.13 476.15 692.38
  Q 468.91 710.51 461.62 728.91
  Q 458.43 736.98 455.45 751.78
  Q 453.62 760.85 446.20 781.92
  Q 441.03 796.60 433.84 814.64
  Q 421.79 844.91 401.46 894.01
  Q 401.23 894.57 400.66 894.35
  L 387.45 889.39
  L 356.06 877.71
  Q 355.14 877.40 354.76 876.98
  A 0.82 0.82 0.0 0 1 354.60 876.12
  Q 358.28 866.60 361.50 856.94
  Q 375.69 814.22 390.03 773.76
  C 394.75 760.43 396.20 746.24 397.27 731.71
  C 398.77 711.31 401.93 691.37 407.62 671.58
  Q 411.94 656.51 417.19 639.98
  Q 420.55 629.37 422.88 618.61
  Q 423.59 615.64 424.48 612.72
  Q 425.52 609.32 426.04 606.85
  Q 435.16 563.45 443.45 521.25
  Q 446.57 505.40 448.93 489.20
  A 1.19 1.16 85.7 0 1 449.73 488.25
  L 472.42 480.84
  Q 474.03 480.31 472.33 480.36
  Q 466.26 480.53 459.75 480.94
  Q 448.02 481.68 436.45 482.20
  Q 436.07 482.22 435.97 481.85
  Q 435.92 481.66 435.83 481.45
  L 478.02 266.38
  Q 480.22 254.87 481.21 248.23
  Q 482.35 240.62 484.62 235.33
  Q 485.53 233.21 485.29 231.15
  Q 484.91 227.73 484.39 224.39
  Q 483.90 221.23 484.43 217.39
  Q 486.24 215.56 488.78 215.16
  L 490.24 215.97
  A 1.14 1.10 5.6 0 1 490.76 216.58
  L 491.68 219.21
  Q 492.30 220.98 493.71 219.73
  L 523.96 192.82
  C 532.93 187.07 535.75 197.34 537.63 203.62
  Z"
/>
<path fill="#f7e4ca" d="
  M 559.15 216.38
  Q 560.65 218.82 559.49 222.75
  Q 558.17 227.28 557.61 228.57
  Q 548.56 249.79 537.58 271.51
  Q 537.24 272.18 536.88 271.52
  Q 527.28 253.72 509.80 242.15
  Q 508.24 241.12 506.39 240.80
  Q 505.86 240.71 505.86 241.25
  Q 505.87 242.16 505.58 243.00
  Q 505.03 242.87 505.12 243.47
  L 504.13 239.30
  Q 504.01 238.81 504.36 238.45
  L 537.63 203.62
  Q 538.64 203.58 539.40 201.82
  Q 539.63 201.28 540.15 201.00
  C 542.02 199.99 545.30 199.19 546.88 201.18
  Q 552.71 208.53 557.99 215.75
  Q 558.21 216.04 558.53 216.17
  Q 558.87 216.31 559.15 216.38
  Z"
/>
<path fill="#232c31" d="
  M 562.77 218.44
  Q 562.70 222.70 561.27 226.50
  C 554.90 243.53 546.32 260.32 538.29 276.91
  A 0.87 0.86 -45.6 0 1 536.74 276.93
  Q 530.28 264.24 520.42 254.20
  Q 515.48 248.74 509.15 245.13
  Q 508.61 244.82 508.84 245.40
  Q 512.38 254.73 509.97 263.48
  Q 509.83 264.00 510.16 264.43
  L 530.48 290.92
  Q 528.73 293.79 527.39 292.12
  Q 517.82 279.12 508.08 266.16
  Q 507.11 264.87 506.86 263.29
  Q 506.78 262.80 507.05 262.38
  C 509.61 258.38 507.03 247.90 505.58 243.00
  Q 505.87 242.16 505.86 241.25
  Q 505.86 240.71 506.39 240.80
  Q 508.24 241.12 509.80 242.15
  Q 527.28 253.72 536.88 271.52
  Q 537.24 272.18 537.58 271.51
  Q 548.56 249.79 557.61 228.57
  Q 558.17 227.28 559.49 222.75
  Q 560.65 218.82 559.15 216.38
  C 561.33 215.65 562.59 215.90 562.77 218.44
  Z"
/>
<path fill="#f6ad8a" d="
  M 484.43 217.39
  Q 483.90 221.23 484.39 224.39
  Q 484.91 227.73 485.29 231.15
  Q 485.53 233.21 484.62 235.33
  Q 482.35 240.62 481.21 248.23
  Q 480.22 254.87 478.02 266.38
  Q 475.94 263.65 476.94 259.89
  Q 478.66 253.39 478.93 247.30
  Q 478.95 246.74 478.41 246.63
  Q 478.02 246.55 477.61 246.59
  Q 477.08 246.64 476.76 247.07
  L 474.53 250.11
  Q 475.78 245.56 471.33 244.91
  Q 465.61 244.07 459.37 248.50
  Q 469.79 231.06 484.43 217.39
  Z"
/>
<path fill="#f7e4ca" d="
  M 603.80 629.93
  L 532.32 634.95
  L 492.88 637.65
  L 488.58 638.01
  A 0.54 0.53 87.6 0 1 488.00 637.47
  Q 488.02 535.93 491.15 434.51
  Q 493.53 433.92 495.35 431.47
  Q 496.27 431.85 496.35 431.23
  Q 502.18 386.27 514.59 339.87
  C 518.19 326.45 521.78 313.61 527.73 301.79
  C 528.50 300.26 528.20 298.44 526.81 297.38
  L 527.39 292.12
  Q 528.73 293.79 530.48 290.92
  Q 531.17 291.30 531.89 290.80
  Q 532.42 290.42 532.61 289.77
  C 533.60 286.34 531.39 282.72 529.52 279.89
  Q 526.08 274.69 522.45 269.73
  Q 520.47 267.04 521.20 264.32
  Q 522.18 260.67 520.70 257.63
  Q 520.37 256.94 519.93 256.25
  Q 519.10 254.91 520.42 254.20
  Q 530.28 264.24 536.74 276.93
  A 0.87 0.86 -45.6 0 0 538.29 276.91
  C 546.32 260.32 554.90 243.53 561.27 226.50
  Q 562.70 222.70 562.77 218.44
  Q 563.85 219.20 565.35 219.67
  Q 567.15 220.22 567.98 220.65
  C 577.01 225.31 585.07 230.90 593.08 237.27
  C 597.42 240.72 602.26 242.37 606.90 245.26
  C 617.42 251.82 627.12 260.53 630.78 272.46
  Q 633.09 280.01 634.98 287.74
  Q 641.39 314.04 648.01 340.34
  C 651.74 355.14 655.17 370.41 658.61 385.11
  Q 661.06 395.56 658.56 407.28
  Q 651.68 439.41 642.78 472.34
  Q 638.22 489.19 633.76 505.88
  Q 631.65 513.80 633.31 521.89
  Q 635.09 530.55 636.61 541.35
  Q 639.18 559.55 639.19 559.62
  Q 644.40 593.15 649.58 626.60
  Q 649.76 627.77 648.58 627.82
  Q 628.07 628.64 607.75 628.89
  Q 606.08 628.91 603.80 629.93
  Z
  M 542.75 307.52
  A 5.30 5.30 0.0 0 0 537.45 302.22
  A 5.30 5.30 0.0 0 0 532.15 307.52
  A 5.30 5.30 0.0 0 0 537.45 312.82
  A 5.30 5.30 0.0 0 0 542.75 307.52
  Z
  M 589.33 373.59
  L 593.83 373.93
  A 1.02 1.00 27.5 0 0 594.54 373.71
  L 594.97 373.34
  A 0.36 0.36 0.0 0 0 594.79 372.71
  Q 585.32 371.38 579.32 363.95
  C 572.92 356.03 571.98 346.69 573.27 336.29
  Q 573.62 333.47 573.38 330.44
  Q 573.32 329.68 572.57 329.82
  C 565.27 331.23 566.45 352.52 567.24 357.68
  C 567.90 361.98 569.64 366.42 568.85 370.62
  C 566.83 381.29 565.34 391.08 565.68 402.34
  Q 566.02 413.48 572.49 422.06
  C 575.32 425.81 579.00 429.13 578.61 434.28
  C 577.96 443.06 577.15 452.58 578.81 460.98
  C 579.82 466.10 583.03 470.72 585.47 475.30
  Q 586.02 476.33 586.29 475.19
  C 591.76 452.33 597.20 429.52 604.42 407.81
  A 2.48 2.47 -64.7 0 0 603.40 404.95
  Q 599.46 402.44 596.26 400.11
  C 588.60 394.55 587.28 383.70 587.94 374.79
  A 1.30 1.30 0.0 0 1 589.33 373.59
  Z
  M 551.62 446.36
  A 5.32 5.32 0.0 0 0 546.30 441.04
  A 5.32 5.32 0.0 0 0 540.98 446.36
  A 5.32 5.32 0.0 0 0 546.30 451.68
  A 5.32 5.32 0.0 0 0 551.62 446.36
  Z
  M 582.93 526.10
  L 581.39 531.17
  Q 581.22 531.72 581.75 531.93
  L 584.30 532.95
  Q 576.51 541.77 574.47 545.47
  Q 572.87 548.36 573.12 551.21
  Q 574.04 561.85 574.07 573.65
  A 1.38 1.36 -71.1 0 0 574.59 574.73
  Q 575.73 575.61 577.23 576.03
  A 0.72 0.72 0.0 0 1 577.75 576.71
  L 577.88 583.20
  C 578.12 585.91 579.41 589.35 582.54 589.69
  Q 586.18 590.08 588.80 588.41
  Q 590.75 587.16 592.10 586.83
  Q 599.29 585.07 606.55 582.63
  Q 609.20 581.96 612.20 581.69
  Q 614.04 581.53 615.20 580.34
  Q 616.09 579.42 616.19 577.53
  Q 616.73 567.48 616.97 558.50
  Q 617.13 552.33 618.77 543.29
  L 620.02 540.12
  Q 620.28 539.46 620.97 539.63
  Q 622.25 539.94 623.43 540.82
  Q 623.87 541.15 623.87 540.60
  Q 623.87 540.18 623.51 539.28
  L 625.08 527.27
  A 1.13 1.13 0.0 0 0 623.46 526.11
  L 622.50 526.58
  A 0.97 0.96 77.5 0 1 621.11 525.69
  Q 621.18 522.05 618.48 519.36
  Q 617.41 518.30 617.62 519.79
  L 618.44 525.71
  A 1.03 1.02 -9.4 0 1 617.61 526.86
  C 612.80 527.72 608.60 524.66 605.58 521.34
  C 596.60 511.50 587.97 501.07 581.67 489.56
  Q 580.97 488.28 580.76 489.73
  L 575.88 522.65
  Q 575.64 524.24 577.20 524.64
  L 582.93 526.10
  Z
  M 542.34 584.04
  A 5.31 5.31 0.0 0 0 537.03 578.73
  A 5.31 5.31 0.0 0 0 531.72 584.04
  A 5.31 5.31 0.0 0 0 537.03 589.35
  A 5.31 5.31 0.0 0 0 542.34 584.04
  Z"
/>
<path fill="#fdfdfd" d="
  M 505.58 243.00
  C 507.03 247.90 509.61 258.38 507.05 262.38
  Q 506.78 262.80 506.86 263.29
  Q 507.11 264.87 508.08 266.16
  Q 517.82 279.12 527.39 292.12
  L 526.81 297.38
  Q 525.38 299.57 524.37 301.88
  Q 519.42 313.21 516.12 324.06
  Q 506.43 355.97 499.15 395.48
  Q 496.69 408.83 495.55 420.00
  Q 494.96 425.84 495.35 431.47
  Q 493.53 433.92 491.15 434.51
  Q 493.54 366.51 498.34 298.77
  Q 499.20 286.67 501.47 266.25
  C 502.31 258.73 504.75 251.21 505.12 243.47
  Q 505.03 242.87 505.58 243.00
  Z"
/>
<path fill="#232c31" d="
  M 474.53 250.11
  Q 473.40 255.83 474.72 261.74
  C 475.29 264.29 475.28 266.68 474.34 268.81
  Q 472.22 273.61 468.53 277.48
  L 448.58 291.34
  A 0.76 0.76 0.0 0 1 447.41 290.55
  C 448.39 286.30 457.70 281.18 461.36 279.01
  Q 467.17 275.56 470.64 269.76
  C 472.08 267.35 472.32 264.51 471.93 261.79
  Q 470.93 255.00 471.68 249.12
  A 1.28 1.28 0.0 0 0 470.44 247.67
  Q 463.73 247.56 459.46 253.45
  Q 455.32 259.17 452.91 265.70
  A 0.12 0.11 79.4 0 0 453.09 265.83
  L 462.89 256.25
  Q 463.55 255.60 463.79 256.50
  Q 464.02 257.37 462.70 258.96
  Q 456.05 266.93 449.10 274.25
  Q 446.16 272.98 447.71 269.97
  Q 448.98 267.52 452.25 259.73
  Q 454.66 253.97 459.37 248.50
  Q 465.61 244.07 471.33 244.91
  Q 475.78 245.56 474.53 250.11
  Z"
/>
<path fill="#f6ad8a" d="
  M 520.42 254.20
  Q 519.10 254.91 519.93 256.25
  Q 520.37 256.94 520.70 257.63
  Q 522.18 260.67 521.20 264.32
  Q 520.47 267.04 522.45 269.73
  Q 526.08 274.69 529.52 279.89
  C 531.39 282.72 533.60 286.34 532.61 289.77
  Q 532.42 290.42 531.89 290.80
  Q 531.17 291.30 530.48 290.92
  L 510.16 264.43
  Q 509.83 264.00 509.97 263.48
  Q 512.38 254.73 508.84 245.40
  Q 508.61 244.82 509.15 245.13
  Q 515.48 248.74 520.42 254.20
  Z"
/>
<path fill="#d3ab8b" d="
  M 478.02 266.38
  L 435.83 481.45
  L 408.38 617.95
  L 406.91 625.95
  L 405.86 629.52
  A 0.94 0.93 -69.4 0 1 404.58 630.10
  Q 400.91 628.47 396.83 628.14
  A 1.26 1.26 0.0 0 1 395.71 626.59
  Q 401.79 601.14 407.18 577.03
  Q 410.64 561.54 414.19 546.24
  Q 417.52 531.86 420.35 518.08
  C 421.31 513.43 422.64 508.92 423.61 504.30
  Q 425.63 494.64 427.53 484.64
  C 428.86 477.68 430.74 470.84 432.00 463.79
  C 432.50 460.98 433.58 457.98 434.05 455.25
  Q 435.79 445.03 438.35 434.56
  Q 439.10 431.52 439.56 428.55
  C 440.36 423.43 441.90 418.44 442.69 413.50
  Q 444.13 404.43 446.18 395.64
  Q 447.15 391.47 447.93 387.40
  C 449.21 380.67 450.68 374.08 451.83 367.15
  C 452.96 360.30 454.57 353.59 455.82 346.77
  C 457.36 338.36 459.13 330.54 460.28 321.61
  Q 460.47 320.06 460.94 318.34
  Q 461.38 316.73 461.69 315.09
  Q 464.35 300.96 467.52 282.99
  Q 467.94 280.61 468.53 277.48
  Q 472.22 273.61 474.34 268.81
  C 475.28 266.68 475.29 264.29 474.72 261.74
  Q 473.40 255.83 474.53 250.11
  L 476.76 247.07
  Q 477.08 246.64 477.61 246.59
  Q 478.02 246.55 478.41 246.63
  Q 478.95 246.74 478.93 247.30
  Q 478.66 253.39 476.94 259.89
  Q 475.94 263.65 478.02 266.38
  Z"
/>
<path fill="#f7e4ca" d="
  M 468.53 277.48
  Q 467.94 280.61 467.52 282.99
  Q 464.35 300.96 461.69 315.09
  Q 461.38 316.73 460.94 318.34
  Q 460.47 320.06 460.28 321.61
  C 459.13 330.54 457.36 338.36 455.82 346.77
  C 454.57 353.59 452.96 360.30 451.83 367.15
  C 450.68 374.08 449.21 380.67 447.93 387.40
  Q 447.15 391.47 446.18 395.64
  Q 444.13 404.43 442.69 413.50
  C 441.90 418.44 440.36 423.43 439.56 428.55
  Q 439.10 431.52 438.35 434.56
  Q 435.79 445.03 434.05 455.25
  C 433.58 457.98 432.50 460.98 432.00 463.79
  C 430.74 470.84 428.86 477.68 427.53 484.64
  Q 425.63 494.64 423.61 504.30
  C 422.64 508.92 421.31 513.43 420.35 518.08
  Q 417.52 531.86 414.19 546.24
  Q 410.64 561.54 407.18 577.03
  Q 401.79 601.14 395.71 626.59
  A 1.26 1.26 0.0 0 0 396.83 628.14
  Q 400.91 628.47 404.58 630.10
  A 0.94 0.93 -69.4 0 0 405.86 629.52
  L 406.91 625.95
  L 406.87 629.54
  A 2.48 2.47 -87.4 0 1 404.20 631.98
  Q 392.71 631.04 378.70 629.56
  Q 371.76 628.83 367.03 626.59
  C 362.76 624.56 363.89 607.49 364.42 602.28
  Q 364.56 600.96 364.04 600.68
  Q 365.14 598.14 365.48 594.68
  Q 366.06 588.64 366.07 588.58
  Q 369.65 564.55 373.85 545.07
  Q 382.84 503.42 395.28 457.84
  Q 398.01 447.87 400.44 438.49
  Q 406.40 415.50 412.47 394.06
  Q 415.18 384.49 417.77 374.79
  Q 421.76 359.91 426.45 343.92
  C 427.76 339.45 428.48 334.89 429.68 330.53
  C 430.51 327.51 429.37 324.92 429.68 321.89
  Q 429.75 321.19 429.06 321.32
  Q 428.75 321.37 428.61 321.64
  Q 427.96 322.85 427.49 322.94
  Q 434.90 305.80 443.97 289.19
  Q 446.00 285.47 449.10 274.25
  Q 456.05 266.93 462.70 258.96
  Q 464.02 257.37 463.79 256.50
  Q 463.55 255.60 462.89 256.25
  L 453.09 265.83
  A 0.12 0.11 79.4 0 1 452.91 265.70
  Q 455.32 259.17 459.46 253.45
  Q 463.73 247.56 470.44 247.67
  A 1.28 1.28 0.0 0 1 471.68 249.12
  Q 470.93 255.00 471.93 261.79
  C 472.32 264.51 472.08 267.35 470.64 269.76
  Q 467.17 275.56 461.36 279.01
  C 457.70 281.18 448.39 286.30 447.41 290.55
  A 0.76 0.76 0.0 0 0 448.58 291.34
  L 468.53 277.48
  Z
  M 446.24 292.87
  Q 446.10 293.32 446.49 293.59
  Q 446.60 293.66 446.67 293.55
  Q 446.90 293.23 446.73 292.85
  A 0.26 0.26 0.0 0 0 446.24 292.87
  Z"
/>
<path fill="#232c31" d="
  M 446.24 292.87
  A 0.26 0.26 0.0 0 1 446.73 292.85
  Q 446.90 293.23 446.67 293.55
  Q 446.60 293.66 446.49 293.59
  Q 446.10 293.32 446.24 292.87
  Z"
/>
<path fill="#232c31" d="
  M 526.81 297.38
  C 528.20 298.44 528.50 300.26 527.73 301.79
  C 521.78 313.61 518.19 326.45 514.59 339.87
  Q 502.18 386.27 496.35 431.23
  Q 496.27 431.85 495.35 431.47
  Q 494.96 425.84 495.55 420.00
  Q 496.69 408.83 499.15 395.48
  Q 506.43 355.97 516.12 324.06
  Q 519.42 313.21 524.37 301.88
  Q 525.38 299.57 526.81 297.38
  Z"
/>
<circle fill="#232c31" cx="537.45" cy="307.52" r="5.30"/>
<path fill="#d3ab8b" d="
  M 364.04 600.68
  Q 353.62 598.19 339.24 593.79
  C 334.16 592.23 334.55 587.53 335.27 583.31
  Q 336.81 574.28 339.31 565.53
  C 345.68 543.28 353.55 522.16 361.86 500.23
  Q 372.58 471.96 385.80 443.92
  Q 390.52 433.90 393.52 422.36
  Q 396.96 409.11 401.30 395.65
  C 402.19 392.89 402.70 389.81 403.66 386.93
  Q 414.39 354.58 427.49 322.94
  Q 427.96 322.85 428.61 321.64
  Q 428.75 321.37 429.06 321.32
  Q 429.75 321.19 429.68 321.89
  C 429.37 324.92 430.51 327.51 429.68 330.53
  C 428.48 334.89 427.76 339.45 426.45 343.92
  Q 421.76 359.91 417.77 374.79
  Q 415.18 384.49 412.47 394.06
  Q 406.40 415.50 400.44 438.49
  Q 398.01 447.87 395.28 457.84
  Q 382.84 503.42 373.85 545.07
  Q 369.65 564.55 366.07 588.58
  Q 366.06 588.64 365.48 594.68
  Q 365.14 598.14 364.04 600.68
  Z"
/>
<path fill="#d3ab8b" d="
  M 589.33 373.59
  A 1.30 1.30 0.0 0 0 587.94 374.79
  C 587.28 383.70 588.60 394.55 596.26 400.11
  Q 599.46 402.44 603.40 404.95
  A 2.48 2.47 -64.7 0 1 604.42 407.81
  C 597.20 429.52 591.76 452.33 586.29 475.19
  Q 586.02 476.33 585.47 475.30
  C 583.03 470.72 579.82 466.10 578.81 460.98
  C 577.15 452.58 577.96 443.06 578.61 434.28
  C 579.00 429.13 575.32 425.81 572.49 422.06
  Q 566.02 413.48 565.68 402.34
  C 565.34 391.08 566.83 381.29 568.85 370.62
  C 569.64 366.42 567.90 361.98 567.24 357.68
  C 566.45 352.52 565.27 331.23 572.57 329.82
  Q 573.32 329.68 573.38 330.44
  Q 573.62 333.47 573.27 336.29
  C 571.98 346.69 572.92 356.03 579.32 363.95
  Q 585.32 371.38 594.79 372.71
  A 0.36 0.36 0.0 0 1 594.97 373.34
  L 594.54 373.71
  A 1.02 1.00 27.5 0 1 593.83 373.93
  L 589.33 373.59
  Z"
/>
<circle fill="#232c31" cx="546.30" cy="446.36" r="5.32"/>
<path fill="#584539" d="
  M 422.88 618.61
  L 408.38 617.95
  L 435.83 481.45
  Q 435.92 481.66 435.97 481.85
  Q 436.07 482.22 436.45 482.20
  Q 448.02 481.68 459.75 480.94
  Q 466.26 480.53 472.33 480.36
  Q 474.03 480.31 472.42 480.84
  L 449.73 488.25
  A 1.19 1.16 85.7 0 0 448.93 489.20
  Q 446.57 505.40 443.45 521.25
  Q 435.16 563.45 426.04 606.85
  Q 425.52 609.32 424.48 612.72
  Q 423.59 615.64 422.88 618.61
  Z"
/>
<path fill="#d3ab8b" d="
  M 623.51 539.28
  L 582.93 526.10
  L 577.20 524.64
  Q 575.64 524.24 575.88 522.65
  L 580.76 489.73
  Q 580.97 488.28 581.67 489.56
  C 587.97 501.07 596.60 511.50 605.58 521.34
  C 608.60 524.66 612.80 527.72 617.61 526.86
  A 1.03 1.02 -9.4 0 0 618.44 525.71
  L 617.62 519.79
  Q 617.41 518.30 618.48 519.36
  Q 621.18 522.05 621.11 525.69
  A 0.97 0.96 77.5 0 0 622.50 526.58
  L 623.46 526.11
  A 1.13 1.13 0.0 0 1 625.08 527.27
  L 623.51 539.28
  Z"
/>
<path fill="#584539" d="
  M 623.51 539.28
  Q 623.87 540.18 623.87 540.60
  Q 623.87 541.15 623.43 540.82
  Q 622.25 539.94 620.97 539.63
  Q 620.28 539.46 620.02 540.12
  L 618.77 543.29
  L 584.30 532.95
  L 581.75 531.93
  Q 581.22 531.72 581.39 531.17
  L 582.93 526.10
  L 623.51 539.28
  Z"
/>
<path fill="#f6ad8a" d="
  M 618.77 543.29
  Q 617.13 552.33 616.97 558.50
  Q 616.73 567.48 616.19 577.53
  Q 616.09 579.42 615.20 580.34
  Q 614.04 581.53 612.20 581.69
  Q 609.20 581.96 606.55 582.63
  Q 605.65 581.65 603.35 582.80
  Q 601.47 583.75 601.10 581.67
  Q 600.96 580.94 601.32 579.02
  Q 601.36 578.76 601.11 578.72
  L 600.78 578.68
  Q 600.63 578.66 600.57 578.80
  Q 599.95 580.45 600.16 582.29
  Q 600.33 583.75 598.89 584.02
  L 594.02 584.94
  Q 592.74 585.18 592.73 583.88
  Q 592.71 581.93 592.16 579.94
  Q 592.13 579.86 592.05 579.87
  L 591.71 579.94
  Q 591.56 579.98 591.57 580.13
  L 591.87 584.30
  Q 591.93 585.07 591.27 585.46
  C 586.23 588.49 581.04 588.85 578.40 582.44
  A 0.21 0.20 -51.7 0 0 578.01 582.49
  L 577.88 583.20
  L 577.75 576.71
  A 0.72 0.72 0.0 0 0 577.23 576.03
  Q 575.73 575.61 574.59 574.73
  A 1.38 1.36 -71.1 0 1 574.07 573.65
  Q 574.04 561.85 573.12 551.21
  Q 572.87 548.36 574.47 545.47
  Q 576.51 541.77 584.30 532.95
  L 618.77 543.29
  Z"
/>
<circle fill="#232c31" cx="537.03" cy="584.04" r="5.31"/>
<path fill="#d3ab8b" d="
  M 606.55 582.63
  Q 599.29 585.07 592.10 586.83
  Q 590.75 587.16 588.80 588.41
  Q 586.18 590.08 582.54 589.69
  C 579.41 589.35 578.12 585.91 577.88 583.20
  L 578.01 582.49
  A 0.21 0.20 -51.7 0 1 578.40 582.44
  C 581.04 588.85 586.23 588.49 591.27 585.46
  Q 591.93 585.07 591.87 584.30
  L 591.57 580.13
  Q 591.56 579.98 591.71 579.94
  L 592.05 579.87
  Q 592.13 579.86 592.16 579.94
  Q 592.71 581.93 592.73 583.88
  Q 592.74 585.18 594.02 584.94
  L 598.89 584.02
  Q 600.33 583.75 600.16 582.29
  Q 599.95 580.45 600.57 578.80
  Q 600.63 578.66 600.78 578.68
  L 601.11 578.72
  Q 601.36 578.76 601.32 579.02
  Q 600.96 580.94 601.10 581.67
  Q 601.47 583.75 603.35 582.80
  Q 605.65 581.65 606.55 582.63
  Z"
/>
<path fill="#232c31" d="
  M 603.80 629.93
  L 611.45 660.68
  Q 611.63 661.41 612.11 661.98
  Q 630.38 683.74 650.03 708.70
  C 656.43 716.85 664.52 724.82 671.45 733.29
  Q 691.98 758.37 710.26 784.57
  C 718.10 795.81 726.09 807.18 733.03 818.75
  C 733.82 820.07 733.97 821.18 733.19 822.62
  Q 729.34 829.74 723.17 834.87
  Q 710.52 846.17 696.23 855.86
  L 692.39 859.20
  A 0.88 0.88 0.0 0 1 691.10 859.03
  Q 673.57 833.54 655.01 811.20
  C 646.95 801.50 637.87 792.23 628.90 783.21
  Q 621.89 776.15 616.01 769.35
  Q 595.92 746.12 567.44 712.27
  Q 560.55 704.08 557.01 697.76
  Q 552.39 689.55 547.85 678.17
  Q 539.39 657.02 532.32 634.95
  L 603.80 629.93
  Z"
/>
<path fill="#fdfdfd" d="
  M 532.32 634.95
  Q 539.39 657.02 547.85 678.17
  Q 552.39 689.55 557.01 697.76
  Q 560.55 704.08 567.44 712.27
  Q 595.92 746.12 616.01 769.35
  Q 621.89 776.15 628.90 783.21
  C 637.87 792.23 646.95 801.50 655.01 811.20
  Q 673.57 833.54 691.10 859.03
  A 0.88 0.88 0.0 0 0 692.39 859.20
  L 696.23 855.86
  Q 701.30 861.76 706.05 867.03
  Q 705.92 867.36 706.90 867.61
  Q 705.41 868.95 703.89 870.24
  C 701.98 871.86 699.70 872.78 698.52 875.17
  Q 689.01 894.58 678.64 914.88
  C 674.75 922.49 672.27 929.98 674.59 938.82
  Q 544.43 937.24 414.50 939.47
  Q 408.28 939.57 386.79 940.35
  L 393.41 909.12
  A 0.95 0.94 13.8 0 0 392.74 908.02
  L 386.76 906.33
  L 387.45 889.39
  L 400.66 894.35
  Q 401.23 894.57 401.46 894.01
  Q 421.79 844.91 433.84 814.64
  Q 441.03 796.60 446.20 781.92
  Q 453.62 760.85 455.45 751.78
  Q 458.43 736.98 461.62 728.91
  Q 468.91 710.51 476.15 692.38
  Q 484.23 672.13 492.88 637.65
  L 532.32 634.95
  Z"
/>
<path fill="#f6ad8a" d="
  M 723.17 834.87
  L 733.77 843.06
  L 706.90 867.61
  Q 705.92 867.36 706.05 867.03
  Q 701.30 861.76 696.23 855.86
  Q 710.52 846.17 723.17 834.87
  Z"
/>
<path fill="#232c31" d="
  M 689.68 940.94
  Q 687.64 942.86 685.61 944.89
  Q 682.25 948.24 679.06 944.70
  Q 675.58 940.82 674.59 938.82
  C 672.27 929.98 674.75 922.49 678.64 914.88
  Q 689.01 894.58 698.52 875.17
  C 699.70 872.78 701.98 871.86 703.89 870.24
  Q 705.41 868.95 706.90 867.61
  L 733.77 843.06
  L 738.30 838.94
  A 1.30 1.29 -42.6 0 1 740.12 839.01
  Q 753.30 852.97 767.64 866.42
  A 0.63 0.62 45.3 0 1 767.64 867.33
  L 689.68 940.94
  Z
  M 711.78 906.07
  Q 700.67 914.12 694.15 920.51
  Q 686.16 928.34 678.32 936.71
  A 0.59 0.59 0.0 0 0 678.27 937.45
  L 678.52 937.80
  A 0.69 0.69 0.0 0 0 679.56 937.89
  Q 686.01 931.68 691.98 925.67
  Q 701.85 915.74 713.23 907.61
  C 715.31 906.12 717.60 903.58 719.20 901.57
  Q 736.41 879.91 755.17 860.77
  Q 756.08 859.84 756.64 858.46
  Q 756.82 858.00 756.18 857.70
  A 0.67 0.66 -54.4 0 0 755.44 857.83
  Q 744.52 868.53 734.53 880.10
  Q 725.47 890.58 716.93 901.00
  C 715.42 902.84 713.71 904.68 711.78 906.07
  Z"
/>
<path fill="#fdfdfd" d="
  M 711.78 906.07
  C 713.71 904.68 715.42 902.84 716.93 901.00
  Q 725.47 890.58 734.53 880.10
  Q 744.52 868.53 755.44 857.83
  A 0.67 0.66 -54.4 0 1 756.18 857.70
  Q 756.82 858.00 756.64 858.46
  Q 756.08 859.84 755.17 860.77
  Q 736.41 879.91 719.20 901.57
  C 717.60 903.58 715.31 906.12 713.23 907.61
  Q 701.85 915.74 691.98 925.67
  Q 686.01 931.68 679.56 937.89
  A 0.69 0.69 0.0 0 1 678.52 937.80
  L 678.27 937.45
  A 0.59 0.59 0.0 0 1 678.32 936.71
  Q 686.16 928.34 694.15 920.51
  Q 700.67 914.12 711.78 906.07
  Z"
/>
<path fill="#f6ad8a" d="
  M 387.45 889.39
  L 386.76 906.33
  L 346.81 895.69
  L 356.06 877.71
  L 387.45 889.39
  Z"
/>
<path fill="#232c31" d="
  M 346.81 895.69
  L 386.76 906.33
  L 392.74 908.02
  A 0.95 0.94 13.8 0 1 393.41 909.12
  L 386.79 940.35
  L 385.09 948.71
  A 0.55 0.54 14.2 0 1 384.40 949.12
  L 360.00 941.70
  Q 344.41 936.92 329.08 932.31
  Q 303.54 924.63 273.87 915.42
  Q 272.68 915.05 271.82 914.15
  Q 271.42 913.74 271.49 913.18
  C 272.94 899.68 283.21 894.59 295.70 893.89
  Q 318.84 892.59 342.61 891.65
  A 1.29 1.28 79.4 0 1 343.88 892.52
  Q 344.76 895.16 346.81 895.69
  Z
  M 278.33 907.57
  Q 289.09 910.46 299.42 913.34
  C 307.02 915.46 314.09 918.94 321.29 922.07
  Q 323.21 922.91 325.24 923.19
  Q 355.16 927.33 385.90 934.03
  A 0.71 0.70 -56.4 0 0 386.47 933.91
  Q 387.66 933.04 385.95 932.56
  C 366.33 927.09 346.26 924.00 325.71 921.24
  Q 323.58 920.95 321.82 920.07
  Q 310.26 914.27 300.29 911.37
  Q 290.39 908.50 279.79 905.74
  Q 278.79 905.48 278.00 906.15
  Q 277.80 906.32 277.74 906.57
  Q 277.54 907.36 278.33 907.57
  Z"
/>
<path fill="#fdfdfd" d="
  M 278.33 907.57
  Q 277.54 907.36 277.74 906.57
  Q 277.80 906.32 278.00 906.15
  Q 278.79 905.48 279.79 905.74
  Q 290.39 908.50 300.29 911.37
  Q 310.26 914.27 321.82 920.07
  Q 323.58 920.95 325.71 921.24
  C 346.26 924.00 366.33 927.09 385.95 932.56
  Q 387.66 933.04 386.47 933.91
  A 0.71 0.70 -56.4 0 1 385.90 934.03
  Q 355.16 927.33 325.24 923.19
  Q 323.21 922.91 321.29 922.07
  C 314.09 918.94 307.02 915.46 299.42 913.34
  Q 289.09 910.46 278.33 907.57
  Z"
/>
<path fill="#e2e1de" d="
  M 674.59 938.82
  Q 675.58 940.82 679.06 944.70
  Q 682.25 948.24 685.61 944.89
  Q 687.64 942.86 689.68 940.94
  C 691.89 940.27 693.82 939.51 696.18 939.52
  Q 750.39 939.75 800.76 942.55
  Q 815.78 943.38 829.77 945.40
  Q 832.17 945.74 834.34 946.46
  Q 836.43 947.15 834.42 948.03
  Q 832.01 949.08 829.26 949.46
  Q 806.68 952.61 787.01 953.79
  Q 733.07 957.02 675.75 958.72
  Q 608.79 960.71 536.50 961.80
  Q 453.97 963.04 389.23 961.79
  Q 336.35 960.77 292.00 958.72
  Q 269.32 957.67 245.68 954.78
  Q 239.80 954.06 236.03 952.87
  A 0.86 0.86 0.0 0 1 235.65 951.48
  Q 236.20 950.86 237.01 950.70
  Q 251.54 947.75 266.49 946.59
  Q 291.07 944.68 315.44 943.59
  C 326.73 943.09 340.43 942.09 352.67 941.71
  Q 353.60 941.68 356.29 942.08
  Q 358.36 942.39 360.00 941.70
  L 384.40 949.12
  A 0.55 0.54 14.2 0 0 385.09 948.71
  L 386.79 940.35
  Q 408.28 939.57 414.50 939.47
  Q 544.43 937.24 674.59 938.82
  Z"
/>
</svg>
